<?xml version="1.0" encoding="utf-8"?>
<!-- Generator: Adobe Illustrator 16.0.0, SVG Export Plug-In . SVG Version: 6.00 Build 0)  -->
<!DOCTYPE svg PUBLIC "-//W3C//DTD SVG 1.1//EN" "http://www.w3.org/Graphics/SVG/1.1/DTD/svg11.dtd">
<svg version="1.1" id="Layer_1" xmlns="http://www.w3.org/2000/svg" xmlns:xlink="http://www.w3.org/1999/xlink" x="0px" y="0px"
	 width="710px" height="622px" viewBox="0 0 710 622" enable-background="new 0 0 710 622" xml:space="preserve">
<g id="circle">
	<g>
		<path id="circle_2_" fill="#FF9D08" d="M170.586,554.046c-14.755-9.712-29.751-19.087-44.222-29.222
			c-53.342-37.345-80.241-88.767-81.477-153.843c-0.164-8.784-1.877-17.522-2.874-26.282
			C29.273,278.205,53.23,219.853,88.454,167.263C149.622,75.961,306.618,16.959,414,40.712
			c40.944,9.053,80.937,21.379,120.542,35.407c76.207,26.99,109.157,85.355,115.891,160.664
			c6.364,71.226-2.177,144.768-34.14,206.16c-45.21,86.838-124.771,139.135-224.657,150.748
			c-33.711,3.926-68.727,4.338-102.878-2.34c-4.506-0.668-9.016-1.337-13.522-2.011
			C238.584,582.824,204.109,569.863,170.586,554.046z">
        </path>/>
		<path id="circle_1_" fill="#FFDDA9" d="M288.761,591.354c27.867-8.811,56.247-1.146,84.376-2.224
			c56.203-2.162,104.722-21.036,147.244-57.56c18.062-15.519,34.151-33.479,56.022-44.578c20.446-10.373,27.297-31.631,33.836-51.15
			c16.164-48.264,23.235-98.663,31.938-148.691c9.016-51.798-14.354-96.734-29.871-142.604
			c-8.714-25.752-37.681-38.623-61.548-49.271c-99.056-44.205-200.94-68.058-308.899-32.312
			c-18.853,6.237-35.996,13.853-50.312,27.962c-7.352,7.256-15.88,13.672-24.787,18.931
			C85.607,157.748,53.337,233.17,45.805,322.803c-0.616,7.354-2.487,14.598-3.782,21.896
			c-22.215-15.514-13.841-39.113-11.057-57.656C50.574,156.371,132.449,66.852,263.054,41.078
			c56.646-11.174,113.414-24.953,172.589-22.811c35.517,1.285,69.138,5.898,97.646,26.614
			c50.383,36.604,102.957,70.876,130.041,131.727c23.547,52.904,19.551,107.751,18.959,162.776
			c-45.844,107.288-97.385,209.488-220.312,248.439c-52.11,16.517-105.431,18.81-159.37,13.746
			C296.312,600.982,292.025,596.594,288.761,591.354z">
        </path>
	</g>
</g>
</svg>
