<?xml version="1.0" encoding="utf-8"?>
<!-- Generator: Adobe Illustrator 16.0.0, SVG Export Plug-In . SVG Version: 6.00 Build 0)  -->
<!DOCTYPE svg PUBLIC "-//W3C//DTD SVG 1.1//EN" "http://www.w3.org/Graphics/SVG/1.1/DTD/svg11.dtd">
<svg version="1.1" id="Layer_1" xmlns="http://www.w3.org/2000/svg" xmlns:xlink="http://www.w3.org/1999/xlink" x="0px" y="0px"
	 width="11338.58px" height="8839px" viewBox="0 0 11338.58 8839" enable-background="new 0 0 11338.58 8839" xml:space="preserve">
<linearGradient id="SVGID_1_" gradientUnits="userSpaceOnUse" x1="9339.2969" y1="489.1582" x2="4890.0356" y2="2960.9702">
	<stop  offset="0" style="stop-color:#FFFFFF"/>
	<stop  offset="0.4642" style="stop-color:#E0F3FD"/>
	<stop  offset="1" style="stop-color:#B8E4FA"/>
</linearGradient>
<path fill="url(#SVGID_1_)" d="M9572.795,2412.858c0,0,674.833-207.016,437.826-664.125
	c-190.744-367.857-633.701-278.211-633.701-278.211s178.831-283.191-44.732-551.446c-223.562-268.272-566.338-178.86-566.338-178.86
	s138.396-196.941-59.626-387.497c-185.419-178.449-491.97,38.445-491.97,38.445s-157.367-257.518-586.573-214.605
	c-547.649,54.776-486.419,572.275-486.419,572.275s-200.303-429.202-658.113-286.127
	c-457.824,143.062-314.752,600.876-314.752,600.876s-283.091-435.329-686.538-364.137
	c-486.431,85.836-654.404,650.282-654.404,650.282s-14.315-300.451-386.285-300.451c-429.214,0-386.286,300.451-386.286,300.451
	s-243.22-615.199-858.405-515.047c-711.105,115.764-987.657,813.369-587.079,1099.509c0,0-428.897-112.877-654.639,191.874
	c-440.142,594.198,309.471,1017.317,309.471,1017.317s-132.822,677.394,424.177,879.662
	c521.584,189.404,665.934-94.23,665.934-94.23s153.3,490.937,955.357,290.433c541.777-135.45,478.106-494.904,478.106-494.904
	s404.061,308.95,1012.828,308.95c524.816,0,838.319-427.866,838.319-427.866s293.461,361.179,744.944,338.617
	c451.469-22.588,722.361-406.339,722.361-406.339s87.466,497.349,889.375,255.06
	C9957.979,3502.002,9572.795,2412.858,9572.795,2412.858z" transform="translate(-9800, 0)">
            <animateTransform attributeName="transform"
                    type="translate"
                    values="0 0; -9800 0"
                    begin="2s"
                    dur="3s"
                    repeatCount="0"/>
    </path>
<linearGradient id="SVGID_2_" gradientUnits="userSpaceOnUse" x1="7177.0957" y1="2401.959" x2="6265.3906" y2="4831.501">
	<stop  offset="0.1398" style="stop-color:#FFFFFF"/>
	<stop  offset="0.6002" style="stop-color:#E0F3FC"/>
	<stop  offset="0.9544" style="stop-color:#C6E9FA"/>
</linearGradient>
<path fill="url(#SVGID_2_)" d="M2473.542,5458.591c0,0,108.616,639.112,670.164,631.19
	c452.658-6.375,561.399-233.909,561.399-233.909s105.296,440.804,732.917,405.446c492.105-27.719,530.21-374.257,530.21-374.257
	s159.746,376.55,693.595,376.55c545.792,0,630.195-299.633,630.195-299.633s173.773,328.571,735.107,336.155
	c512.896,6.932,663.641-325.944,663.641-325.944s131.371,347.198,755.527,324.916c582.207-20.793,592.172-442.33,592.172-442.33
	s487.4,299.773,857.625,71.469c918.885-566.646,484.969-1567.21,484.969-1567.21s678.955-1276.23-760.634-1424.272
	c-366.894-37.732,137.833,168.462,137.833,168.462s81.678-387.975-357.344-617.695
	c-415.657-217.495-842.312,219.511-842.312,219.511s-219.512-515.597-862.731-469.652
	c-975.551,69.683-1051.613,750.424-1051.613,750.424s-376.456-399.229-893.361-316.506
	c-611.735,97.9-719.793,525.808-719.793,525.808s-284.068-236.44-964.83-30.63c-596.081,180.208-484.968,755.528-484.968,755.528
	s-221.811-284.19-796.264-89.413c-512.51,173.771-408.497,691.794-408.497,691.794s-452.546,63.297-439.023,357.344
	C1958.42,5335.893,2473.542,5458.591,2473.542,5458.591z" transform="translate(-9800, 0)">
            <animateTransform attributeName="transform"
                    type="translate"
                    values="0 0, -9800 0"
                    begin="2s"
                    dur="3s"
                    repeatCount="0"/>
    </path>
<linearGradient id="SVGID_3_" gradientUnits="userSpaceOnUse" x1="7826.3711" y1="5383.0068" x2="7020.1802" y2="8026.3569" gradientTransform="matrix(1 0 0 1 -2084.6968 -594.0001)">
	<stop  offset="0.1398" style="stop-color:#FFFFFF"/>
	<stop  offset="0.391" style="stop-color:#ECF8FD"/>
	<stop  offset="0.7213" style="stop-color:#DAF1FC"/>
	<stop  offset="0.9544" style="stop-color:#D3EEFB"/>
</linearGradient>
<path fill="url(#SVGID_3_)" d="M9181.527,6749.701c0,0,329.004-298.223,209.269-544.621
	c-115.79-238.279-355.759-283.36-355.759-283.36s114.015-338.225-124.266-474.156c-121.949-69.567-321.381-4.255-321.381-4.255
	s-63.396-261.061-297.164-302.271c-246.583-43.469-315.523,181.975-315.523,181.975s-19.309-243.572-364.605-231.252
	c-264.633,9.441-288.404,198.203-288.404,198.203s-48.895-408.509-459.735-389.163c-445.25,20.969-498.944,308.879-498.944,308.879
	s2.838-368.627-343.367-487.519c-427.423-146.794-655.223,207.374-655.223,207.374s11.717-544.064-825.362-540.016
	c-649.988,3.145-759.084,675.322-759.084,675.322s-242.922-475.924-857.527-362.854c-569.915,104.847-627.81,555.365-627.81,555.365
	s-444.143-284.273-852.219,270.126c-215.366,292.591-109.867,591.361-109.867,591.361s-326.913-112.549-481.321,320.318
	c-219.733,616,281.722,795.75,281.722,795.75c324.368,271.041,73.383-179.75,73.383-179.75s-366.258,684.762,115.099,1059.518
	c429.666,334.52,983.569-49.279,983.569-49.279s101.156,218.045,547.932,305.719c446.754,87.688,688.762-175.344,688.762-175.344
	s204.774,613.711,949.387,482.199c744.617-131.508,651.536-504.113,651.536-504.113s186.146,547.947,781.839,416.443
	c595.697-131.498,539.842-438.363,539.842-438.363s521.235,197.262,819.084,0c297.852-197.266,223.381-328.781,223.381-328.781
	s204.766,197.277,484.002,87.676c279.229-109.588,241.998-326.404,241.998-326.404s166.488,189.445,371.266,123.689
	c204.773-65.746,292.358-363.008,292.358-363.008s239.083,141.344,409.208-18.91
	C9586.832,7063.174,9181.527,6749.701,9181.527,6749.701z" transform="translate(-9800, 0)">
            <animateTransform attributeName="transform"
                    type="translate"
                    values="0 0; -9800 0"
                    begin="2s"
                    dur="3s"
                    repeatCount="0"/>
    </path>
</svg>