<?xml version="1.0" encoding="utf-8"?>
<!-- Generator: Adobe Illustrator 16.0.0, SVG Export Plug-In . SVG Version: 6.00 Build 0)  -->
<!DOCTYPE svg PUBLIC "-//W3C//DTD SVG 1.1//EN" "http://www.w3.org/Graphics/SVG/1.1/DTD/svg11.dtd">
<svg version="1.1" id="Layer_1" xmlns="http://www.w3.org/2000/svg" xmlns:xlink="http://www.w3.org/1999/xlink" x="0px" y="0px"
	 width="11338.58px" height="7600px" viewBox="0 0 11338.58 7600" enable-background="new 0 0 11338.58 7600" xml:space="preserve">
<linearGradient id="SVGID_1_" gradientUnits="userSpaceOnUse" x1="4910.1597" y1="181.5735" x2="5866.4316" y2="4074.9634">
	<stop  offset="0" style="stop-color:#FFFFFF"/>
	<stop  offset="0.0977" style="stop-color:#F5FBFE"/>
	<stop  offset="0.456" style="stop-color:#D4EFFC"/>
	<stop  offset="0.7545" style="stop-color:#BFE7FB"/>
	<stop  offset="0.9544" style="stop-color:#B8E4FA"/>
</linearGradient>
<path fill="url(#SVGID_1_)" d="M10474.191,2890.909c0,0,209.752-853.583-626.445-1211.966
	c-242.732-104.032-372.439-37.317-372.439-37.317s27.877-156.143-47.393-329.641c-75.26-173.489-331.173-190.845-331.173-190.845
	s15.05-260.242-244.593-305.053c-273.905-47.263-316.523,228.01-316.523,228.01s-184.673-284.832-446.172-177.185
	c-276.943,113.983-246.201,234.543-246.201,234.543s-29.889-403.929-486.207-382.885
	c-494.552,22.815-573.677,369.085-573.677,369.085s-50.677-285.406-435.218-414.685
	c-474.79-159.603-633.025,296.397-633.025,296.397s144.886-527.179-735.069-652.003
	c-716.595-101.651-1065.118,334.33-1065.118,334.33s-227.293-256.04-909.998-133.093
	c-633.025,113.996-553.894,752.391-553.894,752.391s-503.328-198.457-870.423,273.612
	c-243.78,313.488-59.338,729.596-59.338,729.596s-328.201-375.222-771.509,0c-225.784,191.127-147.46,758.527-147.46,758.527
	c-3.565,288.025,546.022,516.152,546.022,516.152s-67.104,712.814,573.878,712.814c640.983,0,564.231-111.766,564.231-111.766
	s97.434,326.256,593.682,421.574c496.244,95.34,765.066-56.605,765.066-56.605s227.438,533.24,1054.531,390.252
	c827.074-142.979,776.523-315.695,776.523-315.695s153.938,363.357,815.615,220.377c661.68-142.988,624.01-359.352,624.01-359.352
	s486.904,194.717,817.723-19.762c330.861-214.482,253.217-357.223,253.217-357.223s227.438,97.217,537.613-21.951
	c310.146-119.164,268.791-304.617,268.791-304.617s248.141,137.795,475.565,66.307c227.464-71.506,268.819-309.812,268.819-309.812
	s183.179,123.189,505.592-3.029C10434.348,3347.263,10474.191,2890.909,10474.191,2890.909z" transform="translate(11000, 0)">
     <animateTransform attributeName="transform"
                    type="translate"
                    values="0 0; 11000 0"
                    begin="2s"
                    dur="3s"
                    repeatCount="0"/>
    </path>
<linearGradient id="SVGID_2_" gradientUnits="userSpaceOnUse" x1="4893.7412" y1="1271.6987" x2="6173.3423" y2="6256.8232">
	<stop  offset="0.1398" style="stop-color:#FFFFFF"/>
	<stop  offset="0.8011" style="stop-color:#E1F3FC"/>
</linearGradient>
<path fill="url(#SVGID_2_)" d="M9955.965,5265.68c0,0,300.385-621.043,49.697-1104.523
	c-201.736-389.094-670.271-294.273-670.271-294.273s13.312-161.762-223.168-445.52
	c-236.467-283.749-455.762-189.164-455.762-189.164s42.064-265.244-206.33-409.866c-235.207-136.965-520.346,40.675-520.346,40.675
	s-285.201-401.799-739.167-356.406c-579.269,57.936-513.013,237.911-513.013,237.911s-197.188-351.391-681.436-200.071
	c-484.23,151.327-347.558,532.983-347.558,532.983s-208.829-241.766-635.55-166.458c-514.523,90.788-484.25,469.109-484.25,469.109
	s-15.139-317.783-408.568-317.783c-453.988,0-555.133,303.129-555.133,303.129s35.861-291.648-614.831-185.733
	c-752.167,122.447-1205.881,860.323-782.16,1162.968c0,0-539.271,214.072-605.382,495.438
	c-249.807,1063.17,831.146,1182.652,831.146,1182.652s-241.226,640.975,376.909,970.229
	c438.092,233.357,664.898,13.158,664.898,13.158s260.367,493.576,1108.719,281.488c573.041-143.254,501.512-542.062,501.512-542.062
	s181.121,240.312,825.031,240.312c555.082,0,715.012-347.748,715.012-347.748s310.403,382.027,787.938,358.15
	c477.537-23.885,764.057-274.59,764.057-274.59s114.121,261.518,982.377,130.457
	C10385.807,6659.129,9955.965,5265.68,9955.965,5265.68z" transform="translate(11000, 0)">
     <animateTransform attributeName="transform"
                    type="translate"
                    values="0 0; 11000 0"
                    begin="2s"
                    dur="3s"
                    repeatCount="0"
            />
    </path>/>
   
</svg>
