<?xml version="1.0" encoding="utf-8"?>
<!-- Generator: Adobe Illustrator 16.0.0, SVG Export Plug-In . SVG Version: 6.00 Build 0)  -->
<!DOCTYPE svg PUBLIC "-//W3C//DTD SVG 1.1//EN" "http://www.w3.org/Graphics/SVG/1.1/DTD/svg11.dtd">
<svg version="1.1" xmlns="http://www.w3.org/2000/svg" xmlns:xlink="http://www.w3.org/1999/xlink" x="0px" y="0px" width="2416px"
	 height="2176px" viewBox="0 0 2416 2176" enable-background="new 0 0 2416 2176" xml:space="preserve">
<g id="circle">
	<g>
		<path fill-rule="evenodd" clip-rule="evenodd" fill="#FF9D08" d="M1032.645,1339.288c-14.755-9.712-29.751-19.087-44.221-29.221
			c-53.342-37.345-80.242-88.766-81.476-153.842c-0.165-8.786-1.877-17.524-2.874-26.284
			c-12.743-66.493,11.214-124.845,46.439-177.435c61.168-91.302,218.164-150.304,325.547-126.551
			c40.945,9.053,80.935,21.379,120.542,35.409c76.207,26.99,109.157,85.355,115.89,160.663
			c6.365,71.225-2.176,144.767-34.139,206.16c-45.21,86.839-124.769,139.136-224.657,150.749
			c-33.711,3.925-68.727,4.337-102.878-2.34c-4.506-0.668-9.016-1.337-13.523-2.011
			C1100.643,1368.067,1066.167,1355.105,1032.645,1339.288z"/>
		<path fill-rule="evenodd" clip-rule="evenodd" fill="#FFDDA9" d="M1150.82,1376.596c27.867-8.811,56.247-1.147,84.376-2.224
			c56.203-2.162,104.722-21.036,147.244-57.56c18.061-15.517,34.152-33.478,56.022-44.578c20.448-10.373,27.298-31.63,33.836-51.15
			c16.164-48.264,23.237-98.663,31.939-148.691c9.014-51.798-14.354-96.735-29.871-142.604
			c-8.714-25.752-37.681-38.623-61.548-49.271c-99.055-44.205-200.941-68.058-308.9-32.313
			c-18.852,6.239-35.997,13.853-50.312,27.962c-7.351,7.256-15.88,13.672-24.787,18.931
			c-81.153,47.891-113.422,123.315-120.954,212.946c-0.617,7.354-2.489,14.598-3.784,21.896
			c-22.213-15.513-13.839-39.113-11.055-57.657c19.609-130.672,101.483-220.191,232.088-245.965
			c56.645-11.173,113.414-24.953,172.589-22.809c35.516,1.285,69.137,5.899,97.644,26.614
			c50.383,36.603,102.957,70.876,130.041,131.727c23.547,52.904,19.551,107.751,18.959,162.776
			c-45.843,107.288-97.384,209.49-220.31,248.441c-52.111,16.515-105.431,18.808-159.371,13.745
			C1158.371,1386.225,1154.084,1381.836,1150.82,1376.596z"/>
	</g>
</g>
<g id="small">
	<path fill-rule="evenodd" clip-rule="evenodd" fill="#FFDDA9" d="M1068.744,1439.166c-3.078,9.664-5.764,23.018-11.406,34.992
		c-27.92,59.305-54.855,119.131-93.737,172.585c-8.337,11.455-15.419,24.189-31.378,17.061
		c-16.113-7.201-25.581-20.708-22.019-39.673c2.536-13.466,10.703-24.279,18.288-35.435
		c35.341-51.979,63.171-107.846,85.263-166.664c4.431-11.798,3.569-28.853,22.059-29.191
		C1049.093,1392.591,1069.091,1419.962,1068.744,1439.166z">
            <animateTransform attributeName="transform"
                    type="translate"
                    from="0 0"
                    to="-9 50"
                    begin="0s"
                    dur="1s"
                    repeatCount="indefinite"
            />
    </path>
	<path fill-rule="evenodd" clip-rule="evenodd" fill="#FFDDA9" d="M1535.544,574.163c0.079,11.046-6.337,17.644-11.567,24.863
		c-39.686,54.76-69.759,114.623-93.121,177.875c-5.453,14.753-9.359,29.974-29.611,25.301
		c-13.453-3.107-26.664-28.104-22.631-44.561c4.6-18.764,11.198-37.174,18.441-55.128c23.008-57.039,57.192-108.005,88.677-160.414
		c9.523-15.838,20.638-14.829,32.308-2.228C1527.404,549.969,1533.357,561.787,1535.544,574.163z">
            <animateTransform attributeName="transform"
                    type="translate"
                    from="0 0"
                    to="60 -50"
                    begin="0s"
                    dur="1s"
                    repeatCount="indefinite"
            />
    </path>/>
	<path fill-rule="evenodd" clip-rule="evenodd" fill="#FFDDA9" d="M1594.334,1002.232c-20.937-1.791-33.023-11.821-36.902-29.598
		c-3.805-17.441,5.306-26.646,21.831-33.026c58.428-22.541,119.932-33.879,179.885-50.777c17.062-4.813,42.874,16.178,45.223,34.201
		c1.882,14.431-6.439,21.944-19.392,25.489c-20.041,5.501-39.875,11.985-60.179,16.214c-36.429,7.585-72.089,17.654-107.246,29.688
		C1609.179,997.291,1600.771,1000.066,1594.334,1002.232z">
            <animateTransform attributeName="transform"
                    type="translate"
                    from="0 0"
                    to="60 -20"
                    begin="0s"
                    dur="1s"
                    repeatCount="indefinite"
            />
    </path>/>
	<path fill-rule="evenodd" clip-rule="evenodd" fill="#FFDAA3" d="M1804.224,1296.873c-2.029,10.637-8.861,20.103-21.011,15.472
		c-65.562-25.003-137.4-28.833-201.029-60.192c-13.415-6.615-19.646-18.446-23.59-31.202c-5.422-17.561,6.583-30.343,24.314-23.59
		c58.808,22.355,120.974,32.049,180.767,50.347C1788.816,1255.4,1805.277,1277.091,1804.224,1296.873z">
            <animateTransform attributeName="transform"
                    type="translate"
                    from="0 0"
                    to="90 10"
                    begin="0s"
                    dur="1s"
                    repeatCount="indefinite"
            />
    </path>/>
	<path fill-rule="evenodd" clip-rule="evenodd" fill="#FFDAA3" d="M888.982,977.882c-0.274,17.029-5.178,23.626-16.175,23.431
		c-5.807-0.104-11.945-1.188-17.305-3.371c-56.763-23.129-117.915-30.302-176.042-48.506c-10.022-3.132-20.839-3.827-26.914-13.61
		c-6.973-11.242-16.513-22.737-9.07-36.933c8.291-15.801,21.389-10.916,34.956-7.005c57.002,16.424,116.259,24.595,171.379,48.128
		C870.538,948.864,883.667,962.645,888.982,977.882z">
            <animateTransform attributeName="transform"
                    type="translate"
                    from="0 0"
                    to="-70 -25"
                    begin="0s"
                    dur="1s"
                    repeatCount="indefinite"
            />
    </path>/>
	<path fill-rule="evenodd" clip-rule="evenodd" fill="#FFD493" d="M1067.693,780.348c-0.287,10.052-3.484,16.667-11.042,19.85
		c-5.959,2.496-11.47-0.025-16.271-4.119c-11.576-9.856-19.16-21.767-24.798-36.286c-23.777-61.216-49.886-121.191-91.902-173.047
		c-10.397-12.826-25.194-33.728-5.545-46.742c19.985-13.244,30.249,9.011,40.788,23.323c41.864,56.839,73.791,118.96,98.834,184.745
		C1061.972,759.147,1064.774,770.76,1067.693,780.348z">
            <animateTransform attributeName="transform"
                    type="translate"
                    from="0 0"
                    to="-50 -40"
                    begin="0s"
                    dur="1s"
                    repeatCount="indefinite"
            />
    </path>/>
	<path fill-rule="evenodd" clip-rule="evenodd" fill="#FFD493" d="M1412.692,1414.31c12.856,13.318,17.585,31.084,25.386,47.106
		c24.873,51.079,48.173,102.973,81.648,149.37c4.332,6.002,7.607,12.845,10.843,19.55c5.617,11.644,7.984,23.817-5.4,31.396
		c-12.121,6.864-20.224-3.364-26.13-11.188c-15.28-20.219-30.758-40.61-43.168-62.616c-30.76-54.55-63.699-108.441-72.521-172.327
		C1392.779,1407.181,1402.635,1408.519,1412.692,1414.31z">
            <animateTransform attributeName="transform"
                    type="translate"
                    from="0 0"
                    to="50 40"
                    begin="0s"
                    dur="1s"
                    repeatCount="indefinite"
            />
    </path>/>
	<path fill-rule="evenodd" clip-rule="evenodd" fill="#FFDDA9" d="M1032.645,1339.288c35.86,8.875,71.321,18.924,104.646,35.315
		C1097.643,1376.976,1061.824,1367.97,1032.645,1339.288z">
    </path>/>
	<path fill-rule="evenodd" clip-rule="evenodd" fill="#FFDDA9" d="M644.4,1324.725c-20.936-1.792-33.022-11.821-36.901-29.598
		c-3.805-17.441,5.306-26.646,21.832-33.026c58.428-22.541,119.932-33.88,179.885-50.776c17.062-4.815,42.874,16.178,45.222,34.2
		c1.882,14.432-6.438,21.944-19.393,25.489c-20.04,5.502-39.874,11.986-60.178,16.215c-36.429,7.583-72.089,17.654-107.247,29.687
		C659.246,1319.784,650.839,1322.558,644.4,1324.725z">
            <animateTransform attributeName="transform"
                    type="translate"
                    from="0 0"
                    to="-90 -10"
                    begin="0s"
                    dur="1s"
                    repeatCount="indefinite"
            />
    </path>/>
    
</g>
<g id="tall">
	<path fill-rule="evenodd" clip-rule="evenodd" fill="#FFD493" d="M415.916,469.88c114.56,80.78,229.241,161.326,338.622,249.228
		c45.3,36.408,93.621,69.112,141.236,102.546c14.864,10.441,28.726,21.575,39.902,35.653c7.832,9.862,12.152,22.25,1.828,32.364
		c-8.613,8.445-19.797,4.788-28.766-1.649c-32.728-23.481-65.102-47.454-97.792-70.997
		c-112.557-81.048-219.168-170.013-334.06-248.105c-32.174-21.872-69.144-41.453-89.354-78.35
		C389.647,473.599,396.98,463.775,415.916,469.88z">
            <animateTransform attributeName="transform"
                    type="translate"
                    from="0 0"
                    to="-150 -120"
                    begin="0s"
                    dur="1s"
                    repeatCount="indefinite"
            />
    </path>/>
	<path fill-rule="evenodd" clip-rule="evenodd" fill="#FFD493" d="M1249.397,147.828c-1.575,22.888-11.122,45.525-9.062,69.878
		c10.311,121.995,5.699,244.427,10.856,366.516c1.688,39.993,5.969,80.104,6.144,120.314c0.047,10.344,0.417,21.383-2.904,30.863
		c-4.11,11.733-13.533,15.184-24.714,6.38c-11.079-8.72-17.145-20.677-20.879-33.699c-2.017-7.024-2.358-14.706-2.403-22.102
		c-1.143-183.465-15.325-366.705-9.845-550.273c0.444-14.935-7.162-36.867,17.95-38.206c22.382-1.189,27.709,19.098,33.509,36.108
		C1249.45,137.715,1248.948,142.463,1249.397,147.828z">
            <animateTransform attributeName="transform"
                    type="translate"
                    from="0 0"
                    to="-10 -120"
                    begin="0s"
                    dur="1s"
                    repeatCount="indefinite"
            />
    </path>/>
	<path fill-rule="evenodd" clip-rule="evenodd" fill="#FFD493" d="M1197.301,1878.5c0-8.96,0.235-17.933-0.032-26.881
		c-3.581-119.449,12.912-238.391,9.16-357.843c-0.231-7.418,0.139-14.999,1.431-22.284c1.347-7.606,5.705-13.892,13.534-16.34
		c9.909-3.098,17.771,1.193,23.228,8.991c7.791,11.133,13.033,23.347,12.836,37.481c-0.436,31.369,3.326,63.383-1.752,93.949
		c-6.682,40.243-4.968,80.304-6.61,120.458c-2.979,72.945,2.818,145.931-7.233,218.992c-5.831,42.366-4.08,86.268,5.875,129.132
		c3.228,13.878,5.004,31.314-12.828,38.863c-12.42,5.259-32.12-12.188-37.004-32.027c-1.753-7.122-1.709-14.79-1.726-22.212
		c-0.13-56.757-0.07-113.523-0.07-170.28C1196.505,1878.5,1196.906,1878.5,1197.301,1878.5z">
            <animateTransform attributeName="transform"
                    type="translate"
                    from="0 0"
                    to="10 120"
                    begin="0s"
                    dur="1s"
                    repeatCount="indefinite"
            />
    </path>/>
	<path fill-rule="evenodd" clip-rule="evenodd" fill="#FFD493" d="M2063.333,1719.182c0.694,12.735-11.938,22.567-24.567,17.376
		c-9.49-3.888-18.564-10.015-26.252-16.901c-59.267-53.039-129.695-90.81-191.521-140.213
		c-89.836-71.789-182.625-139.573-275.456-207.354c-13.139-9.593-24.409-22.092-35.208-34.411
		c-8.283-9.455-12.473-22.211-2.659-32.458c9.209-9.613,20.288-1.877,28.388,3.776c28.15,19.639,55.611,40.271,83.197,60.715
		c134.307,99.521,268.545,199.123,402.864,298.635C2046.812,1686.638,2062.598,1705.779,2063.333,1719.182z">
            <animateTransform attributeName="transform"
                    type="translate"
                    from="0 0"
                    to="100 10"
                    begin="0s"
                    dur="1s"
                    repeatCount="indefinite"
            />
    </path>/>
	<path fill-rule="evenodd" clip-rule="evenodd" fill="#FFDDA9" d="M141.63,1063.838c168.695,0.88,337.387,1.925,506.082,2.485
		c37.4,0.13,73.62,10.59,111.212,10.298c21.814-0.171,38.576,14.553,51.704,31.918c5.805,7.676,8.132,16.052,3.14,24.924
		c-4.963,8.814-13.015,11.733-22.776,10.131c-179.597-29.446-360.633-10.887-540.965-15.47
		c-40.356-1.023-79.607-12.427-120.252-8.528c-17.344,1.667-26.66-11-32.736-25.771c-8.905-21.629-1.416-34.234,22.295-36.719
		c7.393-0.773,14.932-0.115,22.404-0.115C141.703,1059.271,141.663,1061.56,141.63,1063.838z">
            <animateTransform attributeName="transform"
                    type="translate"
                    from="0 0"
                    to="-100 -10"
                    begin="0s"
                    dur="1s"
                    repeatCount="indefinite"
            />
    </path>/>
	<path fill-rule="evenodd" clip-rule="evenodd" fill="#FFDDA9" d="M943.302,1341.017c-1.774,15.95-17.501,25.843-31.767,36.288
		c-51.67,37.833-105.629,72.802-155.157,113.221c-101.642,82.938-212.618,153.125-315.217,234.646
		c-27.12,21.549-47.38,15.724-58.196-14.457c-4.729-13.198-2.113-23.028,9.026-31.314c35.811-26.672,70.275-55.369,107.471-79.92
		c70.992-46.875,137.328-99.609,204.1-152.102c62.003-48.741,127.676-92.806,191.588-139.128c9.079-6.58,18.15-11.184,28.653-4.423
		C935.577,1311.397,944.325,1321.253,943.302,1341.017z">
            <animateTransform attributeName="transform"
                    type="translate"
                    from="0 0"
                    to="-110 -7"
                    begin="0s"
                    dur="1s"
                    repeatCount="indefinite"
            />
    </path>/>
	<path fill-rule="evenodd" clip-rule="evenodd" fill="#FFDDA9" d="M2064.253,498.638c-1.612,13.842-12.876,18.957-21.75,26.852
		c-50.302,44.756-108.581,78.516-162.13,118.779c-103.55,77.847-207.705,154.891-311.573,232.314
		c-3.583,2.673-6.485,6.301-10.182,8.771c-19.861,13.295-42.19,12.105-51.955-2.51c-9.921-14.844-4.767-36.491,12.998-50.225
		c31.824-24.605,62.46-51.24,96.442-72.461c83.75-52.297,154.804-121.264,236.347-176.35
		c53.093-35.861,106.446-71.538,153.404-115.61c9.084-8.521,18.515-16.399,31.567-8.865
		C2052.525,468.054,2060.44,482.138,2064.253,498.638z">
            <animateTransform attributeName="transform"
                    type="translate"
                    from="0 0"
                    to="100 10"
                    begin="0s"
                    dur="1s"
                    repeatCount="indefinite"
            />
    </path>/>
	<path fill-rule="evenodd" clip-rule="evenodd" fill="#FFDDA9" d="M1991.333,1065.531c70.181,0,140.371-0.723,210.537,0.308
		c34.505,0.5,67.549-12.077,102.191-8.873c29.441,2.73,47.662,24.896,41.092,51.212c-2.381,9.531-8.844,19.076-17.954,15.998
		c-36.157-12.196-70.647,4.459-106.208,3.888c-113.449-1.827-226.958,0.398-340.434-0.524
		c-68.657-0.562-136.649,4.398-204.367,15.208c-18.11,2.887-43.631-15.951-46.414-33.203c-1.61-9.958,2.662-17.608,10.877-22.665
		c11.574-7.117,24.294-10.037,37.97-11.826c86.074-11.234,172.549-8.678,258.958-8.913c17.917-0.043,35.834,0,53.752,0
		C1991.333,1065.933,1991.333,1065.734,1991.333,1065.531z">
            <animateTransform attributeName="transform"
                    type="translate"
                    from="0 0"
                    to="100 10"
                    begin="0s"
                    dur="1s"
                    repeatCount="indefinite"
            />
    </path>/>
</g>
</svg>
