<?xml version="1.0" encoding="utf-8"?>
<!-- Generator: Adobe Illustrator 16.0.0, SVG Export Plug-In . SVG Version: 6.00 Build 0)  -->
<!DOCTYPE svg PUBLIC "-//W3C//DTD SVG 1.1//EN" "http://www.w3.org/Graphics/SVG/1.1/DTD/svg11.dtd">
<svg version="1.1" xmlns="http://www.w3.org/2000/svg" xmlns:xlink="http://www.w3.org/1999/xlink" x="0px" y="0px"
	 width="10502.738px" height="800px" viewBox="-582.526 0 10502.738 800" enable-background="new -582.526 0 10502.738 800"
	 xml:space="preserve">
<g id="Layer_6">
</g>
<g id="Layer_1">
	<g>
		<g>
			<polygon fill="#BBD4E6" points="1367.857,800 0,800 0,559.928 126.49,559.559 126.49,235.981 275.604,239.71 266.657,547.627 
				284.551,547.627 284.551,276.988 505.236,288.17 539.533,565.521 566.373,565.521 547.734,257.603 608.125,252.385 
				953.532,225.278 1015.598,218.571 1017.273,12.246 1146.436,30.696 1114.564,533.926 1218.566,520.51 1223.598,294.055 
				1302.438,295.732 1299.084,159.86 1367.857,158.181 1387.987,352.663 1460.118,289.022 1460.118,91.086 1549.027,64.246 
				1520.504,557.41 1561.043,555.498 1699.99,535.605 1735.217,69.278 1829.154,117.923 1820.768,369.54 1987.896,352.663 
				1987.896,800 			"/>
			<polygon fill="#BBD4E6" points="3351.655,800 1983.796,800 1983.796,559.928 2110.288,559.559 2110.288,235.981 2259.4,239.71 
				2250.454,547.627 2268.348,547.627 2268.348,276.988 2489.033,288.17 2523.33,565.521 2550.169,565.521 2531.532,257.603 
				2591.921,252.385 2937.33,225.278 2999.393,218.571 3001.071,12.246 3130.232,30.696 3098.363,533.926 3202.363,520.51 
				3207.395,294.055 3286.235,295.732 3282.88,159.86 3351.655,158.181 3371.786,352.663 3443.914,289.022 3443.914,91.086 
				3532.824,64.246 3504.301,557.41 3544.841,555.498 3683.789,535.605 3719.014,69.278 3812.95,117.923 3804.564,369.54 
				3971.696,352.663 3971.696,800 			"/>
			<polygon fill="#BBD4E6" points="5335.732,800 3967.875,800 3967.875,559.928 4094.364,559.559 4094.364,235.981 4243.479,239.71 
				4234.531,547.627 4252.424,547.627 4252.424,276.988 4473.109,288.17 4507.406,565.521 4534.247,565.521 4515.607,257.603 
				4575.999,252.385 4921.406,225.278 4983.471,218.571 4985.148,12.246 5114.311,30.696 5082.438,533.926 5186.439,520.51 
				5191.473,294.055 5270.312,295.732 5266.958,159.86 5335.732,158.181 5355.861,352.663 5427.991,289.022 5427.991,91.086 
				5516.902,64.246 5488.378,557.41 5528.917,555.498 5667.863,535.605 5703.092,69.278 5797.029,117.923 5788.641,369.54 
				5955.773,352.663 5955.773,800 			"/>
			<polygon fill="#BBD4E6" points="7319.529,800 5951.67,800 5951.67,559.928 6078.16,559.559 6078.16,235.981 6227.275,239.71 
				6218.327,547.627 6236.223,547.627 6236.223,276.988 6456.908,288.17 6491.205,565.521 6518.044,565.521 6499.406,257.603 
				6559.795,252.385 6905.204,225.278 6967.266,218.571 6968.945,12.246 7098.105,30.696 7066.236,533.926 7170.236,520.51 
				7175.268,294.055 7254.109,295.732 7250.755,159.86 7319.529,158.181 7339.658,352.663 7411.789,289.022 7411.789,91.086 
				7500.7,64.246 7472.176,557.41 7512.713,555.498 7651.664,535.605 7686.889,69.278 7780.823,117.923 7772.439,369.54 
				7939.566,352.663 7939.566,800 			"/>
			<polygon fill="#BBD4E6" points="9300.174,800 7932.314,800 7932.314,559.928 8058.805,559.559 8058.805,235.981 8207.916,239.71 
				8198.973,547.627 8216.867,547.627 8216.867,276.988 8437.549,288.17 8471.848,565.521 8498.686,565.521 8480.049,257.603 
				8540.438,252.385 8885.848,225.278 8947.912,218.571 8949.588,12.246 9078.748,30.696 9046.879,533.926 9150.883,520.51 
				9155.912,294.055 9234.756,295.732 9231.398,159.86 9300.174,158.181 9320.303,352.663 9392.436,289.022 9392.436,91.086 
				9481.34,64.246 9452.816,557.41 9493.359,555.498 9632.303,535.605 9667.529,69.278 9761.467,117.923 9753.082,369.54 
				9920.213,352.663 9920.213,800 			"/>
		</g>
		<polygon fill="#BBD4E6" points="-160.394,546.632 -206.394,568.594 -206.526,172.799 -326.526,187.712 -348.526,360.685 
			-436.526,360.685 -441.526,538.467 -582.526,539.894 -582.526,800.191 -160.394,800.191 		"/>
		<polygon fill="#BBD4E6" points="-167.132,555.75 -167.132,442.564 -64.544,442.564 -64.544,560.119 10.106,559.928 10.106,800 
			-167.132,800.191 		"/>
	</g>
</g>
<g id="Layer_2">
</g>
<g id="Layer_3">
</g>
<g id="Layer_4">
</g>
<g id="Layer_5">
</g>
<g id="Layer_7">
</g>
<g id="Layer_8">
</g>
</svg>
