<?xml version="1.0" encoding="utf-8"?>
<!-- Generator: Adobe Illustrator 16.0.0, SVG Export Plug-In . SVG Version: 6.00 Build 0)  -->
<!DOCTYPE svg PUBLIC "-//W3C//DTD SVG 1.1//EN" "http://www.w3.org/Graphics/SVG/1.1/DTD/svg11.dtd">
<svg version="1.1" id="Layer_2" xmlns="http://www.w3.org/2000/svg" xmlns:xlink="http://www.w3.org/1999/xlink" x="0px" y="0px"
	 width="146.191px" height="140.129px" viewBox="0 0 146.191 140.129" enable-background="new 0 0 146.191 140.129"
	 xml:space="preserve">
<g id="CHILE_3_">
	<g>
		<g>
			<g>
				<defs>
					<rect id="SVGID_1_" x="0" width="146.191" height="104.258"/>
				</defs>
				<clipPath id="SVGID_2_">
					<use xlink:href="#SVGID_1_"  overflow="visible"/>
				</clipPath>
				<rect x="0" clip-path="url(#SVGID_2_)" fill="#FFFFFF" width="146.191" height="104.258"/>
			</g>
			<g>
				<defs>
					<rect id="SVGID_3_" x="0" width="146.191" height="104.258"/>
				</defs>
				<clipPath id="SVGID_4_">
					<use xlink:href="#SVGID_3_"  overflow="visible"/>
				</clipPath>
				<rect x="0" clip-path="url(#SVGID_4_)" fill="#2530A9" width="42.64" height="104.258"/>
			</g>
			<g>
				<defs>
					<rect id="SVGID_5_" x="0" width="146.191" height="104.258"/>
				</defs>
				<clipPath id="SVGID_6_">
					<use xlink:href="#SVGID_5_"  overflow="visible"/>
				</clipPath>
				<rect x="0" y="51.128" clip-path="url(#SVGID_6_)" fill="#C22623" width="146.191" height="53.13"/>
			</g>
			<g>
				<defs>
					<rect id="SVGID_7_" x="0" width="146.191" height="104.258"/>
				</defs>
				<clipPath id="SVGID_8_">
					<use xlink:href="#SVGID_7_"  overflow="visible"/>
				</clipPath>
				<g clip-path="url(#SVGID_8_)">
					<polygon fill="#FFFFFF" points="21.343,11.772 16.842,25.549 23.753,27.786 					"/>
					<polygon fill="#FFFFFF" points="21.343,11.772 25.817,25.549 18.906,27.786 					"/>
					<polygon fill="#FFFFFF" points="35.14,21.777 20.635,21.777 20.635,29.021 					"/>
					<polygon fill="#FFFFFF" points="35.14,21.777 23.383,30.292 19.127,24.429 					"/>
					<polygon fill="#FFFFFF" points="7.509,21.777 19.278,30.292 23.532,24.429 					"/>
					<polygon fill="#FFFFFF" points="7.509,21.777 22.049,21.777 22.049,29.021 					"/>
					<polygon fill="#FFFFFF" points="29.864,37.958 25.387,24.198 18.478,26.433 					"/>
					<polygon fill="#FFFFFF" points="29.864,37.958 18.106,29.449 22.397,23.609 					"/>
					<polygon fill="#FFFFFF" points="12.795,37.958 24.553,29.449 20.264,23.609 					"/>
					<polygon fill="#FFFFFF" points="12.795,37.958 17.27,24.198 24.181,26.433 					"/>
				</g>
			</g>
		</g>
	</g>
</g>
<g>
	<path fill="#353535" d="M52.891,130.217v-8.522c-0.925,0-1.999,0.524-1.999,2.674v5.849H36.47c0.125-1.625,0.275-4.249,1.175-6.248
		c1.375-3.125,3.499-4.725,7.973-4.674v2.674c-2.199,0-3.749,0.25-4.898,2.374c-0.475,0.9-0.75,2.225-0.875,3h7.924
		c0.05-3.3,0.05-3.199,0-3.274c0-5.224,4.398-5.499,8.247-5.499v8.773h3.125v2.874H52.891z M40.07,135.266v-3.124h2.824v3.124H40.07
		z M44.094,135.266v-3.124h2.824v3.124H44.094z"/>
	<path fill="#353535" d="M66.769,130.217c-1.55,0-2.799-0.45-3.774-1.225c-0.899,0.824-2.199,1.225-3.699,1.225h-0.899v-2.874h0.899
		c1.3,0,2.025-0.7,2.025-1.8V114.07h3.148v11.548c0,1.05,0.75,1.725,2.3,1.725h0.899v2.874H66.769z"/>
	<path fill="#353535" d="M66.021,135.266v-3.124h2.774v3.124H66.021z M75.294,130.217c-1.55,0-2.8-0.45-3.774-1.225
		c-0.899,0.824-2.199,1.225-3.699,1.225h-0.899v-2.874h0.899c1.3,0,2.025-0.7,2.025-1.8v-6.974h3.148v7.049
		c0,1.05,0.75,1.725,2.3,1.725h0.899v2.874H75.294z M70.045,135.266v-3.124h2.774v3.124H70.045z"/>
	<path fill="#353535" d="M75.42,130.217v-2.874h3.949v-8.798h3.05v8.798h4.049v-8.798h3.174v8.798h3.05v-8.798h3.099l0.025,8.798
		h2.899v2.874H75.42z M84.868,116.37v-3.124h2.499v3.124H84.868z M86.668,112.221v-2.724h2.549v2.724H86.668z M88.592,116.37v-3.124
		h2.524v3.124H88.592z"/>
	<path fill="#353535" d="M98.02,130.217v-2.874c2.149,0,3.149-0.775,3.149-2.25v-6.548h3.124v6.698
		C104.294,128.317,101.894,130.217,98.02,130.217z M98.22,116.37v-3.124h2.499v3.124H98.22z M101.969,116.37v-3.124h2.499v3.124
		H101.969z"/>
</g>
</svg>
