<?xml version="1.0" encoding="utf-8"?>
<!-- Generator: Adobe Illustrator 16.0.0, SVG Export Plug-In . SVG Version: 6.00 Build 0)  -->
<!DOCTYPE svg PUBLIC "-//W3C//DTD SVG 1.1//EN" "http://www.w3.org/Graphics/SVG/1.1/DTD/svg11.dtd">
<svg version="1.1" id="Layer_2" xmlns="http://www.w3.org/2000/svg" xmlns:xlink="http://www.w3.org/1999/xlink" x="0px" y="0px"
	 width="146.191px" height="142.629px" viewBox="0 0 146.191 142.629" enable-background="new 0 0 146.191 142.629"
	 xml:space="preserve">
<g>
	<path fill="#FF3127" d="M0,104.258h146.191V0H0V104.258z M49.516,51.963l-1.832-3.145l-3.271,0.955l2.158-2.869l-1.98-3.398
		l2.653,1.153l0.665,0.267l2.293-2.886L50.2,42.076l0.054-0.071l-0.168,3.891l3.16,1.374l-3.47,0.904L49.516,51.963z M61.381,40.554
		l-2.964-2.121l-2.812,2.341l0.981-3.654l-2.961-2.123l3.567-0.136l0.981-3.657l1.225,3.573l3.568-0.136l-2.812,2.341L61.381,40.554
		z M56.185,16.042l2.487,2.729l3.205-1.675l-1.669,3.359l2.485,2.729l-3.517-0.651l-1.669,3.36l-0.505-3.763l-3.52-0.653
		l3.207-1.674L56.185,16.042z M44.812,6.838l3.287,1.491l2.344-2.87l-0.313,3.788l3.287,1.487l-3.48,0.853l-0.313,3.788
		l-1.836-3.261l-3.48,0.854l2.345-2.87L44.812,6.838z M23.944,10.276l3.311,10.846h10.713L29.3,27.823l3.311,10.845l-8.668-6.703
		l-8.667,6.703l3.312-10.845L9.92,21.122h10.714L23.944,10.276z"/>
	<polygon fill="#FFE500" points="37.967,21.122 27.254,21.122 23.944,10.276 20.633,21.122 9.919,21.122 18.587,27.823 
		15.276,38.668 23.943,31.965 32.611,38.668 29.3,27.823 	"/>
	<polygon fill="#FFE500" points="50.129,9.247 50.443,5.459 48.099,8.329 44.812,6.838 46.649,10.098 44.304,12.967 47.785,12.114 
		49.621,15.375 49.935,11.586 53.415,10.734 	"/>
	<polygon fill="#FFE500" points="60.208,20.456 61.877,17.096 58.672,18.771 56.185,16.042 56.691,19.804 53.484,21.478 
		57.003,22.131 57.509,25.894 59.178,22.534 62.696,23.185 	"/>
	<polygon fill="#FFE500" points="62.968,34.642 59.399,34.778 58.174,31.205 57.193,34.862 53.625,34.998 56.586,37.121 
		55.605,40.774 58.417,38.433 61.381,40.554 60.156,36.983 	"/>
	<polygon fill="#FFDE00" points="50.085,45.895 50.253,42.004 50.199,42.075 50.202,42.04 47.908,44.926 47.244,44.659 
		44.591,43.506 46.572,46.904 44.413,49.773 47.684,48.818 49.516,51.963 49.777,48.173 53.246,47.27 	"/>
</g>
<g>
	<path fill="#353535" d="M60.793,129.467c-1.1,0-2.05-0.275-2.824-0.75v0.101c0,3.023-2.125,5.073-5.049,5.123
		c-0.3,0-0.45,0.025-0.675,0c-2.899-0.05-5.023-2.124-5.023-5.148v-10.997h3.124v10.922c0,1.5,0.699,2.3,2.274,2.3
		c1.574,0,2.199-0.8,2.199-2.3v-10.922h3.149v6.698v-0.05c0,1.374,1.175,2.149,2.824,2.149h0.375v2.874H60.793z M50.97,115.62
		v-3.124h3.149v3.124H50.97z"/>
	<path fill="#353535" d="M59.522,134.516v-3.124h2.774v3.124H59.522z M68.795,129.467c-1.55,0-2.799-0.45-3.774-1.225
		c-0.899,0.824-2.199,1.225-3.699,1.225h-0.899v-2.874h0.899c1.3,0,2.025-0.7,2.025-1.8v-6.974h3.148v7.049
		c0,1.05,0.75,1.725,2.3,1.725h0.899v2.874H68.795z M63.546,134.516v-3.124h2.774v3.124H63.546z"/>
	<path fill="#353535" d="M68.896,129.467v-2.874h3.949v-8.798h3.049v4.599c1.2-2.124,3.175-4.324,6.224-4.324
		c3.624,0,5.049,3.05,5.049,5.274c-0.025,0.824-0.2,2.074-0.774,3.249h2.574v2.874H68.896z M82.043,120.844
		c-2.974,0-4.499,3.499-5.273,5.749h4.724c1.825,0,2.524-1.425,2.524-3.3C84.017,122.044,83.368,120.844,82.043,120.844z"/>
	<path fill="#353535" d="M88.496,129.467v-2.874c2.149,0,3.149-0.8,3.149-2.274V113.32h3.124v11.173
		C94.769,127.567,92.37,129.467,88.496,129.467z"/>
	<path fill="#353535" d="M97.196,129.467v-16.196h3.124v16.196H97.196z"/>
</g>
</svg>
