<?xml version="1.0" encoding="utf-8"?>
<!-- Generator: Adobe Illustrator 16.0.0, SVG Export Plug-In . SVG Version: 6.00 Build 0)  -->
<!DOCTYPE svg PUBLIC "-//W3C//DTD SVG 1.1//EN" "http://www.w3.org/Graphics/SVG/1.1/DTD/svg11.dtd">
<svg version="1.1" id="Layer_2" xmlns="http://www.w3.org/2000/svg" xmlns:xlink="http://www.w3.org/1999/xlink" x="0px" y="0px"
	 width="146.191px" height="140.129px" viewBox="0 0 146.191 140.129" enable-background="new 0 0 146.191 140.129"
	 xml:space="preserve">
<g>
	<g>
		<rect x="0" y="8" fill="#FFFFFF" width="146.19" height="85.279"/>
		<rect x="0" fill="#F69333" width="146.19" height="33.313"/>
		<rect x="0" y="72.312" fill="#008060" width="146.19" height="31.967"/>
		<g>
			<path fill="#16007E" d="M72.1,37.753c-7.89,0-14.297,6.387-14.297,14.276c0,7.891,6.407,14.298,14.297,14.298
				c7.891,0,14.297-6.407,14.297-14.298C86.387,44.14,79.991,37.753,72.1,37.753 M72.092,39.142l-0.361,7.185l0.39,4.087l0.36-4.087
				l-0.36-7.185c0.38,0,0.742,0.019,1.103,0.056c0,0.019-0.019,0.019-0.019,0.038c0,0.342,0.266,0.628,0.59,0.628
				c0.304,0,0.551-0.249,0.579-0.533c0.36,0.074,0.704,0.133,1.056,0.247l-2.206,6.844l-0.703,4.051l1.426-3.88l1.521-7.015
				c0.342,0.115,0.684,0.208,1.026,0.342c-0.02,0.058-0.047,0.134-0.047,0.208c0,0.325,0.266,0.59,0.599,0.59
				c0.229,0,0.456-0.152,0.541-0.361c0.325,0.152,0.637,0.323,0.961,0.513l-3.907,6.008l-1.729,3.767l2.385-3.367l3.28-6.387
				c0.295,0.17,0.599,0.361,0.903,0.551c-0.085,0.115-0.134,0.228-0.134,0.381c0,0.323,0.268,0.589,0.601,0.589
				c0.188,0,0.359-0.077,0.464-0.248c0.286,0.248,0.551,0.496,0.799,0.742l-5.323,4.81l-2.633,3.174l3.165-2.621l4.819-5.344
				c0.247,0.266,0.495,0.513,0.722,0.8c-0.143,0.113-0.208,0.284-0.208,0.455c0,0.323,0.265,0.59,0.579,0.59
				c0.143,0,0.248-0.04,0.351-0.115c0.219,0.304,0.41,0.608,0.58,0.912l-6.387,3.271l-3.366,2.394l3.736-1.711l6.037-3.936
				c0.197,0.344,0.36,0.704,0.521,1.008c-0.199,0.096-0.361,0.323-0.361,0.571c0,0.321,0.268,0.589,0.581,0.589
				c0.095,0,0.161-0.02,0.228-0.057c0.115,0.342,0.219,0.664,0.305,1.007l-7.024,1.483l-3.852,1.424l4.05-0.685l6.846-2.187
				c0.085,0.305,0.171,0.686,0.236,1.027c-0.295,0.037-0.513,0.267-0.513,0.588c0,0.326,0.276,0.59,0.599,0.59
				c0.02,0,0.038,0,0.058,0c0.037,0.343,0.037,0.724,0.037,1.064l-7.166-0.342l-4.107,0.361l4.107,0.398l7.166-0.38
				c0,0.38,0,0.741-0.037,1.084c-0.02,0-0.038,0-0.058,0c-0.322,0-0.599,0.283-0.599,0.589c0,0.305,0.218,0.532,0.502,0.588
				c-0.066,0.362-0.141,0.705-0.227,1.047l-2.444-0.778l-4.4-1.427l-4.05-0.685h0.02h-0.02l3.852,1.427l7.024,1.502
				c-0.086,0.342-0.189,0.703-0.323,1.006c-0.019,0-0.057-0.019-0.075-0.019l0,0c-0.059,0-0.097,0-0.134,0
				c-0.333,0-0.6,0.248-0.6,0.589c0,0.096,0.019,0.152,0.057,0.229l0,0c0.029,0.094,0.086,0.17,0.163,0.227l0,0
				c0.02,0,0.028,0.019,0.047,0.019l0,0c0.021,0.021,0.039,0.039,0.059,0.039l0,0c0.009,0,0.027,0.021,0.037,0.039
				c-0.152,0.321-0.323,0.646-0.502,0.951l-6.027-3.897h-0.01l-3.736-1.712h0.021l1.957,1.369l1.389,0.988l0,0l6.387,3.271
				c-0.188,0.323-0.38,0.646-0.589,0.932c-0.094-0.057-0.218-0.095-0.342-0.095c-0.333,0-0.59,0.247-0.59,0.568
				c0,0.191,0.077,0.361,0.218,0.457c-0.237,0.267-0.476,0.531-0.722,0.779l-4.819-5.322l-3.154-2.623l2.622,3.174l5.323,4.811
				c-0.248,0.266-0.494,0.475-0.77,0.703c-0.114-0.098-0.236-0.133-0.371-0.133c-0.323,0-0.589,0.283-0.589,0.589
				c0,0.114,0.019,0.19,0.048,0.267c-0.313,0.19-0.638,0.398-0.951,0.608l-3.28-6.388l-2.385-3.385l0,0l1.72,3.746l3.907,6.045
				c-0.314,0.172-0.626,0.342-0.951,0.493c-0.085-0.229-0.293-0.36-0.532-0.36c-0.332,0-0.599,0.285-0.599,0.59
				c0,0.076,0.02,0.152,0.039,0.228c-0.342,0.114-0.675,0.228-1.026,0.306l-1.521-7.035l-1.426-3.82v-0.02l0.703,4.049l2.206,6.846
				c-0.352,0.095-0.703,0.189-1.056,0.227c-0.047-0.265-0.294-0.492-0.579-0.492c-0.342,0-0.59,0.267-0.59,0.568
				c0,0.04,0,0.059,0,0.075c-0.361,0.039-0.723,0.06-1.083,0.06l0.36-7.168l-0.38-4.105l-0.37,4.105l0.361,7.168
				c-0.38,0-0.731-0.021-1.103-0.06c0-0.017,0-0.035,0-0.075c0-0.303-0.268-0.568-0.601-0.568c-0.285,0-0.531,0.229-0.58,0.492
				c-0.351-0.056-0.693-0.132-1.025-0.227l2.206-6.846l0.684-4.029l-1.425,3.82l-1.502,7.035c-0.342-0.078-0.686-0.19-1.037-0.306
				c0.028-0.075,0.047-0.151,0.047-0.228c0-0.305-0.266-0.59-0.58-0.59c-0.248,0-0.457,0.151-0.56,0.36
				c-0.314-0.151-0.638-0.321-0.951-0.493l3.907-6.045l1.711-3.746l-2.376,3.364l-3.271,6.407c-0.312-0.21-0.626-0.398-0.921-0.609
				c0.066-0.074,0.113-0.188,0.113-0.322c0-0.342-0.266-0.608-0.579-0.608c-0.199,0-0.361,0.096-0.456,0.229
				c-0.286-0.248-0.551-0.457-0.799-0.724l5.342-4.812l2.623-3.174l0,0l-3.166,2.623l-4.819,5.323
				c-0.266-0.248-0.505-0.532-0.742-0.78c0.134-0.113,0.229-0.285,0.229-0.475c0-0.322-0.267-0.57-0.59-0.57
				c-0.133,0-0.256,0.038-0.352,0.096c-0.209-0.285-0.398-0.59-0.58-0.912l6.406-3.289l3.336-2.34l-3.734,1.713l-6.027,3.896
				c-0.179-0.306-0.322-0.609-0.485-0.951c0.229-0.076,0.382-0.285,0.382-0.531c0-0.342-0.258-0.608-0.6-0.608
				c-0.085,0-0.171,0.019-0.247,0.058c-0.114-0.322-0.229-0.684-0.333-1.045l7.033-1.502l3.87-1.427l-4.069,0.685l-6.845,2.205
				c-0.094-0.342-0.161-0.685-0.237-1.063c0.295-0.038,0.514-0.267,0.514-0.569c0-0.324-0.266-0.59-0.589-0.59
				c-0.019,0-0.048,0-0.066,0c-0.019-0.343-0.048-0.704-0.048-1.084l7.176,0.38l4.097-0.399l-4.097-0.36l-7.176,0.342
				c0-0.342,0.029-0.723,0.048-1.063c0.038,0,0.066,0,0.104,0c0.325,0,0.591-0.247,0.591-0.59c0-0.322-0.237-0.551-0.552-0.59
				c0.077-0.342,0.144-0.723,0.237-1.025l6.845,2.186l4.069,0.686l-3.87-1.426l-7.033-1.502c0.104-0.361,0.219-0.703,0.333-1.025
				c0.057,0.019,0.152,0.037,0.218,0.037c0.332,0,0.591-0.268,0.591-0.59c0-0.248-0.153-0.455-0.354-0.531
				c0.152-0.342,0.314-0.665,0.494-0.989l6.027,3.937l3.754,1.711l-3.355-2.395l-6.405-3.271c0.181-0.304,0.38-0.608,0.589-0.931
				c0.086,0.094,0.229,0.133,0.353,0.133c0.312,0,0.588-0.268,0.588-0.59c0-0.171-0.094-0.342-0.217-0.475
				c0.217-0.268,0.457-0.514,0.713-0.78l4.819,5.344l3.174,2.621l-2.623-3.174l-5.342-4.81c0.267-0.247,0.522-0.494,0.799-0.723
				c0.094,0.132,0.266,0.229,0.456,0.229c0.333,0,0.598-0.267,0.598-0.609c0-0.133-0.056-0.247-0.124-0.361
				c0.306-0.171,0.601-0.381,0.913-0.551l3.271,6.387l2.376,3.348l-1.711-3.746l-3.907-6.008c0.313-0.19,0.626-0.361,0.94-0.513
				c0.097,0.229,0.306,0.38,0.552,0.38c0.333,0,0.59-0.267,0.59-0.57c0-0.094-0.021-0.19-0.039-0.248
				c0.333-0.133,0.694-0.227,1.037-0.342l1.521,7.015l1.426,3.88l-0.694-4.051l-2.206-6.844c0.342-0.113,0.684-0.172,1.045-0.247
				c0.039,0.284,0.286,0.513,0.581,0.513c0.332,0,0.599-0.267,0.599-0.609c0-0.02,0-0.038,0-0.057
				C71.37,39.142,71.73,39.142,72.092,39.142"/>
			<path fill="#FFFFFF" d="M72.12,49.9c1.178,0,2.129,0.97,2.129,2.129c0,1.181-0.951,2.147-2.129,2.147
				c-1.199,0-2.148-0.968-2.148-2.147C69.971,50.87,70.921,49.9,72.12,49.9"/>
			<path fill="#16007E" d="M72.12,50.396c0.901,0,1.644,0.723,1.644,1.635c0,0.932-0.742,1.673-1.644,1.673
				c-0.922,0-1.673-0.741-1.673-1.673C70.447,51.118,71.198,50.396,72.12,50.396"/>
		</g>
	</g>
</g>
<g>
	<path fill="#353535" d="M50.622,130.217v-2.874h5.299v-3.374c0-2.25-0.551-2.825-2.075-2.825l0.55-2.773
		c3.199,0,4.6,1.549,4.6,4.573v4.399h3.199v2.874C50.471,130.217,61.444,130.217,50.622,130.217z"/>
	<path fill="#353535" d="M69.82,130.217c-1.55,0-2.799-0.45-3.774-1.225c-0.899,0.824-2.199,1.225-3.699,1.225h-0.899v-2.874h0.899
		c1.3,0,2.025-0.7,2.025-1.8v-6.998h3.148v7.073c0,1.05,0.75,1.725,2.3,1.725h0.899v2.874H69.82z M64.321,116.37v-3.124h3.175v3.124
		H64.321z"/>
	<path fill="#353535" d="M68.721,130.217v-2.874h3v-4.174c0-2.875,2.1-4.975,5.123-5.524v-1.924h2.85v1.924
		c3.024,0.5,5.148,2.649,5.148,5.524v4.174h1.525v2.874C70.247,130.217,68.721,130.217,68.721,130.217z M76.844,120.52
		c-0.749,0.324-2.124,0.999-2.124,2.649v4.174h2.124V120.52z M81.869,123.169c0-1.65-1.425-2.325-2.175-2.675v6.849h2.175V123.169z"
		/>
	<path fill="#353535" d="M85.496,130.217v-2.874c2.149,0,3.149-0.8,3.149-2.274V114.07h3.124v11.173
		C91.769,128.317,89.37,130.217,85.496,130.217z"/>
	<path fill="#353535" d="M94.196,130.217v-16.196h3.124v16.196H94.196z"/>
</g>
</svg>
