<?xml version="1.0" encoding="utf-8"?>
<!-- Generator: Adobe Illustrator 16.0.0, SVG Export Plug-In . SVG Version: 6.00 Build 0)  -->
<!DOCTYPE svg PUBLIC "-//W3C//DTD SVG 1.1//EN" "http://www.w3.org/Graphics/SVG/1.1/DTD/svg11.dtd">
<svg version="1.1" id="Layer_2" xmlns="http://www.w3.org/2000/svg" xmlns:xlink="http://www.w3.org/1999/xlink" x="0px" y="0px"
	 width="146.191px" height="139.379px" viewBox="0 0 146.191 139.379" enable-background="new 0 0 146.191 139.379"
	 xml:space="preserve">
<g id="MONACO_3_">
	<g>
		<g>
			<g>
				<defs>
					<rect id="SVGID_1_" x="0" width="146.19" height="104.258"/>
				</defs>
				<clipPath id="SVGID_2_">
					<use xlink:href="#SVGID_1_"  overflow="visible"/>
				</clipPath>
				<rect x="0" clip-path="url(#SVGID_2_)" fill="#CE2028" width="146.19" height="52.137"/>
			</g>
			<g>
				<defs>
					<rect id="SVGID_3_" x="0" width="146.19" height="104.258"/>
				</defs>
				<clipPath id="SVGID_4_">
					<use xlink:href="#SVGID_3_"  overflow="visible"/>
				</clipPath>
				<rect x="0" y="52.137" clip-path="url(#SVGID_4_)" fill="#FFFFFF" width="146.19" height="52.121"/>
			</g>
		</g>
	</g>
</g>
<g>
	<path fill="#353535" d="M28.996,122.343v-11.072h3.125v10.997c0,1.525,0.7,2.325,2.849,2.325v2.874
		C31.046,127.467,28.996,125.518,28.996,122.343z"/>
	<path fill="#353535" d="M33.072,132.516v-3.124h2.774v3.124H33.072z M42.345,127.467c-1.55,0-2.799-0.45-3.774-1.225
		c-0.9,0.824-2.2,1.225-3.699,1.225h-0.9v-2.874h0.9c1.3,0,2.024-0.7,2.024-1.8v-6.974h3.149v7.049c0,1.05,0.75,1.725,2.299,1.725
		h0.9v2.874H42.345z M37.096,132.516v-3.124h2.774v3.124H37.096z"/>
	<path fill="#353535" d="M42.472,127.467v-2.874h3.949v-8.798h3.049v8.798h4.049v-8.798h3.174v8.798h3.05v-8.798h3.099l0.025,8.798
		h2.899v2.874H42.472z"/>
	<path fill="#353535" d="M64.173,132.516v-3.124h2.774v3.124H64.173z M73.445,127.467c-1.55,0-2.799-0.45-3.774-1.225
		c-0.899,0.824-2.199,1.225-3.699,1.225h-0.899v-2.874h0.899c1.3,0,2.025-0.7,2.025-1.8v-6.974h3.148v7.049
		c0,1.05,0.75,1.725,2.3,1.725h0.899v2.874H73.445z M68.196,132.516v-3.124h2.774v3.124H68.196z"/>
	<path fill="#353535" d="M73.596,127.467v-2.874c2.149,0,3.149-0.775,3.149-2.25v-6.548h3.124v6.698
		C79.87,125.567,77.47,127.467,73.596,127.467z M76.72,113.62v-3.124h3.125v3.124H76.72z"/>
	<path fill="#353535" d="M86.945,131.891l0.025-2.6c1.199,0,3.199-0.425,3.124-2.749c-0.375,0.625-1.225,1.625-2.999,1.625
		c-3.25,0-4.799-2.075-4.799-6.124c0-3.924,1.824-6.224,5.073-6.224h5.124v10.848C92.494,130.142,90.269,132.016,86.945,131.891z
		 M89.37,118.594h-1.774c-1.825,0-2.175,2.1-2.175,3.399c0,1.35,0.024,3.424,1.999,3.424c2.024,0,1.95-1.899,1.95-3.299V118.594z"/>
	<path fill="#353535" d="M94.921,127.467v-2.874h5.299v-3.374c0-2.25-0.551-2.825-2.075-2.825l0.55-2.773
		c3.199,0,4.6,1.549,4.6,4.573v4.399h3.199v2.874C94.77,127.467,105.743,127.467,94.921,127.467z"/>
	<path fill="#353535" d="M105.746,127.467v-2.874c2.149,0,3.149-0.775,3.149-2.25v-6.548h3.124v6.698
		C112.019,125.567,109.62,127.467,105.746,127.467z M108.87,113.62v-3.124h3.125v3.124H108.87z"/>
	<path fill="#353535" d="M114.446,127.467v-16.196h3.124v16.196H114.446z"/>
</g>
</svg>
