<?xml version="1.0" encoding="utf-8"?>
<!-- Generator: Adobe Illustrator 16.0.0, SVG Export Plug-In . SVG Version: 6.00 Build 0)  -->
<!DOCTYPE svg PUBLIC "-//W3C//DTD SVG 1.1//EN" "http://www.w3.org/Graphics/SVG/1.1/DTD/svg11.dtd">
<svg version="1.1" id="Layer_1" xmlns="http://www.w3.org/2000/svg" xmlns:xlink="http://www.w3.org/1999/xlink" x="0px" y="0px"
	 width="446.577px" height="624.584px" viewBox="0 0 446.577 624.584" enable-background="new 0 0 446.577 624.584"
	 xml:space="preserve">
<rect opacity="0.5" fill="#FFFFFF" width="446.577" height="624.584"/>
<g>
	<path fill="#353535" d="M66.184,114.375c-0.928,0-1.395,0.081-2.092,0c-8.99-0.151-15.578-6.585-15.578-15.967V84.302h9.687v13.873
		c0,4.653,2.172,7.13,7.055,7.13c4.882,0,6.82-2.477,6.82-7.13V50.431h9.767v48.058C81.843,107.865,75.255,114.223,66.184,114.375z"
		/>
	<path fill="#353535" d="M85.099,114.375v-8.68c7.905,0,7.595-6.435,7.595-11.703c0-0.233,0-29.608,0-29.608h9.536
		c0,0,0.156,0.848,0,33.559C102.229,106.391,96.804,114.764,85.099,114.375z M92.461,57.561v-9.689h9.692v9.689H92.461z"/>
	<path fill="#353535" d="M127.572,100.501h-17.824V91.59h6.51V50.431h9.922V91.59h1.241c1.857,0,4.184-1.554,5.112-3.643
		c1.009-2.559,0.853-5.35,0.853-7.908V50.275h9.689c0,0,0,1.862,0,34.027C143.075,94.3,136.408,100.501,127.572,100.501z"/>
	<path fill="#353535" d="M173.152,100.501c-1.317,0-7.282-0.308-9.689-2.326c0,8.296-5.5,16.588-17.127,16.199v-8.68
		c7.908,0,7.595-6.435,7.595-11.703c0-0.233,0-29.689,0-29.689h9.533c0,0,0,13.257,0.157,20.308c0,4.885,4.34,6.979,9.533,6.979
		h0.389v8.912H173.152z M153.698,60.12v-9.689h9.689v9.689H153.698z"/>
	<path fill="#353535" d="M171.139,100.501V91.59c6.667,0,9.764-2.483,9.764-7.055V50.431h9.69v34.645
		C190.593,94.613,183.149,100.501,171.139,100.501z"/>
	<path fill="#353535" d="M198.112,100.501V50.275h9.688v50.227H198.112z"/>
	<path fill="#353535" d="M279.496,88.486V74.068c-2.865,0-6.202,1.63-6.202,8.297v18.136h-44.722
		c0.39-5.036,0.854-13.176,3.644-19.378c4.26-9.689,10.851-14.65,24.723-14.494v8.291c-6.817,0-11.628,0.777-15.19,7.369
		c-1.473,2.786-2.325,6.898-2.715,9.3h24.572c0.156-10.234,0.156-9.921,0-10.154c0-16.204,13.64-17.052,25.58-17.052v19.141
		L279.496,88.486z"/>
	<path fill="#353535" d="M328.255,100.501c-1.16,8.604-7.907,14.105-15.81,14.574l-1.706,0.152v-8.988
		c3.952-0.081,7.056-2.559,7.363-5.738h-5.814c-6.821,0-15.579-3.951-15.579-17.052c0-12.323,5.658-19.146,15.579-19.146h16.044
		V91.59h9.225v8.912H328.255z M318.642,72.983h-6.196c-5.273,0-6.046,6.515-6.046,10.466c0,4.34,2.014,8.14,6.046,8.14h6.196V72.983
		z"/>
	<path fill="#353535" d="M358.722,100.501H334.69V91.59h10.234c-1.862-1.938-2.636-5.662-2.636-9.3
		c0-11.627,6.047-18.758,16.433-18.758c10.31,0,16.355,7.05,16.355,18.99C375.077,94.457,369.106,100.501,358.722,100.501z
		 M347.79,57.561v-9.689h8.76v9.689H347.79z M358.722,71.822c-3.951,0-6.51,2.246-6.51,10.467c0,7.67,2.32,9.3,6.51,9.3
		c4.106,0,6.509-1.706,6.509-9.225C365.23,74.068,362.754,71.822,358.722,71.822z M360.427,57.561v-9.689h8.604v9.689H360.427z"/>
	<path fill="#353535" d="M376.853,46.013v-3.798h3.411v-0.777c0-1.86,0.621-7.131,6.355-7.131c3.021,0,4.885,1.318,5.97,3.876
		c-0.621,0.078-4.108,0.699-4.108,0.699c-0.54-0.699-1.086-0.931-1.706-0.931c-2.246,0-2.246,2.326-2.246,3.411v0.853h8.912v3.798
		H376.853z M382.591,100.501V50.275h9.689v50.227H382.591z"/>
	<path fill="#353535" d="M74.675,193.516c-1.317,0-6.434-0.303-8.837-2.321c0,8.296-5.503,16.583-17.13,16.199v-8.68
		c7.905,0,7.595-6.439,7.595-11.708c0-0.232,0-29.686,0-29.686h9.535c0,0,0,13.256,0.154,20.309c0,4.885,3.49,6.974,8.683,6.974
		h1.239v8.912H74.675z"/>
	<path fill="#353535" d="M99.478,193.516c-4.806,0-8.68-1.393-11.705-3.795c-2.789,2.553-6.821,3.795-11.471,3.795h-2.791v-8.912
		h2.791c4.03,0,6.278-2.17,6.278-5.581v-21.702h9.767v21.934c0,3.26,2.324,5.349,7.13,5.349h2.792v8.912H99.478z M83.123,209.18
		v-9.689h9.767v9.689H83.123z"/>
	<path fill="#353535" d="M99.942,193.516v-8.912h7.207c-1.55-2.553-2.402-5.5-2.402-9.918c0-4.81,2.559-18.138,15.735-18.138
		c6.586,0,11.314,3.487,13.564,9.069c-2.326,0.54-9.613,2.014-9.613,2.014c-0.621-1.474-2.246-2.483-3.719-2.483
		c-5.192,0-6.202,6.515-6.202,9.306c0,5.892,3.104,10.151,7.362,10.151h12.712l2.872,8.912H99.942z"/>
	<path fill="#353535" d="M173.889,193.516c-6.742,0-15.654-4.653-15.654-17.827c0-12.324,5.732-18.289,15.654-18.289h15.967v27.203
		h11.395v8.912C191.794,193.516,182.186,193.516,173.889,193.516z M166.99,150.578v-9.689h8.604v9.689H166.99z M180.167,165.925
		h-5.733c-5.349,0-6.51,5.889-6.51,9.765c0,4.423,2.478,8.915,6.51,8.915h5.733V165.925z M179.471,150.578v-9.689h8.679v9.689
		H179.471z"/>
	<path fill="#353535" d="M198.152,150.578v-9.689h7.908v9.689H198.152z M224.894,193.516c-4.805,0-8.68-1.393-11.703-3.795
		c-2.791,2.553-6.823,3.795-11.471,3.795h-2.791v-8.912h2.791c4.027,0,6.278-2.17,6.278-5.581v-21.702h9.765v21.934
		c0,3.26,2.326,5.349,7.131,5.349h2.791v8.912H224.894z M209.779,150.578v-9.689h7.908v9.689H209.779z"/>
	<path fill="#353535" d="M222.567,209.18v-9.689h8.604v9.689H222.567z M251.322,193.516c-4.805,0-8.681-1.393-11.703-3.795
		c-2.79,2.553-6.822,3.795-11.47,3.795h-2.79v-8.912h2.79c4.025,0,6.278-2.17,6.278-5.581v-21.622h9.765v21.854
		c0,3.26,2.325,5.349,7.13,5.349h2.79v8.912H251.322z M235.048,209.18v-9.689h8.599v9.689H235.048z"/>
	<path fill="#353535" d="M291.709,191.427c-2.64,5.501-7.52,8.68-14.342,8.68c-6.586-0.08-11.627-3.098-14.262-8.296
		c-2.402,1.161-5.35,1.706-8.523,1.706h-2.79v-8.912c3.794-0.232,8.367-0.151,8.755-4.804c0.621-11.241,6.435-18.448,16.82-18.448
		c10.773,0,16.511,8.292,16.511,18.448c0,3.25,2.327,4.804,7.132,4.804h2.79v8.912C299.769,193.516,295.353,193.285,291.709,191.427
		z M277.367,169.568c-3.952,0-6.586,2.715-6.586,10.929c0,7.983,2.634,10.698,6.586,10.698c3.956,0,6.591-2.796,6.591-10.466
		C283.958,172.283,281.323,169.568,277.367,169.568z"/>
	<path fill="#353535" d="M341.396,191.427c-2.64,5.501-7.52,8.68-14.342,8.68c-6.585-0.08-11.627-3.098-14.262-8.296
		c-2.402,1.161-5.35,1.706-8.522,1.706h-2.792v-8.912c3.795-0.232,8.366-0.151,8.757-4.804c0.62-11.241,6.435-18.448,16.819-18.448
		c10.773,0,16.512,8.292,16.512,18.448c0,3.25,2.327,4.804,7.131,4.804h2.79v8.912C349.456,193.516,345.04,193.285,341.396,191.427z
		 M327.055,169.568c-3.951,0-6.585,2.715-6.585,10.929c0,7.983,2.634,10.698,6.585,10.698c3.955,0,6.59-2.796,6.59-10.466
		C333.645,172.283,331.01,169.568,327.055,169.568z"/>
	<path fill="#353535" d="M351.161,193.516v-8.912c6.666,0,9.765-2.483,9.765-7.055v-34.102h9.69v34.647
		C370.616,187.632,363.172,193.516,351.161,193.516z"/>
	<path fill="#353535" d="M378.135,193.516v-50.225h9.688v50.225H378.135z"/>
	<path fill="#353535" d="M151.22,286.533c-5.425-0.07-7.595,3.876-7.595,7.439v6.288h-9.458v-6.288
		c0-6.51,3.719-16.351,17.053-16.351c4.804,0,2.478,0,12.167,0c-0.853-19.843-19.762-18.369-19.762-18.369v-8.761
		c20.383,0,28.987,12.171,29.532,27.13h9.921v8.912C172.769,286.533,161.53,286.613,151.22,286.533z M150.054,246.151v-9.921h9.689
		v9.921H150.054z"/>
	<path fill="#353535" d="M177.416,302.197v-9.689h8.68v9.689H177.416z M181.913,286.533h-0.777v-8.912h0.777
		c6.509-0.152,8.604-2.483,8.604-6.975v-20.307h9.689v20.771C200.206,280.568,193.772,286.462,181.913,286.533z M189.896,302.197
		v-9.689h8.604v9.689H189.896z"/>
	<path fill="#353535" d="M203.461,300.411v-8.68c7.908,0,7.595-6.439,7.595-11.708c0-0.232,0-29.603,0-29.603h9.532
		c0,0,0.157,0.849,0,33.56C220.588,292.427,215.164,300.794,203.461,300.411z"/>
	<path fill="#353535" d="M228.113,270.646V236.31h9.689v34.104c0,4.724,2.17,7.207,8.836,7.207v8.912
		C234.466,286.533,228.113,280.487,228.113,270.646z"/>
	<path fill="#353535" d="M242.762,243.597v-9.689h7.909v9.689H242.762z M269.504,286.533c-4.805,0-8.68-1.392-11.703-3.795
		c-2.79,2.554-6.822,3.795-11.47,3.795h-2.791v-8.912h2.791c4.027,0,6.277-2.17,6.277-5.582v-21.7h9.765v21.932
		c0,3.26,2.326,5.35,7.131,5.35h2.791v8.912H269.504z M254.391,243.597v-9.689h7.907v9.689H254.391z"/>
	<path fill="#353535" d="M269.969,286.533v-8.912c6.666,0,9.766-2.483,9.766-7.055v-34.105h9.688v34.65
		C289.423,280.648,281.979,286.533,269.969,286.533z"/>
	<path fill="#353535" d="M296.941,286.533V236.31h9.69v50.223H296.941z"/>
</g>
<g>
	<path fill="#353535" d="M29.157,392.788v-13.572h3.83v13.48c0,1.868,0.857,2.849,3.493,2.849v3.523
		C31.669,399.068,29.157,396.679,29.157,392.788z"/>
	<path fill="#353535" d="M34.152,405.257v-3.829h3.4v3.829H34.152z M45.518,399.068c-1.899,0-3.431-0.552-4.626-1.501
		c-1.103,1.012-2.696,1.501-4.534,1.501h-1.103v-3.523h1.103c1.593,0,2.482-0.857,2.482-2.205v-8.548h3.86v8.64
		c0,1.286,0.919,2.113,2.818,2.113h1.103v3.523H45.518z M39.084,405.257v-3.829h3.401v3.829H39.084z"/>
	<path fill="#353535" d="M45.702,399.068v-3.523c2.635,0,3.861-0.98,3.861-2.788v-13.479h3.829v13.694
		C53.392,396.739,50.451,399.068,45.702,399.068z"/>
	<path fill="#353535" d="M56.365,392.788v-13.572h3.83v13.48c0,1.868,0.857,2.849,3.493,2.849v3.523
		C58.877,399.068,56.365,396.679,56.365,392.788z"/>
	<path fill="#353535" d="M62.461,399.068v-3.523h2.298v-14.338h3.891l-0.337,8.181c1.5-2.206,3.737-4.228,6.985-4.228
		c4.442,0,6.188,3.707,6.158,6.463c0,1.012-0.214,2.513-0.918,3.922h3.4v3.523C76.983,399.068,69.417,399.068,62.461,399.068z
		 M75.206,388.53c-3.646,0-5.514,4.318-6.464,7.015c2.022,0,3.921,0,5.974,0c2.022,0,2.91-1.775,2.91-4.013
		C77.626,390,76.83,388.53,75.206,388.53z"/>
	<path fill="#353535" d="M81.704,405.257v-3.829h3.432v3.829H81.704z M83.48,399.068h-0.306v-3.523h0.306
		c2.573-0.061,3.401-0.98,3.401-2.757v-8.026h3.83v8.21C90.711,396.71,88.168,399.037,83.48,399.068z M86.636,405.257v-3.829h3.4
		v3.829H86.636z"/>
	<path fill="#353535" d="M93.683,399.068v-19.853h3.83v19.853H93.683z"/>
	<path fill="#353535" d="M105.724,399.068l1.133-3.523h1.716v-14.338h3.891l-0.337,8.181c1.501-2.206,3.738-4.228,6.985-4.228
		c4.443,0,6.158,3.707,6.158,6.463c0,1.012-0.214,2.513-0.918,3.922h3.4v3.523C120.521,399.068,112.954,399.068,105.724,399.068z
		 M118.989,388.53c-3.615,0-5.483,4.318-6.433,7.015h5.76c2.236,0,3.125-1.685,3.125-4.013
		C121.441,390,120.644,388.53,118.989,388.53z"/>
	<path fill="#353535" d="M146.442,399.068h-19.668v-3.523h4.84v-10.783h3.737v10.783h4.963v-10.783h3.89v10.783h2.145
		c1.103,0,1.593-0.092,1.593-2.879v-7.904h3.799v9.037C151.742,397.23,149.751,399.068,146.442,399.068z"/>
	<path fill="#353535" d="M160.384,404.491l0.031-3.187c1.471,0,3.921-0.521,3.83-3.37c-0.46,0.766-1.501,1.992-3.677,1.992
		c-3.983,0-5.882-2.544-5.882-7.506c0-4.811,2.236-7.629,6.219-7.629h6.28v13.296C167.186,402.347,164.459,404.645,160.384,404.491z
		 M163.356,388.192h-2.175c-2.236,0-2.665,2.574-2.665,4.167c0,1.653,0.03,4.197,2.451,4.197c2.481,0,2.39-2.329,2.39-4.045V388.192
		z"/>
	<path fill="#353535" d="M184.007,399.068c-0.521,0-2.543-0.122-3.493-0.92c0,3.279-2.175,6.557-6.771,6.404v-3.432
		c3.125,0,3.002-2.542,3.002-4.626c0-0.093,0-11.733,0-11.733h3.769c0,0,0,5.238,0.061,8.026c0,1.93,1.378,2.757,3.432,2.757h0.49
		v3.523H184.007z"/>
	<path fill="#353535" d="M183.241,382.097v-3.83h3.125v3.83H183.241z M193.811,399.068c-1.899,0-3.431-0.552-4.626-1.501
		c-1.104,1.012-2.696,1.501-4.534,1.501h-1.103v-3.523h1.103c1.593,0,2.481-0.857,2.481-2.205v-8.578h3.86v8.67
		c0,1.286,0.919,2.113,2.818,2.113h1.103v3.523H193.811z M187.837,382.097v-3.83h3.124v3.83H187.837z"/>
	<path fill="#353535" d="M193.996,399.068v-3.523h9.987c-0.306-7.721-7.812-7.291-7.812-7.291v-3.432
		c8.364,0,11.733,5.239,11.733,11.305v2.941H193.996z M198.836,382.097v-3.83h3.829v3.83H198.836z"/>
	<path fill="#353535" d="M209.162,404.553v-3.432c3.125,0,3.002-2.542,3.002-4.626c0-0.093,0-11.703,0-11.703h3.769
		c0,0,0.061,0.337,0,13.266C215.933,401.396,213.788,404.705,209.162,404.553z"/>
	<path fill="#353535" d="M231.926,399.068v-16.298l-5.912-0.03v-3.463h9.772v19.791H231.926z"/>
	<path fill="#353535" d="M252.791,399.068c-4.136,0-6.494-2.329-6.494-7.046c0-4.504,2.39-7.23,6.494-7.23
		c4.074,0,6.434,2.727,6.434,7.291C259.225,396.739,256.896,399.068,252.791,399.068z M248.472,382.097v-3.83h3.431v3.83H248.472z
		 M252.791,387.978c-1.623,0-2.573,0.89-2.573,4.014c0,3.002,0.919,3.615,2.573,3.615c1.593,0,2.573-0.613,2.573-3.523
		C255.364,388.867,254.354,387.978,252.791,387.978z M253.404,382.097v-3.83h3.461v3.83H253.404z"/>
	<path fill="#353535" d="M274.636,399.068c-0.459,3.401-3.124,5.576-6.25,5.76l-0.673,0.062v-3.554
		c1.562-0.031,2.787-1.012,2.91-2.268h-2.298c-2.695,0-6.157-1.562-6.157-6.74c0-4.87,2.236-7.566,6.157-7.566h6.343v10.783h3.645
		v3.523H274.636z M270.838,388.192h-2.452c-2.082,0-2.39,2.574-2.39,4.136c0,1.716,0.798,3.217,2.39,3.217h2.452V388.192z"/>
	<path fill="#353535" d="M289.038,399.068c-1.226,0-2.359-0.154-3.462-0.489c-1.134,0.335-2.268,0.489-3.462,0.489h-4.75v-3.523
		c1.258,0,2.728,0,3.708,0c-1.409-1.501-2.421-3.677-2.114-5.882c0.46-2.849,2.666-5.331,6.618-5.331s6.157,2.482,6.556,5.331
		c0.337,2.205-0.704,4.381-2.083,5.882c0.919,0,2.268,0,3.707,0v3.523H289.038z M281.348,382.097v-3.83h3.462v3.83H281.348z
		 M285.576,387.519c-1.44,0-2.543,0.98-2.728,2.298c-0.306,1.838,0.92,3.859,2.728,4.901c1.807-1.042,3.032-3.032,2.696-4.901
		C288.058,388.53,286.954,387.519,285.576,387.519z M286.28,382.097v-3.83h3.462v3.83H286.28z"/>
	<path fill="#353535" d="M292.837,399.068v-3.523c2.635,0,3.861-0.949,3.861-2.757v-8.026h3.83v8.21
		C300.528,396.739,297.587,399.068,292.837,399.068z M295.687,405.257v-3.829h3.891v3.829H295.687z"/>
	<path fill="#353535" d="M315.755,404.553c-0.367,0-0.552,0.03-0.827,0c-3.554-0.062-6.157-2.604-6.157-6.312v-5.575h3.829v5.482
		c0,1.84,0.858,2.82,2.788,2.82s2.696-0.98,2.696-2.82v-18.871h3.86v18.994C321.944,401.979,319.34,404.491,315.755,404.553z"/>
	<path fill="#353535" d="M324.917,399.068v-19.853h3.829v19.853H324.917z"/>
	<path fill="#353535" d="M340.604,399.068c-0.521,0-2.88-0.122-3.83-0.92c0,3.279-2.175,6.557-6.771,6.404v-3.432
		c3.125,0,3.002-2.542,3.002-4.626c0-0.093,0-11.733,0-11.733h3.769c0,0,0,5.238,0.062,8.026c0,1.93,1.717,2.757,3.769,2.757h0.152
		v3.523H340.604z M332.914,383.107v-3.83h3.829v3.83H332.914z"/>
	<path fill="#353535" d="M339.808,399.068v-3.523c2.635,0,3.859-0.98,3.859-2.788v-13.479h3.83v13.694
		C347.497,396.739,344.556,399.068,339.808,399.068z"/>
	<path fill="#353535" d="M348.784,404.553v-3.432c3.125,0,3.002-2.542,3.002-4.626c0-0.093,0-11.703,0-11.703h3.769
		c0,0,0.062,0.337,0,13.266C355.555,401.396,353.411,404.705,348.784,404.553z M351.695,382.097v-3.83h3.829v3.83H351.695z"/>
	<path fill="#353535" d="M376.052,399.068c-2.144,0-0.705,0-5.544,0c-4.198,0-6.71-2.39-6.71-6.312v-7.995h3.829v7.904
		c0,1.93,0.674,2.879,2.666,2.879h5.759c1.992,0,2.788-0.98,2.788-2.879v-7.904h3.83v7.995
		C382.67,396.618,380.188,399.037,376.052,399.068z M371.579,405.257v-3.829h3.891v3.829H371.579z"/>
	<path fill="#353535" d="M394.191,399.068c-0.521,0-2.543-0.122-3.493-0.92c0,3.279-2.175,6.557-6.771,6.404v-3.432
		c3.125,0,3.002-2.542,3.002-4.626c0-0.093,0-11.733,0-11.733h3.769c0,0,0,5.238,0.062,8.026c0,1.93,1.379,2.757,3.432,2.757h0.489
		v3.523H394.191z"/>
	<path fill="#353535" d="M409.143,399.068H393.7v-3.523h4.842v-10.783h3.738v5.698c1.469-2.604,3.89-5.362,7.658-5.362
		c4.442,0,6.188,3.738,6.188,6.465C416.097,393.983,414.778,399.068,409.143,399.068z M409.847,388.499
		c-3.646,0-5.515,4.289-6.464,7.046h5.76c2.021,0,3.124-1.746,3.124-4.044C412.267,389.97,411.47,388.499,409.847,388.499z
		 M407.825,383.107v-3.83h3.859v3.83H407.825z"/>
	<path fill="#353535" d="M43.678,439.922c-0.521,0-2.542-0.122-3.492-0.92c0,3.278-2.175,6.557-6.771,6.403v-3.431
		c3.125,0,3.002-2.542,3.002-4.626c0-0.093,0-11.734,0-11.734h3.769c0,0,0,5.239,0.062,8.028c0,1.929,1.378,2.755,3.431,2.755h0.491
		v3.524H43.678z"/>
	<path fill="#353535" d="M43.22,439.922v-3.524h9.988c-0.306-7.719-7.812-7.291-7.812-7.291v-3.431
		c8.364,0,11.733,5.239,11.733,11.305v2.941H43.22z M48.061,422.949v-3.829h3.829v3.829H48.061z"/>
	<path fill="#353535" d="M62.982,418.568c-1.134,0-2.114-0.429-3.125-0.429c-0.245,0-0.459-0.03-1.379,0.306l-1.991-1.562
		c1.256-0.704,2.022-0.979,2.941-0.979c1.103,0,2.114,0.459,3.156,0.459c0.337,0,0.857-0.029,1.899-0.521l1.899,1.686
		C64.912,418.323,64.146,418.568,62.982,418.568z M60.072,439.922v-19.853h3.83v19.853H60.072z"/>
	<path fill="#353535" d="M79.098,445.405c-0.367,0-0.551,0.03-0.827,0c-3.554-0.061-6.158-2.603-6.158-6.311v-5.575h3.83v5.482
		c0,1.84,0.858,2.82,2.789,2.82c1.93,0,2.696-0.98,2.696-2.82v-18.87h3.86v18.993C85.286,442.832,82.682,445.345,79.098,445.405z"/>
	<path fill="#353535" d="M88.259,439.922v-19.853h3.83v19.853H88.259z"/>
	<path fill="#353535" d="M103.945,439.922c-0.521,0-2.879-0.122-3.829-0.92c0,3.278-2.175,6.557-6.771,6.403v-3.431
		c3.125,0,3.002-2.542,3.002-4.626c0-0.093,0-11.734,0-11.734h3.768c0,0,0,5.239,0.062,8.028c0,1.929,1.715,2.755,3.768,2.755h0.153
		v3.524H103.945z M96.256,423.961v-3.829h3.829v3.829H96.256z"/>
	<path fill="#353535" d="M103.15,439.922v-3.524c2.635,0,3.861-0.979,3.861-2.787v-13.479h3.829v13.693
		C110.84,437.593,107.898,439.922,103.15,439.922z"/>
	<path fill="#353535" d="M112.127,445.405v-3.431c3.125,0,3.002-2.542,3.002-4.626c0-0.093,0-11.703,0-11.703h3.768
		c0,0,0.062,0.337,0,13.265C118.898,442.25,116.753,445.559,112.127,445.405z M115.038,422.949v-3.829h3.829v3.829H115.038z"/>
	<path fill="#353535" d="M133.328,439.922c-2.665,0-6.188-1.838-6.188-7.046c0-4.871,2.267-7.23,6.188-7.23h6.312v10.752h4.167
		v3.524C140.068,439.922,136.606,439.922,133.328,439.922z M135.81,429.016h-2.267c-2.114,0-2.573,2.328-2.573,3.86
		c0,1.746,0.98,3.521,2.573,3.521h2.267V429.016z"/>
	<path fill="#353535" d="M156.859,439.922c-0.949,0-2.022-0.122-2.972-0.429c-1.011,0.307-2.022,0.429-3.002,0.429h-7.659v-3.524
		h6.097l-3.86-3.369c0-4.381,3.155-7.843,8.425-7.843s8.425,3.462,8.425,7.843l-3.892,3.369h6.127v3.524H156.859z M153.918,428.556
		c-2.512-0.092-4.259,1.624-4.381,3.492c1.103,1.012,3.37,3.003,4.35,3.799l4.319-3.799
		C158.084,430.24,156.46,428.586,153.918,428.556z"/>
	<path fill="#353535" d="M173.864,439.922c-1.899,0-3.431-0.552-4.626-1.501c-1.104,1.012-2.696,1.501-4.535,1.501h-1.103v-3.524
		h1.103c1.593,0,2.482-0.856,2.482-2.204v-8.579h3.86v8.671c0,1.286,0.919,2.112,2.818,2.112h1.103v3.524H173.864z M167.4,446.11
		v-3.83h3.86v3.83H167.4z"/>
	<path fill="#353535" d="M174.049,439.922v-3.524c2.635,0,3.861-0.948,3.861-2.755v-8.028h3.829v8.211
		C181.739,437.593,178.797,439.922,174.049,439.922z M174.294,422.949v-3.829h3.064v3.829H174.294z M178.89,422.949v-3.829h3.063
		v3.829H178.89z"/>
	<path fill="#353535" d="M210.63,439.922c-2.021,0-4.013-0.675-5.055-2.144c-1.103,1.377-2.758,2.144-4.902,2.144h-4.044
		c-2.022,0-2.818,0.92-2.818,2.788v2.635h-3.83v-2.757c0-3.31,1.685-5.822,5.055-6.158c-0.552-1.195-0.796-2.604-0.796-4.259
		c0-4.596,2.359-7.751,6.434-7.751c4.136,0,6.495,3.125,6.495,7.781c0,0.49-0.031,0.95-0.092,1.409
		c0.214,1.839,1.44,2.787,3.615,2.787h0.643v3.524H210.63z M200.673,427.76c-1.501,0-2.512,1.071-2.512,4.38
		c0,3.156,1.011,4.258,2.512,4.258c1.562,0,2.604-1.102,2.604-4.227C203.277,428.831,202.236,427.76,200.673,427.76z"/>
	<path fill="#353535" d="M210.234,422.949v-3.829h3.094v3.829H210.234z M210.417,439.922v-3.524c2.635,0,3.861-0.948,3.861-2.755
		v-8.028h3.829v8.211C218.107,437.593,215.167,439.922,210.417,439.922z M212.532,417.864v-3.34h3.063v3.34H212.532z
		 M214.83,422.949v-3.829h3.094v3.829H214.83z"/>
	<path fill="#353535" d="M246.479,439.922v-10.447c-1.134,0-2.45,0.644-2.45,3.278v7.169h-17.678
		c0.152-1.991,0.337-5.208,1.439-7.66c1.685-3.829,4.289-5.79,9.773-5.728v3.278c-2.695,0-4.597,0.306-6.005,2.909
		c-0.581,1.104-0.919,2.728-1.072,3.676h9.712c0.061-4.043,0.061-3.921,0-4.013c0-6.402,5.392-6.739,10.109-6.739v10.752h3.83v3.524
		H246.479z M230.763,446.11v-3.83h3.461v3.83H230.763z M235.694,446.11v-3.83h3.462v3.83H235.694z"/>
	<path fill="#353535" d="M268.631,439.922h-15.44v-3.524h4.841v-10.783h3.738v5.699c1.469-2.604,3.891-5.362,7.658-5.362
		c4.442,0,6.188,3.738,6.188,6.465C275.586,434.837,274.268,439.922,268.631,439.922z M269.336,429.353
		c-3.646,0-5.515,4.29-6.464,7.045h5.759c2.021,0,3.125-1.745,3.125-4.043C271.756,430.823,270.959,429.353,269.336,429.353z
		 M267.314,423.961v-3.829h3.859v3.829H267.314z"/>
	<path fill="#353535" d="M278.591,433.643v-13.573h3.829v13.48c0,1.868,0.858,2.848,3.492,2.848v3.524
		C281.102,439.922,278.591,437.532,278.591,433.643z"/>
	<path fill="#353535" d="M300.466,439.095c-1.041,2.175-2.972,3.431-5.668,3.431c-2.604-0.03-4.595-1.225-5.637-3.278
		c-0.949,0.461-2.113,0.675-3.37,0.675h-1.103v-3.524c1.501-0.091,3.31-0.06,3.462-1.898c0.245-4.441,2.543-7.291,6.647-7.291
		c4.259,0,6.526,3.278,6.526,7.291c0,1.287,0.919,1.898,2.818,1.898h1.104v3.524C303.652,439.922,301.905,439.83,300.466,439.095z
		 M294.798,430.455c-1.562,0-2.604,1.072-2.604,4.32c0,3.155,1.042,4.227,2.604,4.227c1.562,0,2.605-1.102,2.605-4.136
		C297.403,431.527,296.36,430.455,294.798,430.455z"/>
	<path fill="#353535" d="M304.327,439.922v-3.524c2.635,0,3.861-0.979,3.861-2.787v-13.479h3.829v13.693
		C312.018,437.593,309.076,439.922,304.327,439.922z"/>
	<path fill="#353535" d="M314.99,439.922v-19.853h3.829v19.853H314.99z"/>
	<path fill="#353535" d="M327.031,439.922v-3.524h3.062v-0.643c0-1.685,0.613-6.434,5.853-6.434c2.634,0,4.442,1.165,5.36,3.4
		c-0.581,0.123-3.736,0.767-3.736,0.767c-0.521-0.735-0.951-0.949-1.532-0.949c-1.961,0-2.022,2.113-2.022,3.125v0.733h8.088v3.524
		H327.031z"/>
	<path fill="#353535" d="M345.048,433.643v-13.573h3.828v13.48c0,1.868,0.858,2.848,3.493,2.848v3.524
		C347.56,439.922,345.048,437.532,345.048,433.643z"/>
	<path fill="#353535" d="M364.777,439.922c-0.949,0-2.021-0.122-2.972-0.429c-1.011,0.307-2.021,0.429-3.001,0.429h-7.66v-3.524
		h6.097l-3.86-3.369c0-4.381,3.155-7.843,8.425-7.843s8.426,3.462,8.426,7.843l-3.891,3.369h6.126v3.524H364.777z M361.837,428.556
		c-2.513-0.092-4.259,1.624-4.381,3.492c1.102,1.012,3.37,3.003,4.35,3.799l4.32-3.799
		C366.004,430.24,364.38,428.586,361.837,428.556z"/>
	<path fill="#353535" d="M371.52,439.922v-3.524c2.635,0,3.86-0.948,3.86-2.755v-8.028h3.83v8.211
		C379.21,437.593,376.269,439.922,371.52,439.922z M374.369,446.11v-3.83h3.891v3.83H374.369z"/>
	<path fill="#353535" d="M380.497,445.405v-3.431c3.125,0,3.002-2.542,3.002-4.626c0-0.093,0-11.703,0-11.703h3.769
		c0,0,0.062,0.337,0,13.265C387.268,442.25,385.124,445.559,380.497,445.405z"/>
	<path fill="#353535" d="M387.973,418.385v-1.502h1.348v-0.307c0-0.734,0.245-2.817,2.513-2.817c1.194,0,1.93,0.521,2.358,1.531
		c-0.245,0.03-1.624,0.276-1.624,0.276c-0.214-0.276-0.429-0.368-0.674-0.368c-0.888,0-0.888,0.92-0.888,1.349v0.336h3.522v1.502
		H387.973z M397.286,439.922h-7.046v-3.524h2.572v-16.266h3.923v16.266h0.488c0.736,0,1.655-0.611,2.023-1.438
		c0.397-1.011,0.337-2.114,0.337-3.125v-11.765h3.83c0,0,0,0.735,0,13.45C403.414,437.472,400.779,439.922,397.286,439.922z"/>
	<path fill="#353535" d="M406.388,439.922v-19.853h3.828v19.853H406.388z"/>
	<path fill="#353535" d="M60.685,480.774v-4.137h3.798v4.137H60.685z"/>
	<path fill="#353535" d="M75.176,480.774v-16.299l-5.913-0.03v-3.462h9.773v19.791H75.176z"/>
	<path fill="#353535" d="M87.77,480.806h-3.309v-4.964l3.309-2.665V480.806z"/>
	<path fill="#353535" d="M100.637,480.743l-2.542-12.346l-2.573,12.346h-4.197l4.932-19.852h3.707l4.841,19.852H100.637z"/>
	<path fill="#353535" d="M119.94,480.774c-4.136,0-6.495-2.328-6.495-7.046c0-4.504,2.39-7.231,6.495-7.231
		c4.074,0,6.434,2.728,6.434,7.292C126.374,478.446,124.045,480.774,119.94,480.774z M115.621,463.802v-3.83h3.431v3.83H115.621z
		 M119.94,469.685c-1.624,0-2.574,0.889-2.574,4.013c0,3.002,0.919,3.615,2.574,3.615c1.593,0,2.573-0.613,2.573-3.523
		C122.514,470.573,121.503,469.685,119.94,469.685z M120.553,463.802v-3.83h3.461v3.83H120.553z"/>
	<path fill="#353535" d="M141.785,480.774c-0.459,3.4-3.125,5.576-6.25,5.759l-0.674,0.062v-3.555
		c1.563-0.03,2.789-1.012,2.911-2.267h-2.298c-2.696,0-6.158-1.562-6.158-6.739c0-4.871,2.237-7.568,6.158-7.568h6.342v10.784h3.646
		v3.523H141.785z M137.986,469.898h-2.451c-2.083,0-2.39,2.573-2.39,4.137c0,1.715,0.797,3.216,2.39,3.216h2.451V469.898z"/>
	<path fill="#353535" d="M156.186,480.774c-1.225,0-2.359-0.153-3.461-0.491c-1.133,0.338-2.267,0.491-3.462,0.491h-4.749v-3.523
		c1.256,0,2.727,0,3.707,0c-1.409-1.501-2.42-3.676-2.114-5.883c0.46-2.85,2.666-5.33,6.618-5.33c3.952,0,6.158,2.48,6.556,5.33
		c0.337,2.207-0.705,4.382-2.083,5.883c0.919,0,2.267,0,3.707,0v3.523H156.186z M148.496,463.802v-3.83h3.462v3.83H148.496z
		 M152.724,469.225c-1.44,0-2.543,0.98-2.727,2.297c-0.307,1.839,0.919,3.861,2.727,4.902c1.808-1.041,3.033-3.033,2.696-4.902
		C155.205,470.235,154.103,469.225,152.724,469.225z M153.429,463.802v-3.83h3.461v3.83H153.429z"/>
	<path fill="#353535" d="M159.986,480.774v-3.523c2.635,0,3.861-0.95,3.861-2.757v-8.027h3.829v8.211
		C167.676,478.446,164.735,480.774,159.986,480.774z M162.835,486.963v-3.83h3.891v3.83H162.835z"/>
	<path fill="#353535" d="M176.685,483.348c-0.796-1.133-1.195-2.39-1.195-4.043v-11.827c0-2.572,0.919-4.441,3.002-5.912
		c0.889-0.644,1.287-0.796,2.481-1.134v3.951c-1.471,0.675-2.022,1.472-2.022,3.095v11.827c0,1.562,0.552,2.39,2.022,3.032v3.951
		C179.105,485.799,177.695,484.787,176.685,483.348z"/>
	<path fill="#353535" d="M182.23,486.259v-3.432c3.125,0,3.002-2.544,3.002-4.626c0-0.093,0-11.704,0-11.704h3.769
		c0,0,0.061,0.338,0,13.266C189.001,483.103,186.856,486.411,182.23,486.259z"/>
	<path fill="#353535" d="M191.973,474.494v-13.572h3.83v13.479c0,1.869,0.857,2.85,3.492,2.85v3.523
		C194.485,480.774,191.973,478.385,191.973,474.494z"/>
	<path fill="#353535" d="M213.849,479.948c-1.042,2.174-2.972,3.43-5.667,3.43c-2.604-0.03-4.596-1.226-5.638-3.277
		c-0.949,0.46-2.113,0.674-3.369,0.674h-1.104v-3.523c1.501-0.092,3.309-0.061,3.462-1.899c0.245-4.441,2.542-7.291,6.648-7.291
		c4.258,0,6.525,3.278,6.525,7.291c0,1.286,0.918,1.899,2.818,1.899h1.103v3.523C217.035,480.774,215.288,480.683,213.849,479.948z
		 M208.181,471.308c-1.562,0-2.604,1.072-2.604,4.319c0,3.155,1.042,4.228,2.604,4.228c1.562,0,2.604-1.102,2.604-4.136
		C210.785,472.38,209.743,471.308,208.181,471.308z"/>
	<path fill="#353535" d="M227.975,480.774c-1.9,0-3.433-0.552-4.627-1.501c-1.103,1.01-2.696,1.501-4.534,1.501h-1.104v-3.523h1.104
		c1.593,0,2.481-0.858,2.481-2.205v-8.579h3.859v8.671c0,1.286,0.92,2.113,2.82,2.113h1.102v3.523H227.975z M221.233,463.802v-3.83
		h3.891v3.83H221.233z"/>
	<path fill="#353535" d="M226.842,486.963v-3.83h3.43v3.83H226.842z M228.617,480.774h-0.307v-3.523h0.307
		c2.573-0.061,3.401-0.98,3.401-2.757v-8.027h3.829v8.211C235.848,478.415,233.305,480.743,228.617,480.774z M231.772,486.963v-3.83
		h3.401v3.83H231.772z"/>
	<path fill="#353535" d="M238.82,474.494v-13.572h3.829v13.479c0,1.869,0.858,2.85,3.493,2.85v3.523
		C241.332,480.774,238.82,478.385,238.82,474.494z"/>
	<path fill="#353535" d="M254.69,480.774c-1.899,0-3.585-0.644-4.565-2.268c-0.887,1.686-2.848,2.268-5.208,2.268v-3.523
		c3.248,0,3.155-3.033,3.248-5.055c0.214-4.044,2.696-6.71,6.525-6.71c4.166,0,6.526,3.064,6.526,7.659
		C261.217,477.772,258.888,480.774,254.69,480.774z M254.69,468.734c-1.531,0-2.574,1.103-2.574,4.473
		c0,3.217,1.013,4.319,2.574,4.319c1.562,0,2.604-1.134,2.604-4.289C257.295,469.837,256.253,468.734,254.69,468.734z"/>
	<path fill="#353535" d="M268.02,483.348c-1.012,1.439-2.421,2.451-4.29,2.94v-3.951c1.471-0.643,2.023-1.471,2.023-3.032v-11.827
		c0-1.623-0.553-2.42-2.023-3.095v-3.951c1.195,0.338,1.594,0.49,2.482,1.134c2.084,1.471,3.002,3.34,3.002,5.912v11.827
		C269.214,480.958,268.846,482.215,268.02,483.348z"/>
	<path fill="#353535" d="M277.426,474.494v-13.572h3.828v13.479c0,1.869,0.859,2.85,3.493,2.85v3.523
		C279.938,480.774,277.426,478.385,277.426,474.494z"/>
	<path fill="#353535" d="M293.297,480.774c-1.899,0-3.585-0.644-4.565-2.268c-0.888,1.686-2.848,2.268-5.208,2.268v-3.523
		c3.248,0,3.155-3.033,3.248-5.055c0.213-4.044,2.695-6.71,6.525-6.71c4.166,0,6.525,3.064,6.525,7.659
		C299.822,477.772,297.494,480.774,293.297,480.774z M293.297,468.734c-1.531,0-2.574,1.103-2.574,4.473
		c0,3.217,1.012,4.319,2.574,4.319c1.562,0,2.604-1.134,2.604-4.289C295.901,469.837,294.858,468.734,293.297,468.734z"/>
	<path fill="#353535" d="M301.08,486.259v-3.432c3.125,0,3.002-2.544,3.002-4.626c0-0.093,0-11.704,0-11.704h3.769
		c0,0,0.062,0.338,0,13.266C307.851,483.103,305.707,486.411,301.08,486.259z"/>
	<path fill="#353535" d="M323.291,480.774c-0.459,3.4-3.125,5.576-6.25,5.759l-0.673,0.062v-3.555
		c1.562-0.03,2.787-1.012,2.91-2.267h-2.298c-2.695,0-6.157-1.562-6.157-6.739c0-4.871,2.236-7.568,6.157-7.568h6.342v10.784h3.646
		v3.523H323.291z M319.492,469.898h-2.451c-2.082,0-2.39,2.573-2.39,4.137c0,1.715,0.797,3.216,2.39,3.216h2.451V469.898z"/>
	<path fill="#353535" d="M326.02,480.774v-3.523c2.635,0,3.861-0.95,3.861-2.757v-8.027h3.83v8.211
		C333.711,478.446,330.769,480.774,326.02,480.774z M328.869,486.963v-3.83h3.891v3.83H328.869z"/>
	<path fill="#353535" d="M362.08,480.774v-10.447c-1.134,0-2.45,0.644-2.45,3.278v7.169h-17.677
		c0.152-1.992,0.336-5.208,1.438-7.659c1.687-3.83,4.29-5.791,9.774-5.729v3.279c-2.696,0-4.596,0.306-6.005,2.91
		c-0.582,1.103-0.92,2.726-1.072,3.676h9.711c0.062-4.044,0.062-3.922,0-4.014c0-6.402,5.393-6.74,10.11-6.74v10.754h3.829v3.523
		H362.08z M346.364,486.963v-3.83h3.462v3.83H346.364z M351.297,486.963v-3.83h3.462v3.83H351.297z"/>
	<path fill="#353535" d="M378.137,480.774h-9.498v-3.523h4.044c-0.827-0.552-1.041-2.236-1.041-3.676
		c0-4.597,2.389-7.414,6.495-7.414c4.074,0,6.463,2.788,6.463,7.506S382.242,480.774,378.137,480.774z M378.137,469.438
		c-1.563,0-2.574,0.889-2.574,4.137c0,3.032,0.92,3.676,2.574,3.676c1.624,0,2.572-0.674,2.572-3.646
		C380.709,470.327,379.729,469.438,378.137,469.438z M376.176,463.802v-3.83h3.891v3.83H376.176z"/>
	<path fill="#353535" d="M49.254,516.879v-5.698c-1.134,0-2.451,0.644-2.451,3.278v7.169H29.126c0.153-1.992,0.337-5.209,1.44-7.659
		c1.685-3.83,4.289-5.791,9.773-5.729v3.278c-2.696,0-4.595,0.307-6.005,2.911c-0.582,1.102-0.919,2.726-1.072,3.676h9.712
		c0.061-4.044,0.061-3.922,0-4.014c0-6.402,5.392-6.74,10.109-6.74v7.568L49.254,516.879z"/>
	<path fill="#353535" d="M68.527,521.628c-0.459,3.4-3.125,5.576-6.25,5.76l-0.674,0.062v-3.555c1.563-0.03,2.789-1.011,2.911-2.267
		h-2.298c-2.696,0-6.158-1.562-6.158-6.74c0-4.871,2.236-7.567,6.158-7.567h6.342v10.784h3.646v3.523H68.527z M64.729,510.752
		h-2.451c-2.083,0-2.389,2.573-2.389,4.136c0,1.716,0.796,3.217,2.389,3.217h2.451V510.752z"/>
	<path fill="#353535" d="M80.569,521.628h-9.497v-3.523h4.044c-0.736-0.766-1.042-2.236-1.042-3.676c0-4.596,2.39-7.415,6.495-7.415
		c4.075,0,6.465,2.789,6.465,7.506C87.034,519.238,84.674,521.628,80.569,521.628z M76.25,504.655v-3.83h3.462v3.83H76.25z
		 M80.569,510.292c-1.562,0-2.573,0.889-2.573,4.137c0,3.032,0.918,3.676,2.573,3.676c1.624,0,2.573-0.673,2.573-3.646
		C83.142,511.181,82.162,510.292,80.569,510.292z M81.243,504.655v-3.83h3.401v3.83H81.243z"/>
	<path fill="#353535" d="M87.739,500.091v-1.502h1.348v-0.307c0-0.734,0.245-2.818,2.512-2.818c1.195,0,1.93,0.521,2.359,1.532
		c-0.246,0.031-1.624,0.276-1.624,0.276c-0.215-0.276-0.429-0.368-0.674-0.368c-0.889,0-0.889,0.919-0.889,1.349v0.336h3.523v1.502
		H87.739z M90.007,521.628v-19.853h3.83v19.853H90.007z"/>
	<path fill="#353535" d="M122.176,521.628v-10.447c-1.134,0-2.451,0.644-2.451,3.278v7.169h-17.677
		c0.153-1.992,0.337-5.209,1.44-7.659c1.685-3.83,4.289-5.791,9.772-5.729v3.278c-2.696,0-4.595,0.307-6.005,2.911
		c-0.582,1.102-0.919,2.726-1.072,3.676h9.711c0.062-4.044,0.062-3.922,0-4.014c0-6.402,5.392-6.74,10.11-6.74v10.754h3.83v3.523
		H122.176z"/>
	<path fill="#353535" d="M139.182,521.628c-1.899,0-3.431-0.552-4.626-1.501c-1.104,1.01-2.696,1.501-4.534,1.501h-1.103v-3.523
		h1.103c1.593,0,2.481-0.858,2.481-2.206v-14.062h3.86v14.154c0,1.286,0.919,2.113,2.818,2.113h1.103v3.523H139.182z"/>
	<path fill="#353535" d="M139.366,521.628v-3.523h2.849c-0.613-1.011-0.95-2.176-0.95-3.922c0-1.898,1.011-7.169,6.219-7.169
		c2.605,0,4.474,1.38,5.362,3.585c-0.919,0.215-3.799,0.796-3.799,0.796c-0.245-0.581-0.889-0.979-1.47-0.979
		c-2.053,0-2.451,2.572-2.451,3.676c0,2.328,1.225,4.014,2.91,4.014h5.024l1.133,3.523H139.366z"/>
	<path fill="#353535" d="M168.595,521.628c-2.666,0-6.188-1.839-6.188-7.046c0-4.872,2.267-7.231,6.188-7.231h6.312v10.754h4.503
		v3.523C175.673,521.628,171.874,521.628,168.595,521.628z M165.869,504.655v-3.83h3.4v3.83H165.869z M171.077,510.721h-2.267
		c-2.114,0-2.574,2.329-2.574,3.861c0,1.746,0.981,3.522,2.574,3.522h2.267V510.721z M170.801,504.655v-3.83h3.432v3.83H170.801z"/>
	<path fill="#353535" d="M177.39,527.815v-3.829h3.4v3.829H177.39z M188.755,521.628c-1.899,0-3.431-0.552-4.626-1.501
		c-1.103,1.01-2.696,1.501-4.534,1.501h-1.103v-3.523h1.103c1.593,0,2.481-0.858,2.481-2.206v-8.548h3.86v8.641
		c0,1.286,0.919,2.113,2.818,2.113h1.104v3.523H188.755z M182.322,527.815v-3.829h3.401v3.829H182.322z"/>
	<path fill="#353535" d="M188.94,521.628v-3.523c2.635,0,3.861-0.98,3.861-2.787v-13.48h3.829v13.693
		C196.63,519.299,193.689,521.628,188.94,521.628z"/>
	<path fill="#353535" d="M199.603,515.348v-13.572h3.83v13.479c0,1.869,0.858,2.85,3.493,2.85v3.523
		C202.115,521.628,199.603,519.238,199.603,515.348z"/>
	<path fill="#353535" d="M205.394,504.655v-3.83h3.125v3.83H205.394z M215.963,521.628c-1.899,0-3.432-0.552-4.626-1.501
		c-1.103,1.01-2.696,1.501-4.534,1.501H205.7v-3.523h1.104c1.593,0,2.482-0.858,2.482-2.206v-8.578h3.86v8.671
		c0,1.286,0.919,2.113,2.818,2.113h1.103v3.523H215.963z M209.989,504.655v-3.83h3.125v3.83H209.989z"/>
	<path fill="#353535" d="M216.147,521.628v-3.523c2.635,0,3.861-0.98,3.861-2.787v-13.48h3.83v13.693
		C223.838,519.299,220.896,521.628,216.147,521.628z"/>
	<path fill="#353535" d="M226.81,521.628v-19.853h3.83v19.853H226.81z"/>
	<path fill="#353535" d="M245.04,521.628c-2.665,0-6.188-1.839-6.188-7.046c0-4.872,2.268-7.231,6.188-7.231h6.311v10.754h4.503
		v3.523C252.116,521.628,248.318,521.628,245.04,521.628z M242.313,504.655v-3.83h3.4v3.83H242.313z M247.521,510.721h-2.267
		c-2.114,0-2.574,2.329-2.574,3.861c0,1.746,0.98,3.522,2.574,3.522h2.267V510.721z M247.245,504.655v-3.83h3.432v3.83H247.245z"/>
	<path fill="#353535" d="M270.715,520.802c-1.041,2.174-2.971,3.43-5.668,3.43c-2.604-0.031-4.595-1.226-5.637-3.277
		c-0.949,0.459-2.113,0.674-3.37,0.674h-1.103v-3.523c1.501-0.092,3.31-0.062,3.462-1.899c0.245-4.442,2.543-7.291,6.647-7.291
		c4.259,0,6.526,3.278,6.526,7.291c0,1.286,0.919,1.899,2.819,1.899h1.103v3.523C273.901,521.628,272.155,521.536,270.715,520.802z
		 M265.047,512.161c-1.562,0-2.604,1.072-2.604,4.319c0,3.155,1.042,4.228,2.604,4.228c1.562,0,2.605-1.102,2.605-4.136
		C267.652,513.233,266.609,512.161,265.047,512.161z"/>
	<path fill="#353535" d="M274.516,504.655v-1.715h1.562v-0.338c-0.029-0.857,0.276-3.186,2.881-3.186
		c1.255,0,2.144,0.612,2.604,1.684c-0.307,0.062-1.838,0.399-1.838,0.399c-0.276-0.337-0.429-0.46-0.735-0.46
		c-1.011,0-1.011,1.041-1.011,1.501v0.399h4.013v1.715H274.516z M274.576,521.628v-3.523c2.635,0,3.861-0.95,3.861-2.757v-8.027
		h3.83v8.21C282.268,519.299,279.325,521.628,274.576,521.628z"/>
	<path fill="#353535" d="M285.24,515.348v-13.572h3.828v13.479c0,1.869,0.859,2.85,3.493,2.85v3.523
		C287.751,521.628,285.24,519.238,285.24,515.348z"/>
	<path fill="#353535" d="M303.009,521.628c-1.226,0-2.358-0.153-3.461-0.491c-1.134,0.338-2.268,0.491-3.462,0.491h-4.75v-3.523
		c1.257,0,2.728,0,3.708,0c-1.409-1.501-2.421-3.676-2.114-5.883c0.46-2.85,2.665-5.331,6.618-5.331
		c3.951,0,6.157,2.481,6.556,5.331c0.338,2.207-0.705,4.382-2.084,5.883c0.92,0,2.268,0,3.708,0v3.523H303.009z M295.319,504.655
		v-3.83h3.462v3.83H295.319z M299.548,510.078c-1.44,0-2.544,0.98-2.728,2.297c-0.306,1.839,0.919,3.861,2.728,4.902
		c1.807-1.041,3.032-3.033,2.695-4.902C302.028,511.089,300.926,510.078,299.548,510.078z M300.251,504.655v-3.83h3.463v3.83
		H300.251z"/>
	<path fill="#353535" d="M306.81,521.628v-3.523c2.635,0,3.861-0.98,3.861-2.787v-13.48h3.829v13.693
		C314.5,519.299,311.559,521.628,306.81,521.628z"/>
	<path fill="#353535" d="M317.472,521.628v-19.853h3.829v19.853H317.472z"/>
	<path fill="#353535" d="M346.148,521.628c-1.349,0-2.512-0.338-3.461-0.92v0.123c0,3.707-2.604,6.219-6.189,6.281
		c-0.367,0-0.552,0.029-0.826,0c-3.555-0.062-6.158-2.604-6.158-6.311v-5.577h3.829v5.483c0,1.839,0.858,2.819,2.788,2.819
		s2.696-0.98,2.696-2.819v-18.871h3.86v13.633c0,1.685,1.438,2.635,3.461,2.635h0.46v3.523H346.148z"/>
	<path fill="#353535" d="M361.467,520.802c-1.041,2.174-2.97,3.43-5.667,3.43c-2.604-0.031-4.595-1.226-5.637-3.277
		c-0.949,0.459-2.113,0.674-3.37,0.674h-1.103v-3.523c1.501-0.092,3.309-0.062,3.461-1.899c0.245-4.442,2.544-7.291,6.648-7.291
		c4.259,0,6.525,3.278,6.525,7.291c0,1.286,0.92,1.899,2.819,1.899h1.102v3.523C364.654,521.628,362.908,521.536,361.467,520.802z
		 M355.8,512.161c-1.562,0-2.604,1.072-2.604,4.319c0,3.155,1.043,4.228,2.604,4.228c1.563,0,2.604-1.102,2.604-4.136
		C358.404,513.233,357.363,512.161,355.8,512.161z"/>
	<path fill="#353535" d="M365.301,521.628v-3.523h4.84V507.32h3.737v10.784h4.963V507.32h3.89v10.784h3.738V507.32h3.8l0.03,10.784
		h3.554v3.523H365.301z M376.88,504.655v-3.83h3.063v3.83H376.88z M379.086,499.569v-3.34h3.125v3.34H379.086z M381.444,504.655
		v-3.83h3.095v3.83H381.444z"/>
	<path fill="#353535" d="M392.998,521.628v-3.523c2.635,0,3.86-0.95,3.86-2.757v-8.027h3.829v8.21
		C400.688,519.299,397.747,521.628,392.998,521.628z M393.243,504.655v-3.83h3.063v3.83H393.243z M397.839,504.655v-3.83h3.063v3.83
		H397.839z"/>
	<path fill="#353535" d="M409.359,527.05l0.03-3.186c1.471,0,3.921-0.521,3.83-3.37c-0.46,0.766-1.501,1.991-3.677,1.991
		c-3.983,0-5.882-2.543-5.882-7.506c0-4.81,2.235-7.629,6.219-7.629h6.28v13.297C416.16,524.905,413.434,527.204,409.359,527.05z
		 M412.33,510.752h-2.175c-2.237,0-2.665,2.573-2.665,4.167c0,1.653,0.03,4.196,2.45,4.196c2.481,0,2.39-2.329,2.39-4.044V510.752z"
		/>
	<path fill="#353535" d="M103.701,562.481c-2.665,0-6.188-1.839-6.188-7.046c0-4.872,2.267-7.231,6.188-7.231h6.312v10.754h4.503
		v3.523C110.778,562.481,106.98,562.481,103.701,562.481z M100.975,545.509v-3.83h3.4v3.83H100.975z M106.184,551.574h-2.268
		c-2.114,0-2.573,2.328-2.573,3.861c0,1.746,0.98,3.522,2.573,3.522h2.268V551.574z M105.908,545.509v-3.83h3.431v3.83H105.908z"/>
	<path fill="#353535" d="M112.496,568.669v-3.829h3.401v3.829H112.496z M123.862,562.481c-1.899,0-3.431-0.553-4.626-1.501
		c-1.103,1.01-2.696,1.501-4.534,1.501h-1.103v-3.523h1.103c1.593,0,2.481-0.858,2.481-2.206v-8.548h3.86v8.641
		c0,1.286,0.919,2.113,2.818,2.113h1.103v3.523H123.862z M117.429,568.669v-3.829h3.4v3.829H117.429z"/>
	<path fill="#353535" d="M139.458,562.481h-15.441v-3.523h4.841v-10.784h3.738v5.698c1.47-2.604,3.891-5.361,7.659-5.361
		c4.441,0,6.188,3.737,6.188,6.465C146.412,557.396,145.094,562.481,139.458,562.481z M140.162,551.912
		c-3.646,0-5.515,4.289-6.464,7.046h5.76c2.021,0,3.125-1.746,3.125-4.045C142.582,553.382,141.786,551.912,140.162,551.912z
		 M138.14,546.521v-3.83H142v3.83H138.14z"/>
	<path fill="#353535" d="M147.731,567.966v-3.433c3.125,0,3.002-2.543,3.002-4.626c0-0.093,0-11.703,0-11.703h3.768
		c0,0,0.062,0.338,0,13.266C154.502,564.81,152.357,568.118,147.731,567.966z"/>
	<path fill="#353535" d="M155.207,540.944v-1.501h1.348v-0.308c0-0.734,0.244-2.818,2.512-2.818c1.194,0,1.929,0.521,2.358,1.531
		c-0.245,0.032-1.624,0.277-1.624,0.277c-0.214-0.277-0.429-0.368-0.673-0.368c-0.889,0-0.889,0.919-0.889,1.349v0.337h3.523v1.501
		H155.207z M164.521,562.481h-7.047v-3.523h2.574V542.69h3.921v16.268h0.49c0.735,0,1.654-0.612,2.022-1.439
		c0.398-1.012,0.336-2.115,0.336-3.126v-11.765h3.83c0,0,0,0.736,0,13.45C170.647,560.029,168.013,562.481,164.521,562.481z"/>
	<path fill="#353535" d="M173.621,562.481v-19.854h3.83v19.854H173.621z"/>
	<path fill="#353535" d="M197.916,562.481c-2.145,0-0.704,0-5.544,0c-4.197,0-6.709-2.39-6.709-6.312v-7.996h3.83v7.904
		c0,1.93,0.674,2.88,2.666,2.88h5.759c1.992,0,2.789-0.98,2.789-2.88v-7.904h3.83v7.996
		C204.534,560.029,202.052,562.449,197.916,562.481z M190.931,545.509v-3.83h3.401v3.83H190.931z M195.864,545.509v-3.83h3.4v3.83
		H195.864z"/>
	<path fill="#353535" d="M207.478,562.481v-19.854h3.83v19.854H207.478z"/>
	<path fill="#353535" d="M223.164,562.481c-0.521,0-2.88-0.123-3.83-0.92c0,3.278-2.175,6.557-6.771,6.404v-3.433
		c3.125,0,3.002-2.543,3.002-4.626c0-0.093,0-11.733,0-11.733h3.768c0,0,0,5.238,0.062,8.027c0,1.93,1.715,2.757,3.768,2.757h0.154
		v3.523H223.164z M215.474,546.521v-3.83h3.83v3.83H215.474z"/>
	<path fill="#353535" d="M220.836,562.481v-3.523h3.677v-5.116c0-3.522,2.574-6.098,6.279-6.771v-2.358h3.493v2.358
		c3.706,0.613,6.311,3.249,6.311,6.771v5.116h1.869v3.523C222.705,562.481,220.836,562.481,220.836,562.481z M230.792,550.594
		c-0.918,0.398-2.604,1.227-2.604,3.248v5.116h2.604V550.594z M236.95,553.842c0-2.021-1.746-2.85-2.665-3.278v8.395h2.665V553.842z
		"/>
	<path fill="#353535" d="M241.395,562.481v-3.523c2.635,0,3.861-0.98,3.861-2.788V542.69h3.829v13.693
		C249.085,560.152,246.145,562.481,241.395,562.481z"/>
	<path fill="#353535" d="M252.057,562.481v-19.854h3.829v19.854H252.057z"/>
	<path fill="#353535" d="M269.797,567.903l0.03-3.186c1.471,0,3.921-0.521,3.83-3.37c-0.46,0.766-1.501,1.991-3.677,1.991
		c-3.982,0-5.881-2.544-5.881-7.506c0-4.811,2.234-7.629,6.218-7.629h6.28v13.297C276.598,565.759,273.871,568.057,269.797,567.903z
		 M272.769,551.605h-2.176c-2.237,0-2.665,2.573-2.665,4.166c0,1.653,0.03,4.197,2.451,4.197c2.48,0,2.39-2.329,2.39-4.045V551.605z
		"/>
	<path fill="#353535" d="M291.825,567.966c-0.367,0-0.552,0.029-0.827,0c-3.553-0.062-6.157-2.604-6.157-6.312v-5.576h3.829v5.483
		c0,1.839,0.857,2.819,2.788,2.819c1.93,0,2.695-0.98,2.695-2.819V542.69h3.86v18.993
		C298.014,565.392,295.409,567.903,291.825,567.966z"/>
	<path fill="#353535" d="M299.303,567.966v-3.433c3.125,0,3.002-2.543,3.002-4.626c0-0.093,0-11.703,0-11.703h3.77
		c0,0,0.061,0.338,0,13.266C306.074,564.81,303.93,568.118,299.303,567.966z M302.213,545.509v-3.83h3.83v3.83H302.213z"/>
	<path fill="#353535" d="M316.092,562.481h-7.046v-3.523h2.573V542.69h3.921v16.268h0.489c0.736,0,1.654-0.612,2.022-1.439
		c0.399-1.012,0.338-2.115,0.338-3.126v-11.765h3.83c0,0,0,0.736,0,13.45C322.22,560.029,319.585,562.481,316.092,562.481z"/>
	<path fill="#353535" d="M334.108,562.481c-0.521,0-2.88-0.123-3.83-0.92c0,3.278-2.175,6.557-6.771,6.404v-3.433
		c3.124,0,3.002-2.543,3.002-4.626c0-0.093,0-11.733,0-11.733h3.769c0,0,0,5.238,0.062,8.027c0,1.93,1.716,2.757,3.769,2.757h0.152
		v3.523H334.108z M326.418,546.521v-3.83h3.83v3.83H326.418z"/>
	<path fill="#353535" d="M333.312,562.481v-3.523c2.635,0,3.86-0.98,3.86-2.788V542.69h3.83v13.693
		C341.002,560.152,338.061,562.481,333.312,562.481z"/>
	<path fill="#353535" d="M343.975,562.481v-19.854h3.828v19.854H343.975z"/>
</g>
</svg>
