<?xml version="1.0" encoding="utf-8"?>
<!-- Generator: Adobe Illustrator 16.0.0, SVG Export Plug-In . SVG Version: 6.00 Build 0)  -->
<!DOCTYPE svg PUBLIC "-//W3C//DTD SVG 1.1//EN" "http://www.w3.org/Graphics/SVG/1.1/DTD/svg11.dtd">
<svg version="1.1" id="Layer_2" xmlns="http://www.w3.org/2000/svg" xmlns:xlink="http://www.w3.org/1999/xlink" x="0px" y="0px"
	 width="146.191px" height="139.962px" viewBox="0 0 146.191 139.962" enable-background="new 0 0 146.191 139.962"
	 xml:space="preserve">
<g>
	<g>
		<g id="IRAN_3_">
			<g>
				<defs>
					<rect id="SVGID_1_" x="0.001" y="-0.123" width="146.19" height="104.503"/>
				</defs>
				<clipPath id="SVGID_2_">
					<use xlink:href="#SVGID_1_"  overflow="visible"/>
				</clipPath>
				<rect x="0.001" y="-0.123" clip-path="url(#SVGID_2_)" fill="#FFFFFF" width="146.19" height="104.503"/>
			</g>
			<g>
				<defs>
					<rect id="SVGID_3_" x="0.001" y="-0.123" width="146.19" height="104.503"/>
				</defs>
				<clipPath id="SVGID_4_">
					<use xlink:href="#SVGID_3_"  overflow="visible"/>
				</clipPath>
				<rect x="0.001" y="-0.123" clip-path="url(#SVGID_4_)" fill="#49A044" width="146.19" height="37.857"/>
			</g>
			<g>
				<defs>
					<rect id="SVGID_5_" x="0.001" y="-0.123" width="146.19" height="104.503"/>
				</defs>
				<clipPath id="SVGID_6_">
					<use xlink:href="#SVGID_5_"  overflow="visible"/>
				</clipPath>
				<rect x="0.001" y="66.508" clip-path="url(#SVGID_6_)" fill="#C7001B" width="146.19" height="37.873"/>
			</g>
			<g>
				<defs>
					<rect id="SVGID_7_" x="0.001" y="-0.123" width="146.19" height="104.503"/>
				</defs>
				<clipPath id="SVGID_8_">
					<use xlink:href="#SVGID_7_"  overflow="visible"/>
				</clipPath>
				<polygon clip-path="url(#SVGID_8_)" fill="#C7001B" points="73.088,41.919 71.548,43.188 71.829,63.475 73.088,64.947 
					74.355,63.475 74.644,43.188 				"/>
			</g>
			<g>
				<defs>
					<rect id="SVGID_9_" x="0.001" y="-0.123" width="146.19" height="104.503"/>
				</defs>
				<clipPath id="SVGID_10_">
					<use xlink:href="#SVGID_9_"  overflow="visible"/>
				</clipPath>
				<g clip-path="url(#SVGID_10_)">
					<g>
						<defs>
							<rect id="SVGID_11_" x="0.001" y="-0.123" width="146.19" height="104.503"/>
						</defs>
						<defs>
							<rect id="SVGID_12_" x="0.001" y="-0.123" width="146.19" height="104.503"/>
						</defs>
						<defs>
							<rect id="SVGID_13_" x="0.001" y="-0.123" width="146.19" height="104.503"/>
						</defs>
						<defs>
							<rect id="SVGID_14_" x="0.001" y="-0.123" width="146.19" height="104.503"/>
						</defs>
						<defs>
							<rect id="SVGID_15_" x="0.001" y="-0.123" width="146.19" height="104.503"/>
						</defs>
						<defs>
							<rect id="SVGID_16_" x="0.001" y="-0.123" width="146.19" height="104.503"/>
						</defs>
						<defs>
							<rect id="SVGID_17_" x="0.001" y="-0.123" width="146.19" height="104.503"/>
						</defs>
						<defs>
							<rect id="SVGID_18_" x="0.001" y="-0.123" width="146.19" height="104.503"/>
						</defs>
						<defs>
							<rect id="SVGID_19_" x="0.001" y="-0.123" width="146.19" height="104.503"/>
						</defs>
						<defs>
							<rect id="SVGID_20_" x="0.001" y="-0.123" width="146.19" height="104.503"/>
						</defs>
						<defs>
							<rect id="SVGID_21_" x="0.001" y="-0.123" width="146.19" height="104.503"/>
						</defs>
						<defs>
							<rect id="SVGID_22_" x="0.001" y="-0.123" width="146.19" height="104.503"/>
						</defs>
						<defs>
							<rect id="SVGID_23_" x="0.001" y="-0.123" width="146.19" height="104.503"/>
						</defs>
						<defs>
							<rect id="SVGID_24_" x="0.001" y="-0.123" width="146.19" height="104.503"/>
						</defs>
						<defs>
							<rect id="SVGID_25_" x="0.001" y="-0.123" width="146.19" height="104.503"/>
						</defs>
						<defs>
							<rect id="SVGID_26_" x="0.001" y="-0.123" width="146.19" height="104.503"/>
						</defs>
						<defs>
							<rect id="SVGID_27_" x="0.001" y="-0.123" width="146.19" height="104.503"/>
						</defs>
						<defs>
							<rect id="SVGID_28_" x="0.001" y="-0.123" width="146.19" height="104.503"/>
						</defs>
						<defs>
							<rect id="SVGID_29_" x="0.001" y="-0.123" width="146.19" height="104.503"/>
						</defs>
						<defs>
							<rect id="SVGID_30_" x="0.001" y="-0.123" width="146.19" height="104.503"/>
						</defs>
						<defs>
							<rect id="SVGID_31_" x="0.001" y="-0.123" width="146.19" height="104.503"/>
						</defs>
						<defs>
							<rect id="SVGID_32_" x="0.001" y="-0.123" width="146.19" height="104.503"/>
						</defs>
						<defs>
							<rect id="SVGID_33_" x="0.001" y="-0.123" width="146.19" height="104.503"/>
						</defs>
						<defs>
							<rect id="SVGID_34_" x="0.001" y="-0.123" width="146.19" height="104.503"/>
						</defs>
						<defs>
							<rect id="SVGID_35_" x="0.001" y="-0.123" width="146.19" height="104.503"/>
						</defs>
						<defs>
							<rect id="SVGID_36_" x="0.001" y="-0.123" width="146.19" height="104.503"/>
						</defs>
						<defs>
							<rect id="SVGID_37_" x="0.001" y="-0.123" width="146.19" height="104.503"/>
						</defs>
						<defs>
							<rect id="SVGID_38_" x="0.001" y="-0.123" width="146.19" height="104.503"/>
						</defs>
						<defs>
							<rect id="SVGID_39_" x="0.001" y="-0.123" width="146.19" height="104.503"/>
						</defs>
						<defs>
							<rect id="SVGID_40_" x="0.001" y="-0.123" width="146.19" height="104.503"/>
						</defs>
						<defs>
							<rect id="SVGID_41_" x="0.001" y="-0.123" width="146.19" height="104.503"/>
						</defs>
						<defs>
							<rect id="SVGID_42_" x="0.001" y="-0.123" width="146.19" height="104.503"/>
						</defs>
						<defs>
							<rect id="SVGID_43_" x="0.001" y="-0.123" width="146.19" height="104.503"/>
						</defs>
						<defs>
							<rect id="SVGID_44_" x="0.001" y="-0.123" width="146.19" height="104.503"/>
						</defs>
						<defs>
							<rect id="SVGID_45_" x="0.001" y="-0.123" width="146.19" height="104.503"/>
						</defs>
						<defs>
							<rect id="SVGID_46_" x="0.001" y="-0.123" width="146.19" height="104.503"/>
						</defs>
						<defs>
							<rect id="SVGID_47_" x="0.001" y="-0.123" width="146.19" height="104.503"/>
						</defs>
						<defs>
							<rect id="SVGID_48_" x="0.001" y="-0.123" width="146.19" height="104.503"/>
						</defs>
						<defs>
							<rect id="SVGID_49_" x="0.001" y="-0.123" width="146.19" height="104.503"/>
						</defs>
						<defs>
							<rect id="SVGID_50_" x="0.001" y="-0.123" width="146.19" height="104.503"/>
						</defs>
						<defs>
							<rect id="SVGID_51_" x="0.001" y="-0.123" width="146.19" height="104.503"/>
						</defs>
						<defs>
							<rect id="SVGID_52_" x="0.001" y="-0.123" width="146.19" height="104.503"/>
						</defs>
						<defs>
							<rect id="SVGID_53_" x="0.001" y="-0.123" width="146.19" height="104.503"/>
						</defs>
						<defs>
							<rect id="SVGID_54_" x="0.001" y="-0.123" width="146.19" height="104.503"/>
						</defs>
						<defs>
							<rect id="SVGID_55_" x="0.001" y="-0.123" width="146.19" height="104.503"/>
						</defs>
						<defs>
							<rect id="SVGID_56_" x="0.001" y="-0.123" width="146.19" height="104.503"/>
						</defs>
						<defs>
							<rect id="SVGID_57_" x="0.001" y="-0.123" width="146.19" height="104.503"/>
						</defs>
						<defs>
							<rect id="SVGID_58_" x="0.001" y="-0.123" width="146.19" height="104.503"/>
						</defs>
						<defs>
							<rect id="SVGID_59_" x="0.001" y="-0.123" width="146.19" height="104.503"/>
						</defs>
						<clipPath id="SVGID_60_">
							<use xlink:href="#SVGID_11_"  overflow="visible"/>
						</clipPath>
						<clipPath id="SVGID_61_" clip-path="url(#SVGID_60_)">
							<use xlink:href="#SVGID_12_"  overflow="visible"/>
						</clipPath>
						<clipPath id="SVGID_62_" clip-path="url(#SVGID_61_)">
							<use xlink:href="#SVGID_13_"  overflow="visible"/>
						</clipPath>
						<clipPath id="SVGID_63_" clip-path="url(#SVGID_62_)">
							<use xlink:href="#SVGID_14_"  overflow="visible"/>
						</clipPath>
						<clipPath id="SVGID_64_" clip-path="url(#SVGID_63_)">
							<use xlink:href="#SVGID_15_"  overflow="visible"/>
						</clipPath>
						<clipPath id="SVGID_65_" clip-path="url(#SVGID_64_)">
							<use xlink:href="#SVGID_16_"  overflow="visible"/>
						</clipPath>
						<clipPath id="SVGID_66_" clip-path="url(#SVGID_65_)">
							<use xlink:href="#SVGID_17_"  overflow="visible"/>
						</clipPath>
						<clipPath id="SVGID_67_" clip-path="url(#SVGID_66_)">
							<use xlink:href="#SVGID_18_"  overflow="visible"/>
						</clipPath>
						<clipPath id="SVGID_68_" clip-path="url(#SVGID_67_)">
							<use xlink:href="#SVGID_19_"  overflow="visible"/>
						</clipPath>
						<clipPath id="SVGID_69_" clip-path="url(#SVGID_68_)">
							<use xlink:href="#SVGID_20_"  overflow="visible"/>
						</clipPath>
						<clipPath id="SVGID_70_" clip-path="url(#SVGID_69_)">
							<use xlink:href="#SVGID_21_"  overflow="visible"/>
						</clipPath>
						<clipPath id="SVGID_71_" clip-path="url(#SVGID_70_)">
							<use xlink:href="#SVGID_22_"  overflow="visible"/>
						</clipPath>
						<clipPath id="SVGID_72_" clip-path="url(#SVGID_71_)">
							<use xlink:href="#SVGID_23_"  overflow="visible"/>
						</clipPath>
						<clipPath id="SVGID_73_" clip-path="url(#SVGID_72_)">
							<use xlink:href="#SVGID_24_"  overflow="visible"/>
						</clipPath>
						<clipPath id="SVGID_74_" clip-path="url(#SVGID_73_)">
							<use xlink:href="#SVGID_25_"  overflow="visible"/>
						</clipPath>
						<clipPath id="SVGID_75_" clip-path="url(#SVGID_74_)">
							<use xlink:href="#SVGID_26_"  overflow="visible"/>
						</clipPath>
						<clipPath id="SVGID_76_" clip-path="url(#SVGID_75_)">
							<use xlink:href="#SVGID_27_"  overflow="visible"/>
						</clipPath>
						<clipPath id="SVGID_77_" clip-path="url(#SVGID_76_)">
							<use xlink:href="#SVGID_28_"  overflow="visible"/>
						</clipPath>
						<clipPath id="SVGID_78_" clip-path="url(#SVGID_77_)">
							<use xlink:href="#SVGID_29_"  overflow="visible"/>
						</clipPath>
						<clipPath id="SVGID_79_" clip-path="url(#SVGID_78_)">
							<use xlink:href="#SVGID_30_"  overflow="visible"/>
						</clipPath>
						<clipPath id="SVGID_80_" clip-path="url(#SVGID_79_)">
							<use xlink:href="#SVGID_31_"  overflow="visible"/>
						</clipPath>
						<clipPath id="SVGID_81_" clip-path="url(#SVGID_80_)">
							<use xlink:href="#SVGID_32_"  overflow="visible"/>
						</clipPath>
						<clipPath id="SVGID_82_" clip-path="url(#SVGID_81_)">
							<use xlink:href="#SVGID_33_"  overflow="visible"/>
						</clipPath>
						<clipPath id="SVGID_83_" clip-path="url(#SVGID_82_)">
							<use xlink:href="#SVGID_34_"  overflow="visible"/>
						</clipPath>
						<clipPath id="SVGID_84_" clip-path="url(#SVGID_83_)">
							<use xlink:href="#SVGID_35_"  overflow="visible"/>
						</clipPath>
						<clipPath id="SVGID_85_" clip-path="url(#SVGID_84_)">
							<use xlink:href="#SVGID_36_"  overflow="visible"/>
						</clipPath>
						<clipPath id="SVGID_86_" clip-path="url(#SVGID_85_)">
							<use xlink:href="#SVGID_37_"  overflow="visible"/>
						</clipPath>
						<clipPath id="SVGID_87_" clip-path="url(#SVGID_86_)">
							<use xlink:href="#SVGID_38_"  overflow="visible"/>
						</clipPath>
						<clipPath id="SVGID_88_" clip-path="url(#SVGID_87_)">
							<use xlink:href="#SVGID_39_"  overflow="visible"/>
						</clipPath>
						<clipPath id="SVGID_89_" clip-path="url(#SVGID_88_)">
							<use xlink:href="#SVGID_40_"  overflow="visible"/>
						</clipPath>
						<clipPath id="SVGID_90_" clip-path="url(#SVGID_89_)">
							<use xlink:href="#SVGID_41_"  overflow="visible"/>
						</clipPath>
						<clipPath id="SVGID_91_" clip-path="url(#SVGID_90_)">
							<use xlink:href="#SVGID_42_"  overflow="visible"/>
						</clipPath>
						<clipPath id="SVGID_92_" clip-path="url(#SVGID_91_)">
							<use xlink:href="#SVGID_43_"  overflow="visible"/>
						</clipPath>
						<clipPath id="SVGID_93_" clip-path="url(#SVGID_92_)">
							<use xlink:href="#SVGID_44_"  overflow="visible"/>
						</clipPath>
						<clipPath id="SVGID_94_" clip-path="url(#SVGID_93_)">
							<use xlink:href="#SVGID_45_"  overflow="visible"/>
						</clipPath>
						<clipPath id="SVGID_95_" clip-path="url(#SVGID_94_)">
							<use xlink:href="#SVGID_46_"  overflow="visible"/>
						</clipPath>
						<clipPath id="SVGID_96_" clip-path="url(#SVGID_95_)">
							<use xlink:href="#SVGID_47_"  overflow="visible"/>
						</clipPath>
						<clipPath id="SVGID_97_" clip-path="url(#SVGID_96_)">
							<use xlink:href="#SVGID_48_"  overflow="visible"/>
						</clipPath>
						<clipPath id="SVGID_98_" clip-path="url(#SVGID_97_)">
							<use xlink:href="#SVGID_49_"  overflow="visible"/>
						</clipPath>
						<clipPath id="SVGID_99_" clip-path="url(#SVGID_98_)">
							<use xlink:href="#SVGID_50_"  overflow="visible"/>
						</clipPath>
						<clipPath id="SVGID_100_" clip-path="url(#SVGID_99_)">
							<use xlink:href="#SVGID_51_"  overflow="visible"/>
						</clipPath>
						<clipPath id="SVGID_101_" clip-path="url(#SVGID_100_)">
							<use xlink:href="#SVGID_52_"  overflow="visible"/>
						</clipPath>
						<clipPath id="SVGID_102_" clip-path="url(#SVGID_101_)">
							<use xlink:href="#SVGID_53_"  overflow="visible"/>
						</clipPath>
						<clipPath id="SVGID_103_" clip-path="url(#SVGID_102_)">
							<use xlink:href="#SVGID_54_"  overflow="visible"/>
						</clipPath>
						<clipPath id="SVGID_104_" clip-path="url(#SVGID_103_)">
							<use xlink:href="#SVGID_55_"  overflow="visible"/>
						</clipPath>
						<clipPath id="SVGID_105_" clip-path="url(#SVGID_104_)">
							<use xlink:href="#SVGID_56_"  overflow="visible"/>
						</clipPath>
						<clipPath id="SVGID_106_" clip-path="url(#SVGID_105_)">
							<use xlink:href="#SVGID_57_"  overflow="visible"/>
						</clipPath>
						<clipPath id="SVGID_107_" clip-path="url(#SVGID_106_)">
							<use xlink:href="#SVGID_58_"  overflow="visible"/>
						</clipPath>
						<clipPath id="SVGID_108_" clip-path="url(#SVGID_107_)">
							<use xlink:href="#SVGID_59_"  overflow="visible"/>
						</clipPath>
						<path clip-path="url(#SVGID_108_)" fill="#C7001B" d="M76.192,39.761c-0.62,1.011-1.931,1.336-2.935,0.703
							c-0.051-0.034-0.119-0.068-0.162-0.103c-0.944,0.703-2.28,0.514-2.995-0.428c-0.025-0.051-0.077-0.12-0.109-0.171
							c-0.256,0.994,0.34,2.022,1.318,2.262c0.638,0.171,1.318-0.017,1.786-0.497c0.706,0.719,1.863,0.736,2.595,0.034
							C76.168,41.098,76.363,40.395,76.192,39.761"/>
						<path clip-path="url(#SVGID_108_)" fill="#C7001B" d="M76.968,42.587c4.117,5.655,2.901,13.586-2.706,17.75
							c-2.578,1.885-5.759,2.725-8.916,2.348c5.972,2.434,12.771-0.514,15.169-6.527C82.428,51.327,80.992,45.827,76.968,42.587"/>
						<path clip-path="url(#SVGID_108_)" fill="#C7001B" d="M69.209,42.587c-4.109,5.655-2.894,13.586,2.705,17.75
							c2.568,1.885,5.768,2.725,8.924,2.348c-5.98,2.434-12.778-0.514-15.177-6.527C63.747,51.327,65.192,45.827,69.209,42.587"/>
						<path clip-path="url(#SVGID_108_)" fill="#C7001B" d="M78.414,42.21c5.623,4.129,6.882,12.045,2.782,17.717
							c-0.204,0.273-0.426,0.564-0.639,0.805c4.851-2.621,6.646-8.721,4.024-13.604C83.289,44.696,81.051,42.914,78.414,42.21"/>
						<path clip-path="url(#SVGID_108_)" fill="#C7001B" d="M67.761,42.21c-5.623,4.129-6.874,12.045-2.772,17.717
							c0.195,0.273,0.417,0.564,0.646,0.805c-4.856-2.621-6.67-8.721-4.033-13.604C62.905,44.696,65.125,42.914,67.761,42.21"/>
						<path clip-path="url(#SVGID_108_)" fill="#FFFFFF" d="M0.324,36.625h0.664v-1.354h1.999v1.354h3.317v-2.039H4.313v0.686H5.64
							v0.685H3.65v-1.371H0.324V36.625z M1.66,36.625h0.664v-0.668H1.66V36.625z M0.324,33.9h8.644v-0.685H0.324V33.9z
							 M8.968,36.625H6.976v-2.039h2.654v-1.371h0.664v2.741h0.664v-2.741h0.664v2.741h0.672v-2.741h0.655v3.41H9.632v-1.354H7.64
							v0.685h1.327V36.625L8.968,36.625z"/>
						<path clip-path="url(#SVGID_108_)" fill="#FFFFFF" d="M13.622,36.625h0.672v-1.354h1.981v1.354h3.317v-2.039h-1.99v0.686
							h1.327v0.685h-1.991v-1.371h-3.316V36.625L13.622,36.625z M14.949,36.625h0.663v-0.668h-0.663V36.625z M13.622,33.9h8.635
							v-0.685h-8.635V33.9z M22.256,36.625h-1.999v-2.039h2.654v-1.371h0.672v2.741h0.672v-2.741h0.655v2.741h0.672v-2.741h0.664
							v3.41h-3.335v-1.354h-1.982v0.685h1.327V36.625z"/>
						<path clip-path="url(#SVGID_108_)" fill="#FFFFFF" d="M26.91,36.625h0.664v-1.354h1.989v1.354h3.327v-2.039h-1.991v0.686
							h1.327v0.685h-1.999v-1.371H26.91V36.625L26.91,36.625z M28.237,36.625H28.9v-0.668h-0.663V36.625z M26.91,33.9h8.644v-0.685
							H26.91V33.9z M35.552,36.625h-1.999v-2.039h2.654v-1.371h0.664v2.741h0.672v-2.741h0.672v2.741h0.655v-2.741h0.663v3.41
							h-3.326v-1.354h-1.991v0.685h1.335L35.552,36.625L35.552,36.625z"/>
						<path clip-path="url(#SVGID_108_)" fill="#FFFFFF" d="M40.199,36.625h0.662v-1.354h1.991v1.354h3.326v-2.039h-1.999v0.686
							h1.327v0.685h-1.991v-1.371h-3.316V36.625z M41.525,36.625h0.663v-0.668h-0.663V36.625z M40.199,33.9h8.635v-0.685h-8.635
							V33.9z M48.833,36.625h-1.999v-2.039h2.671v-1.371h0.664v2.741h0.655v-2.741h0.672v2.741h0.663v-2.741h0.664v3.41h-3.318
							v-1.354h-1.999v0.685h1.327V36.625L48.833,36.625z"/>
						<path clip-path="url(#SVGID_108_)" fill="#FFFFFF" d="M53.486,36.625h0.664v-1.354h1.99v1.354h3.327v-2.039h-1.999v0.686
							h1.335v0.685h-1.991v-1.371h-3.327L53.486,36.625L53.486,36.625z M54.823,36.625h0.654v-0.668h-0.654V36.625z M53.486,33.9
							h8.645v-0.685h-8.645V33.9z M62.13,36.625h-1.999v-2.039h2.663v-1.371h0.663v2.741h0.664v-2.741h0.663v2.741h0.664v-2.741
							h0.662v3.41h-3.316v-1.354h-2v0.685h1.335L62.13,36.625L62.13,36.625z"/>
						<path clip-path="url(#SVGID_108_)" fill="#FFFFFF" d="M66.775,36.625h0.663v-1.354h1.991v1.354h3.326v-2.039h-1.991v0.686
							h1.319v0.685h-1.982v-1.371h-3.326V36.625z M68.11,36.625h0.655v-0.668H68.11V36.625z M66.775,33.9h8.645v-0.685h-8.645V33.9z
							 M75.419,36.625h-1.991v-2.039h2.654v-1.371h0.664v2.741h0.663v-2.741h0.664v2.741h0.662v-2.741h0.664v3.41h-3.317v-1.354
							h-1.999v0.685h1.336V36.625L75.419,36.625z"/>
						<path clip-path="url(#SVGID_108_)" fill="#FFFFFF" d="M80.063,36.625h0.664v-1.354h1.999v1.354h3.318v-2.039h-1.991v0.686
							h1.336v0.685h-2.008v-1.371h-3.318V36.625z M81.391,36.625h0.672v-0.668h-0.672V36.625z M80.063,33.9h8.645v-0.685h-8.645
							V33.9z M88.707,36.625h-1.99v-2.039h2.654v-1.371h0.663v2.741h0.664v-2.741h0.662v2.741h0.673v-2.741h0.654v3.41h-3.316
							v-1.354h-1.982v0.685h1.318V36.625L88.707,36.625z"/>
						<path clip-path="url(#SVGID_108_)" fill="#FFFFFF" d="M93.36,36.625h0.655v-1.354h1.991v1.354h3.326v-2.039H97.35v0.686h1.327
							v0.685h-1.999v-1.371H93.36V36.625L93.36,36.625z M94.687,36.625h0.664v-0.668h-0.664V36.625z M93.36,33.9h8.652v-0.685H93.36
							V33.9z M102.012,36.625h-2.008v-2.039h2.654v-1.371h0.672v2.741h0.664v-2.741h0.654v2.741h0.673v-2.741h0.663v3.41h-3.326
							v-1.354h-1.99v0.685h1.344V36.625L102.012,36.625z"/>
						<path clip-path="url(#SVGID_108_)" fill="#FFFFFF" d="M106.649,36.625h0.664v-1.354h1.991v1.354h3.326v-2.039h-1.982v0.686
							h1.327v0.685h-2.008v-1.371h-3.318V36.625L106.649,36.625z M107.976,36.625h0.664v-0.668h-0.664V36.625z M106.649,33.9h8.636
							v-0.685h-8.636V33.9z M115.285,36.625h-1.99v-2.039h2.671v-1.371h0.646v2.741h0.682v-2.741h0.646v2.741h0.664v-2.741h0.682
							v3.41h-3.318v-1.354h-2.008v0.685h1.327L115.285,36.625L115.285,36.625z"/>
						<path clip-path="url(#SVGID_108_)" fill="#FFFFFF" d="M119.947,36.625h0.663v-1.354h1.99v1.354h3.318v-2.039h-1.991v0.686
							h1.327v0.685h-1.99v-1.371h-3.317V36.625z M121.273,36.625h0.664v-0.668h-0.664V36.625z M119.947,33.9h8.635v-0.685h-8.635
							V33.9z M128.582,36.625h-2v-2.039h2.663v-1.371h0.664v2.741h0.664v-2.741h0.664v2.741h0.663v-2.741h0.664v3.41h-3.317v-1.354
							h-1.991v0.685h1.327L128.582,36.625L128.582,36.625z"/>
						<path clip-path="url(#SVGID_108_)" fill="#FFFFFF" d="M133.226,36.625h0.682v-1.354h1.99v1.354h3.31v-2.039h-1.99v0.686h1.327
							v0.685h-1.991v-1.371h-3.326L133.226,36.625L133.226,36.625z M134.571,36.625h0.646v-0.668h-0.646V36.625z M133.226,33.9
							h8.635v-0.685h-8.635V33.9z M141.861,36.625h-1.99v-2.039h2.653v-1.371h0.682v2.741h0.646v-2.741h0.682v2.741h0.663v-2.741
							h0.663v3.41h-3.335v-1.354h-1.99v0.685h1.328L141.861,36.625L141.861,36.625z"/>
						<path clip-path="url(#SVGID_108_)" fill="#FFFFFF" d="M0.324,38.699h5.98v-1.371h-5.98V38.699z M6.976,38.699h5.973v-1.371
							H6.976V38.699z"/>
						<path clip-path="url(#SVGID_108_)" fill="#FFFFFF" d="M13.622,38.699h5.972v-1.371h-5.972V38.699z M20.257,38.699h5.989
							v-1.371h-5.989V38.699z"/>
						<path clip-path="url(#SVGID_108_)" fill="#FFFFFF" d="M26.91,38.699h5.98v-1.371h-5.98V38.699z M33.553,38.699h5.98v-1.371
							h-5.98V38.699z"/>
						<path clip-path="url(#SVGID_108_)" fill="#FFFFFF" d="M40.199,38.699h5.979v-1.371h-5.979V38.699z M46.834,38.699h5.989
							v-1.371h-5.989V38.699z"/>
						<path clip-path="url(#SVGID_108_)" fill="#FFFFFF" d="M53.486,38.699h5.981v-1.371h-5.981V38.699z M60.131,38.699h5.979
							v-1.371h-5.979V38.699z"/>
						<path clip-path="url(#SVGID_108_)" fill="#FFFFFF" d="M66.775,38.699h5.98v-1.371h-5.98V38.699z M73.427,38.699H79.4v-1.371
							h-5.973V38.699z"/>
						<path clip-path="url(#SVGID_108_)" fill="#FFFFFF" d="M80.063,38.699h5.981v-1.371h-5.981V38.699z M86.717,38.699h5.972
							v-1.371h-5.972V38.699z"/>
						<path clip-path="url(#SVGID_108_)" fill="#FFFFFF" d="M93.36,38.699h5.973v-1.371H93.36V38.699z M100.005,38.699h5.98v-1.371
							h-5.98V38.699z"/>
						<path clip-path="url(#SVGID_108_)" fill="#FFFFFF" d="M106.649,38.699h5.98v-1.371h-5.98V38.699z M113.294,38.699h5.989
							v-1.371h-5.989V38.699z"/>
						<path clip-path="url(#SVGID_108_)" fill="#FFFFFF" d="M119.947,38.699h5.973v-1.371h-5.973V38.699z M126.582,38.699h5.98
							v-1.371h-5.98V38.699z"/>
						<path clip-path="url(#SVGID_108_)" fill="#FFFFFF" d="M133.226,38.699h5.98v-1.371h-5.98V38.699z M139.872,38.699h5.988
							v-1.371h-5.988V38.699z"/>
						<path clip-path="url(#SVGID_108_)" fill="#FFFFFF" d="M0.324,71.287h0.664v-1.371h1.999v1.371h3.317V69.23H4.313v0.686H5.64
							v0.688H3.65v-1.371H0.324V71.287z M1.66,71.287h0.664v-0.686H1.66V71.287z M0.324,68.562h8.644v-0.686H0.324V68.562z
							 M8.968,71.287H6.976V69.23h2.654v-1.354h0.664v2.725h0.664v-2.725h0.664v2.725h0.672v-2.725h0.655v3.41H9.632v-1.371H7.64
							v0.686h1.327V71.287L8.968,71.287z"/>
						<path clip-path="url(#SVGID_108_)" fill="#FFFFFF" d="M13.622,71.287h0.672v-1.371h1.981v1.371h3.317V69.23h-1.99v0.686h1.327
							v0.688h-1.991v-1.371h-3.316V71.287L13.622,71.287z M14.949,71.287h0.663v-0.686h-0.663V71.287z M13.622,68.562h8.635v-0.686
							h-8.635V68.562z M22.256,71.287h-1.999V69.23h2.654v-1.354h0.672v2.725h0.672v-2.725h0.655v2.725h0.672v-2.725h0.664v3.41
							h-3.335v-1.371h-1.982v0.686h1.327V71.287z"/>
						<path clip-path="url(#SVGID_108_)" fill="#FFFFFF" d="M26.91,71.287h0.664v-1.371h1.989v1.371h3.327V69.23h-1.991v0.686h1.327
							v0.688h-1.999v-1.371H26.91V71.287L26.91,71.287z M28.237,71.287H28.9v-0.686h-0.663V71.287z M26.91,68.562h8.644v-0.686
							H26.91V68.562z M35.552,71.287h-1.999V69.23h2.654v-1.354h0.664v2.725h0.672v-2.725h0.672v2.725h0.655v-2.725h0.663v3.41
							h-3.326v-1.371h-1.991v0.686h1.335L35.552,71.287L35.552,71.287z"/>
						<path clip-path="url(#SVGID_108_)" fill="#FFFFFF" d="M40.199,71.287h0.662v-1.371h1.991v1.371h3.326V69.23h-1.999v0.686
							h1.327v0.688h-1.991v-1.371h-3.316V71.287z M41.525,71.287h0.663v-0.686h-0.663V71.287z M40.199,68.562h8.635v-0.686h-8.635
							V68.562z M48.833,71.287h-1.999V69.23h2.671v-1.354h0.664v2.725h0.655v-2.725h0.672v2.725h0.663v-2.725h0.664v3.41h-3.318
							v-1.371h-1.999v0.686h1.327V71.287L48.833,71.287z"/>
						<path clip-path="url(#SVGID_108_)" fill="#FFFFFF" d="M53.486,71.287h0.664v-1.371h1.99v1.371h3.327V69.23h-1.999v0.686h1.335
							v0.688h-1.991v-1.371h-3.327L53.486,71.287L53.486,71.287z M54.823,71.287h0.654v-0.686h-0.654V71.287z M53.486,68.562h8.645
							v-0.686h-8.645V68.562z M62.13,71.287h-1.999V69.23h2.663v-1.354h0.663v2.725h0.664v-2.725h0.663v2.725h0.664v-2.725h0.662
							v3.41h-3.316v-1.371h-2v0.686h1.335L62.13,71.287L62.13,71.287z"/>
						<path clip-path="url(#SVGID_108_)" fill="#FFFFFF" d="M66.775,71.287h0.663v-1.371h1.991v1.371h3.326V69.23h-1.991v0.686
							h1.319v0.688h-1.982v-1.371h-3.326V71.287z M68.11,71.287h0.655v-0.686H68.11V71.287z M66.775,68.562h8.645v-0.686h-8.645
							V68.562z M75.419,71.287h-1.991V69.23h2.654v-1.354h0.664v2.725h0.663v-2.725h0.664v2.725h0.662v-2.725h0.664v3.41h-3.317
							v-1.371h-1.999v0.686h1.336V71.287L75.419,71.287z"/>
						<path clip-path="url(#SVGID_108_)" fill="#FFFFFF" d="M80.063,71.287h0.664v-1.371h1.999v1.371h3.318V69.23h-1.991v0.686
							h1.336v0.688h-2.008v-1.371h-3.318V71.287z M81.391,71.287h0.672v-0.686h-0.672V71.287z M80.063,68.562h8.645v-0.686h-8.645
							V68.562z M88.707,71.287h-1.99V69.23h2.654v-1.354h0.663v2.725h0.664v-2.725h0.662v2.725h0.673v-2.725h0.654v3.41h-3.316
							v-1.371h-1.982v0.686h1.318V71.287L88.707,71.287z"/>
						<path clip-path="url(#SVGID_108_)" fill="#FFFFFF" d="M93.36,71.287h0.655v-1.371h1.991v1.371h3.326V69.23H97.35v0.686h1.327
							v0.688h-1.999v-1.371H93.36V71.287L93.36,71.287z M94.687,71.287h0.664v-0.686h-0.664V71.287z M93.36,68.562h8.652v-0.686
							H93.36V68.562z M102.012,71.287h-2.008V69.23h2.654v-1.354h0.672v2.725h0.664v-2.725h0.654v2.725h0.673v-2.725h0.663v3.41
							h-3.326v-1.371h-1.99v0.686h1.344V71.287L102.012,71.287z"/>
						<path clip-path="url(#SVGID_108_)" fill="#FFFFFF" d="M106.649,71.287h0.664v-1.371h1.991v1.371h3.326V69.23h-1.982v0.686
							h1.327v0.688h-2.008v-1.371h-3.318V71.287L106.649,71.287z M107.976,71.287h0.664v-0.686h-0.664V71.287z M106.649,68.562
							h8.636v-0.686h-8.636V68.562z M115.285,71.287h-1.99V69.23h2.671v-1.354h0.646v2.725h0.682v-2.725h0.646v2.725h0.664v-2.725
							h0.682v3.41h-3.318v-1.371h-2.008v0.686h1.327L115.285,71.287L115.285,71.287z"/>
						<path clip-path="url(#SVGID_108_)" fill="#FFFFFF" d="M119.947,71.287h0.663v-1.371h1.99v1.371h3.318V69.23h-1.991v0.686
							h1.327v0.688h-1.99v-1.371h-3.317V71.287z M121.273,71.287h0.664v-0.686h-0.664V71.287z M119.947,68.562h8.635v-0.686h-8.635
							V68.562z M128.582,71.287h-2V69.23h2.663v-1.354h0.664v2.725h0.664v-2.725h0.664v2.725h0.663v-2.725h0.664v3.41h-3.317v-1.371
							h-1.991v0.686h1.327L128.582,71.287L128.582,71.287z"/>
						<path clip-path="url(#SVGID_108_)" fill="#FFFFFF" d="M133.226,71.287h0.682v-1.371h1.99v1.371h3.31V69.23h-1.99v0.686h1.327
							v0.688h-1.991v-1.371h-3.326L133.226,71.287L133.226,71.287z M134.571,71.287h0.646v-0.686h-0.646V71.287z M133.226,68.562
							h8.635v-0.686h-8.635V68.562z M141.861,71.287h-1.99V69.23h2.653v-1.354h0.682v2.725h0.646v-2.725h0.682v2.725h0.663v-2.725
							h0.663v3.41h-3.335v-1.371h-1.99v0.686h1.328L141.861,71.287L141.861,71.287z"/>
						<path clip-path="url(#SVGID_108_)" fill="#FFFFFF" d="M0.324,67.191h5.98v-1.369h-5.98V67.191z M6.976,67.191h5.973v-1.369
							H6.976V67.191z"/>
						<path clip-path="url(#SVGID_108_)" fill="#FFFFFF" d="M13.622,67.191h5.972v-1.369h-5.972V67.191z M20.257,67.191h5.989
							v-1.369h-5.989V67.191z"/>
						<path clip-path="url(#SVGID_108_)" fill="#FFFFFF" d="M26.91,67.191h5.98v-1.369h-5.98V67.191z M33.553,67.191h5.98v-1.369
							h-5.98V67.191z"/>
						<path clip-path="url(#SVGID_108_)" fill="#FFFFFF" d="M40.199,67.191h5.979v-1.369h-5.979V67.191z M46.834,67.191h5.989
							v-1.369h-5.989V67.191z"/>
						<path clip-path="url(#SVGID_108_)" fill="#FFFFFF" d="M53.486,67.191h5.981v-1.369h-5.981V67.191z M60.131,67.191h5.979
							v-1.369h-5.979V67.191z"/>
						<path clip-path="url(#SVGID_108_)" fill="#FFFFFF" d="M66.775,67.191h5.98v-1.369h-5.98V67.191z M73.427,67.191H79.4v-1.369
							h-5.973V67.191z"/>
						<path clip-path="url(#SVGID_108_)" fill="#FFFFFF" d="M80.063,67.191h5.981v-1.369h-5.981V67.191z M86.717,67.191h5.972
							v-1.369h-5.972V67.191z"/>
						<path clip-path="url(#SVGID_108_)" fill="#FFFFFF" d="M93.36,67.191h5.973v-1.369H93.36V67.191z M100.005,67.191h5.98v-1.369
							h-5.98V67.191z"/>
						<path clip-path="url(#SVGID_108_)" fill="#FFFFFF" d="M106.649,67.191h5.98v-1.369h-5.98V67.191z M113.294,67.191h5.989
							v-1.369h-5.989V67.191z"/>
						<path clip-path="url(#SVGID_108_)" fill="#FFFFFF" d="M119.947,67.191h5.973v-1.369h-5.973V67.191z M126.582,67.191h5.98
							v-1.369h-5.98V67.191z"/>
						<path clip-path="url(#SVGID_108_)" fill="#FFFFFF" d="M133.226,67.191h5.98v-1.369h-5.98V67.191z M139.872,67.191h5.988
							v-1.369h-5.988V67.191z"/>
					</g>
				</g>
			</g>
		</g>
	</g>
</g>
<g>
	<path fill="#353535" d="M60.219,132.69c-0.3,0-0.45,0.025-0.675,0c-2.899-0.05-5.023-2.124-5.023-5.148v-10.997h3.124v10.922
		c0,1.5,0.699,2.3,2.274,2.3c1.574,0,2.199-0.8,2.199-2.3v-10.922h3.149v11.022C65.268,130.591,63.143,132.641,60.219,132.69z
		 M58.27,114.37v-3.124h3.149v3.124H58.27z"/>
	<path fill="#353535" d="M67.696,128.217v-16.196h3.124v16.196H67.696z"/>
	<path fill="#353535" d="M80.219,128.217c-0.425,0-2.074-0.1-2.85-0.75c0,2.675-1.774,5.349-5.523,5.224v-2.799
		c2.55,0,2.449-2.075,2.449-3.774c0-0.075,0-9.572,0-9.572h3.074c0,0,0,4.273,0.05,6.548c0,1.575,1.125,2.25,2.8,2.25h0.399v2.874
		H80.219z"/>
	<path fill="#353535" d="M78.771,133.266v-3.124h2.799v3.124H78.771z M80.22,128.217h-0.25v-2.874h0.25
		c2.1-0.05,2.774-0.8,2.774-2.25v-6.548h3.124v6.698C86.119,126.292,84.045,128.191,80.22,128.217z M82.795,133.266v-3.124h2.774
		v3.124H82.795z"/>
	<path fill="#353535" d="M88.546,128.217v-16.196h3.124v16.196H88.546z"/>
</g>
</svg>
