<?xml version="1.0" encoding="utf-8"?>
<!-- Generator: Adobe Illustrator 16.0.0, SVG Export Plug-In . SVG Version: 6.00 Build 0)  -->
<!DOCTYPE svg PUBLIC "-//W3C//DTD SVG 1.1//EN" "http://www.w3.org/Graphics/SVG/1.1/DTD/svg11.dtd">
<svg version="1.1" id="Layer_2" xmlns="http://www.w3.org/2000/svg" xmlns:xlink="http://www.w3.org/1999/xlink" x="0px" y="0px"
	 width="146.191px" height="139.796px" viewBox="0 0 146.191 139.796" enable-background="new 0 0 146.191 139.796"
	 xml:space="preserve">
<g>
	<g>
		<g id="JAPAN_2_">
			<g>
				<defs>
					<rect id="SVGID_1_" x="0.001" width="146.19" height="104.258"/>
				</defs>
				<clipPath id="SVGID_2_">
					<use xlink:href="#SVGID_1_"  overflow="visible"/>
				</clipPath>
				<rect x="0.001" clip-path="url(#SVGID_2_)" fill="#FFFFFF" width="146.19" height="104.258"/>
			</g>
			<g>
				<defs>
					<rect id="SVGID_3_" x="0.001" width="146.19" height="104.258"/>
				</defs>
				<clipPath id="SVGID_4_">
					<use xlink:href="#SVGID_3_"  overflow="visible"/>
				</clipPath>
				<g clip-path="url(#SVGID_4_)">
					<g>
						<defs>
							<rect id="SVGID_5_" x="0.001" width="146.19" height="104.258"/>
						</defs>
						<clipPath id="SVGID_6_">
							<use xlink:href="#SVGID_5_"  overflow="visible"/>
						</clipPath>
						<path clip-path="url(#SVGID_6_)" fill="#AD0018" d="M73.105,28.235c14.011,0,25.356,11.354,25.356,25.358
							c0,14.005-11.346,25.392-25.356,25.392c-14.012,0-25.375-11.387-25.375-25.392C47.73,39.589,59.094,28.235,73.105,28.235"/>
					</g>
				</g>
			</g>
		</g>
	</g>
</g>
<g>
	<path fill="#353535" d="M52.844,133.439c-0.3,0-0.45,0.025-0.675,0c-2.899-0.05-5.023-2.124-5.023-5.148v-10.997h3.124v10.922
		c0,1.5,0.7,2.3,2.274,2.3s2.199-0.8,2.199-2.3v-10.922h3.149v11.022C57.893,131.34,55.769,133.39,52.844,133.439z M50.895,115.119
		v-3.124h3.149v3.124H50.895z"/>
	<path fill="#353535" d="M60.321,123.842V112.77h3.124v10.997c0,1.525,0.699,2.325,2.85,2.325v2.874
		C62.37,128.966,60.321,127.017,60.321,123.842z"/>
	<path fill="#353535" d="M65.296,128.966v-2.874c2.149,0,3.149-0.775,3.149-2.25v-6.548h3.124v6.698
		C71.569,127.066,69.17,128.966,65.296,128.966z M67.62,134.015v-3.124h3.175v3.124H67.62z"/>
	<path fill="#353535" d="M73.996,123.842V112.77h3.124v10.997c0,1.525,0.7,2.325,2.85,2.325v2.874
		C76.045,128.966,73.996,127.017,73.996,123.842z"/>
	<path fill="#353535" d="M78.072,134.015v-3.124h2.774v3.124H78.072z M87.344,128.966c-1.55,0-2.8-0.45-3.774-1.225
		c-0.899,0.824-2.199,1.225-3.699,1.225h-0.899v-2.874h0.899c1.3,0,2.025-0.7,2.025-1.8v-6.974h3.148v7.049
		c0,1.05,0.75,1.725,2.3,1.725h0.899v2.874H87.344z M82.095,134.015v-3.124h2.774v3.124H82.095z"/>
	<path fill="#353535" d="M87.496,128.966v-2.874c2.149,0,3.149-0.8,3.149-2.274v-10.998h3.124v11.173
		C93.769,127.066,91.37,128.966,87.496,128.966z"/>
	<path fill="#353535" d="M96.196,128.966V112.77h3.124v16.196H96.196z"/>
</g>
</svg>
