<?xml version="1.0" encoding="utf-8"?>
<!-- Generator: Adobe Illustrator 16.0.0, SVG Export Plug-In . SVG Version: 6.00 Build 0)  -->
<!DOCTYPE svg PUBLIC "-//W3C//DTD SVG 1.1//EN" "http://www.w3.org/Graphics/SVG/1.1/DTD/svg11.dtd">
<svg version="1.1" id="Layer_2" xmlns="http://www.w3.org/2000/svg" xmlns:xlink="http://www.w3.org/1999/xlink" x="0px" y="0px"
	 width="146.191px" height="140.504px" viewBox="0 0 146.191 140.504" enable-background="new 0 0 146.191 140.504"
	 xml:space="preserve">
<rect x="0" fill="#0E4122" width="146.19" height="104.258"/>
<rect x="0" fill="#F8991D" width="73.096" height="40.545"/>
<g>
	<path fill="#FFFFFF" d="M95.419,17.516c0-4.952,2.34-9.358,5.977-12.173c-6.766,2.165-11.664,8.506-11.664,15.989
		c0,9.271,7.517,16.789,16.787,16.789c6.794,0,12.646-4.037,15.287-9.842c-2.794,2.855-6.688,4.627-10.998,4.627
		C102.309,32.904,95.419,26.015,95.419,17.516z"/>
	<polygon fill="#FFFFFF" points="113.344,15.26 113.726,19.307 115.796,15.808 119.763,16.694 117.074,13.645 119.143,10.145 
		115.413,11.761 112.723,8.711 113.106,12.758 109.376,14.373 	"/>
</g>
<rect x="0" y="53.98" fill="#FFFFFF" width="146.19" height="7"/>
<rect x="0" y="67.646" fill="#FFFFFF" width="146.19" height="7"/>
<rect x="0" y="79.98" fill="#FFFFFF" width="146.19" height="7"/>
<rect x="0" y="92.314" fill="#FFFFFF" width="146.19" height="7"/>
<g>
	<path fill="#353535" d="M47.544,130.342c-0.425,0-2.074-0.1-2.849-0.75c0,2.675-1.774,5.349-5.524,5.224v-2.799
		c2.549,0,2.45-2.075,2.45-3.774c0-0.075,0-9.572,0-9.572h3.074c0,0,0,4.273,0.05,6.548c0,1.575,1.125,2.25,2.799,2.25h0.4v2.874
		H47.544z"/>
	<path fill="#353535" d="M46.271,135.391v-3.124h2.774v3.124H46.271z M55.544,130.342c-1.55,0-2.8-0.45-3.774-1.225
		c-0.899,0.824-2.199,1.225-3.699,1.225h-0.899v-2.874h0.899c1.3,0,2.025-0.7,2.025-1.8v-6.974h3.148v7.049
		c0,1.05,0.75,1.725,2.3,1.725h0.899v2.874H55.544z M50.295,135.391v-3.124h2.774v3.124H50.295z"/>
	<path fill="#353535" d="M68.568,129.667c-0.85,1.774-2.425,2.799-4.624,2.799c-2.124-0.024-3.749-0.999-4.599-2.674
		c-0.775,0.375-1.725,0.55-2.75,0.55h-0.899v-2.874c1.225-0.075,2.699-0.05,2.824-1.55c0.2-3.624,2.074-5.948,5.424-5.948
		c3.475,0,5.323,2.674,5.323,5.948c0,1.05,0.75,1.55,2.3,1.55h0.899v2.874C71.168,130.342,69.743,130.267,68.568,129.667z
		 M63.944,122.619c-1.274,0-2.124,0.874-2.124,3.523c0,2.574,0.85,3.449,2.124,3.449s2.124-0.899,2.124-3.374
		C66.068,123.493,65.219,122.619,63.944,122.619z"/>
	<path fill="#353535" d="M71.695,130.342v-2.874h3.949v-8.798h3.05v8.798h4.049v-8.798h3.174v8.798h3.05v-8.798h3.099l0.025,8.798
		h2.899v2.874H71.695z M81.143,116.495v-3.124h2.499v3.124H81.143z M82.943,112.346v-2.724h2.549v2.724H82.943z M84.867,116.495
		v-3.124h2.524v3.124H84.867z"/>
	<path fill="#353535" d="M94.146,130.342v-2.874h9.897v-3.024c0-1.425-0.4-2.1-1.7-2.1H94.77v-3.899c0-2.599,2.1-4.249,5.124-4.249
		h4.924v2.875h-4.924c-1.449,0-2.1,0.649-2.1,1.425v0.949h4.674c3.175,0,4.699,1.75,4.699,4.924v5.974H94.146z"/>
</g>
</svg>
