<?xml version="1.0" encoding="utf-8"?>
<!-- Generator: Adobe Illustrator 16.0.0, SVG Export Plug-In . SVG Version: 6.00 Build 0)  -->
<!DOCTYPE svg PUBLIC "-//W3C//DTD SVG 1.1//EN" "http://www.w3.org/Graphics/SVG/1.1/DTD/svg11.dtd">
<svg version="1.1" id="Layer_2" xmlns="http://www.w3.org/2000/svg" xmlns:xlink="http://www.w3.org/1999/xlink" x="0px" y="0px"
	 width="146.191px" height="142.379px" viewBox="0 0 146.191 142.379" enable-background="new 0 0 146.191 142.379"
	 xml:space="preserve">
<rect x="0" fill="#FFFFFF" width="146.19" height="104.258"/>
<g>
	<g>
		<g id="NEPAL_2_">
			<g>
				<defs>
					<rect id="SVGID_1_" x="0" y="2.531" width="79.665" height="99.197"/>
				</defs>
				<clipPath id="SVGID_2_">
					<use xlink:href="#SVGID_1_"  overflow="visible"/>
				</clipPath>
				<path clip-path="url(#SVGID_2_)" fill="#22368F" d="M3.749,9.338l62.023,38.823H17.975l49.796,49.784H3.749V9.338z M0,2.531
					v99.197h76.835L27.049,51.921h51.804L0,2.531z"/>
			</g>
			<g>
				<defs>
					<rect id="SVGID_3_" x="0" y="2.531" width="79.665" height="99.197"/>
				</defs>
				<clipPath id="SVGID_4_">
					<use xlink:href="#SVGID_3_"  overflow="visible"/>
				</clipPath>
				<polygon clip-path="url(#SVGID_4_)" fill="#BC0030" points="1.88,5.935 1.88,99.848 72.294,99.848 22.517,50.042 72.294,50.042 
									"/>
			</g>
			<g>
				<defs>
					<rect id="SVGID_5_" x="0" y="2.531" width="79.665" height="99.197"/>
				</defs>
				<clipPath id="SVGID_6_">
					<use xlink:href="#SVGID_5_"  overflow="visible"/>
				</clipPath>
				<g clip-path="url(#SVGID_6_)">
					<g>
						<defs>
							<rect id="SVGID_7_" x="0" y="2.531" width="79.665" height="99.197"/>
						</defs>
						<defs>
							<rect id="SVGID_8_" x="0" y="2.531" width="79.665" height="99.197"/>
						</defs>
						<clipPath id="SVGID_9_">
							<use xlink:href="#SVGID_7_"  overflow="visible"/>
						</clipPath>
						<clipPath id="SVGID_10_" clip-path="url(#SVGID_9_)">
							<use xlink:href="#SVGID_8_"  overflow="visible"/>
						</clipPath>
						<path clip-path="url(#SVGID_10_)" fill="#FFFFFF" d="M19.48,47.527c7.757,0,14.029-6.292,14.029-14.009
							c-1.227,3.106-3.462,5.7-6.292,7.42l-1.197-0.91l2.354-1.781l-2.851-0.713l0,0l1.494-2.532L24.1,35.398l0.425-2.909
							l-2.542,1.503l0,0l-0.722-2.849l-1.781,2.354l-1.761-2.354l-0.723,2.849l0,0l-2.542-1.503l0.416,2.909l-2.919-0.396
							l1.504,2.532l0,0l-2.859,0.713l2.375,1.781l-1.217,0.91c-2.839-1.721-5.065-4.314-6.292-7.42
							C5.47,41.235,11.744,47.527,19.48,47.527"/>
						<polygon clip-path="url(#SVGID_10_)" fill="#FFFFFF" points="28.731,77.409 28.731,77.409 34.55,74.936 28.731,72.462 
							28.731,72.462 32.54,67.396 26.248,68.188 27.019,61.896 21.964,65.714 21.964,65.714 19.48,59.876 17.016,65.714 
							17.016,65.714 11.952,61.896 12.723,68.188 6.439,67.396 10.26,72.462 10.26,72.462 4.422,74.936 10.26,77.409 10.26,77.409 
							6.439,82.475 12.723,81.702 12.723,81.702 12.723,81.702 11.952,87.995 17.016,84.154 17.016,84.154 19.48,90.014 
							21.964,84.154 21.964,84.154 27.019,87.995 26.248,81.702 32.54,82.475 						"/>
					</g>
				</g>
			</g>
		</g>
	</g>
</g>
<g>
	<path fill="#353535" d="M57.817,135.347c-0.3,0-0.45,0.025-0.675,0c-2.899-0.05-5.023-2.124-5.023-5.148v-4.549h3.124v4.474
		c0,1.5,0.699,2.3,2.274,2.3c1.574,0,2.199-0.8,2.199-2.3v-15.396h3.149v15.497C62.866,133.247,60.741,135.297,57.817,135.347z"/>
	<path fill="#353535" d="M65.294,125.749v-11.072h3.124v10.997c0,1.525,0.7,2.325,2.85,2.325v2.874
		C67.343,130.873,65.294,128.924,65.294,125.749z"/>
	<path fill="#353535" d="M78.641,130.873c-1.55,0-2.799-0.45-3.774-1.225c-0.899,0.824-2.199,1.225-3.699,1.225h-0.899v-2.874h0.899
		c1.3,0,2.025-0.7,2.025-1.8v-6.998h3.148v7.073c0,1.05,0.75,1.725,2.3,1.725h0.899v2.874H78.641z M73.368,135.922v-3.124h3.149
		v3.124H73.368z"/>
	<path fill="#353535" d="M77.894,135.922v-3.124h2.774v3.124H77.894z M87.167,130.873c-1.55,0-2.799-0.45-3.774-1.225
		c-0.899,0.824-2.199,1.225-3.699,1.225h-0.899v-2.874h0.899c1.3,0,2.025-0.7,2.025-1.8v-6.974h3.148v7.049
		c0,1.05,0.75,1.725,2.3,1.725h0.899v2.874H87.167z M81.918,135.922v-3.124h2.774v3.124H81.918z"/>
	<path fill="#353535" d="M87.318,130.873v-2.874c2.149,0,3.149-0.775,3.149-2.25v-6.548h3.124v6.698
		C93.592,128.974,91.192,130.873,87.318,130.873z M90.442,117.026v-3.124h3.125v3.124H90.442z"/>
</g>
</svg>
