<?xml version="1.0" encoding="utf-8"?>
<!-- Generator: Adobe Illustrator 16.0.0, SVG Export Plug-In . SVG Version: 6.00 Build 0)  -->
<!DOCTYPE svg PUBLIC "-//W3C//DTD SVG 1.1//EN" "http://www.w3.org/Graphics/SVG/1.1/DTD/svg11.dtd">
<svg version="1.1" id="Layer_1" xmlns="http://www.w3.org/2000/svg" xmlns:xlink="http://www.w3.org/1999/xlink" x="0px" y="0px"
	 width="338.333px" height="136.666px" viewBox="0 0 338.333 136.666" enable-background="new 0 0 338.333 136.666"
	 xml:space="preserve">
<g>
	<path fill="#444647" d="M210.309,19.114c0,0.588-0.1,1.14-0.297,1.656c-0.198,0.516-0.52,0.963-0.964,1.341
		c-0.443,0.378-1.022,0.675-1.736,0.891c-0.714,0.216-1.593,0.324-2.638,0.324c-1.079,0-2.019-0.174-2.816-0.522
		s-1.458-0.831-1.98-1.449c-0.521-0.618-0.912-1.347-1.17-2.187s-0.387-1.752-0.387-2.736c0-0.06,0.003-0.183,0.009-0.369
		s0.021-0.345,0.045-0.477l1.98-0.648c-0.048,0.204-0.087,0.411-0.117,0.621s-0.045,0.363-0.045,0.459
		c0,0.876,0.096,1.665,0.288,2.367c0.191,0.702,0.477,1.302,0.854,1.8c0.378,0.498,0.85,0.879,1.413,1.143
		c0.564,0.264,1.225,0.396,1.98,0.396c2.52,0,3.78-0.81,3.78-2.43v-0.468c-0.061,0.061-0.133,0.129-0.217,0.207
		c-0.084,0.078-0.162,0.153-0.233,0.225c-0.133,0.024-0.259,0.039-0.378,0.045c-0.12,0.006-0.223,0.009-0.307,0.009
		c-0.479,0-0.954-0.072-1.422-0.216s-0.888-0.36-1.26-0.648s-0.672-0.651-0.9-1.089c-0.228-0.438-0.342-0.951-0.342-1.539
		c0-0.792,0.162-1.494,0.486-2.106s0.747-1.128,1.269-1.548c0.522-0.42,1.11-0.741,1.765-0.963c0.653-0.222,1.316-0.333,1.988-0.333
		c0.168,0,0.375,0.006,0.621,0.018c0.246,0.012,0.489,0.042,0.729,0.09V19.114z M204.783,7.792c0-0.264,0.09-0.486,0.271-0.666
		c0.18-0.18,0.401-0.27,0.666-0.27c0.264,0,0.488,0.09,0.675,0.27c0.186,0.18,0.278,0.402,0.278,0.666s-0.093,0.489-0.278,0.675
		c-0.187,0.186-0.411,0.279-0.675,0.279c-0.265,0-0.486-0.093-0.666-0.279C204.873,8.281,204.783,8.056,204.783,7.792z
		 M208.509,17.764v-5.22c-0.396,0.024-0.783,0.111-1.161,0.261c-0.378,0.15-0.718,0.354-1.018,0.612
		c-0.3,0.258-0.543,0.573-0.729,0.945c-0.187,0.372-0.279,0.78-0.279,1.224c0,0.408,0.072,0.75,0.216,1.026
		c0.145,0.276,0.342,0.501,0.594,0.675c0.253,0.174,0.543,0.297,0.873,0.369c0.33,0.072,0.682,0.108,1.054,0.108H208.509z
		 M207.015,7.792c0-0.264,0.09-0.486,0.27-0.666c0.18-0.18,0.402-0.27,0.666-0.27s0.489,0.09,0.675,0.27
		c0.187,0.18,0.279,0.402,0.279,0.666s-0.093,0.489-0.279,0.675c-0.186,0.186-0.411,0.279-0.675,0.279s-0.486-0.093-0.666-0.279
		S207.015,8.056,207.015,7.792z"/>
	<path fill="#444647" d="M212.973,19.276V6.55l1.8-0.648v11.862h2.034v1.512H212.973z"/>
	<path fill="#444647" d="M217.833,11.41c0.06-0.012,0.159-0.024,0.297-0.036s0.388-0.03,0.747-0.054
		c0.66-0.024,1.362,0.066,2.106,0.27c0.743,0.204,1.428,0.555,2.052,1.053s1.14,1.161,1.548,1.989s0.612,1.848,0.612,3.06v0.072
		h1.943v1.512h-10.728v-1.512h6.912c-0.024-0.804-0.147-1.503-0.369-2.097c-0.222-0.594-0.525-1.089-0.909-1.485
		s-0.834-0.699-1.35-0.909c-0.517-0.21-1.068-0.327-1.656-0.351l-0.27,0.99h-1.584L217.833,11.41z"/>
	<path fill="#444647" d="M226.455,17.764h1.332v-6.786c0.24-0.048,0.462-0.078,0.666-0.09c0.204-0.012,0.39-0.018,0.558-0.018
		c1.188,0,2.163,0.186,2.926,0.558c0.762,0.372,1.364,0.853,1.809,1.44c0.443,0.588,0.753,1.251,0.927,1.989
		c0.174,0.738,0.261,1.473,0.261,2.205c0,0.12,0,0.243,0,0.369s-0.006,0.237-0.018,0.333h2.106v1.512h-10.566V17.764z
		 M229.586,17.764h3.42c0.036-0.252,0.055-0.492,0.055-0.72c0-0.672-0.066-1.284-0.198-1.836c-0.133-0.552-0.336-1.026-0.612-1.422
		s-0.636-0.705-1.08-0.927c-0.444-0.222-0.972-0.339-1.584-0.351V17.764z"/>
	<path fill="#444647" d="M237.919,17.764V14.56l1.801-0.648v3.852h2.142V13.48l1.8-0.648v4.932h2.052V12.4l1.801-0.648v6.012h2.25
		v1.512h-13.32v-1.512H237.919z"/>
	<path fill="#444647" d="M250.575,6.55l1.8-0.648v13.374h-3.132v-1.512h1.332V6.55z"/>
	<path fill="#444647" d="M256.802,19.258h-1.8V6.532l1.8-0.648V19.258z"/>
	<path fill="#444647" d="M261.68,15.514c0-0.804,0.168-1.512,0.504-2.124c0.336-0.612,0.762-1.122,1.278-1.53
		c0.516-0.408,1.089-0.717,1.719-0.927s1.239-0.315,1.827-0.315c0.072,0,0.177,0.003,0.315,0.009
		c0.138,0.006,0.278,0.012,0.423,0.018c0.144,0.006,0.284,0.018,0.423,0.036c0.138,0.018,0.249,0.033,0.333,0.045v7.038h2.268v1.512
		h-5.094c-0.54,0-1.05-0.081-1.53-0.243c-0.479-0.162-0.902-0.402-1.269-0.72s-0.657-0.711-0.873-1.179
		C261.789,16.666,261.68,16.126,261.68,15.514z M263.57,15.46c0,0.372,0.063,0.702,0.189,0.99c0.126,0.288,0.297,0.528,0.513,0.72
		c0.217,0.192,0.471,0.339,0.766,0.441c0.294,0.102,0.608,0.153,0.944,0.153h0.721V12.22h-0.036c-0.252,0-0.556,0.057-0.909,0.171
		c-0.354,0.114-0.693,0.297-1.017,0.549c-0.324,0.252-0.601,0.585-0.828,0.999C263.684,14.353,263.57,14.86,263.57,15.46z
		 M264.075,8.206c0-0.264,0.09-0.489,0.27-0.675c0.18-0.186,0.402-0.279,0.666-0.279s0.489,0.093,0.675,0.279
		c0.187,0.187,0.279,0.411,0.279,0.675s-0.093,0.486-0.279,0.666c-0.186,0.18-0.411,0.27-0.675,0.27s-0.486-0.09-0.666-0.27
		C264.165,8.692,264.075,8.47,264.075,8.206z M266.306,8.206c0-0.264,0.09-0.489,0.271-0.675c0.18-0.186,0.401-0.279,0.666-0.279
		c0.264,0,0.488,0.093,0.675,0.279c0.186,0.187,0.279,0.411,0.279,0.675s-0.094,0.486-0.279,0.666
		c-0.187,0.18-0.411,0.27-0.675,0.27c-0.265,0-0.486-0.09-0.666-0.27C266.396,8.692,266.306,8.47,266.306,8.206z"/>
	<path fill="#444647" d="M272.624,12.4l1.801-0.648v6.012h2.394v1.512h-6.462v-1.512h2.268V12.4z M271.076,22.156
		c0-0.264,0.09-0.489,0.271-0.675c0.18-0.186,0.401-0.279,0.666-0.279c0.264,0,0.488,0.093,0.675,0.279
		c0.186,0.186,0.279,0.411,0.279,0.675s-0.094,0.486-0.279,0.666c-0.187,0.18-0.411,0.27-0.675,0.27c-0.265,0-0.486-0.09-0.666-0.27
		C271.166,22.642,271.076,22.42,271.076,22.156z M273.308,22.156c0-0.264,0.09-0.489,0.27-0.675
		c0.181-0.186,0.402-0.279,0.666-0.279s0.489,0.093,0.676,0.279c0.186,0.186,0.278,0.411,0.278,0.675s-0.093,0.486-0.278,0.666
		c-0.187,0.18-0.412,0.27-0.676,0.27s-0.485-0.09-0.666-0.27C273.398,22.642,273.308,22.42,273.308,22.156z"/>
	<path fill="#444647" d="M277.555,6.55l1.8-0.648v13.374h-3.132v-1.512h1.332V6.55z"/>
	<path fill="#444647" d="M282.11,19.276V6.55l1.8-0.648v11.862h2.034v1.512H282.11z"/>
	<path fill="#444647" d="M293.359,13.408h-1.548l-0.27-0.738c-0.36,0.036-0.75,0.096-1.17,0.18s-0.811,0.219-1.17,0.405
		c-0.36,0.186-0.663,0.444-0.909,0.774s-0.369,0.759-0.369,1.287c0,0.228,0.087,0.483,0.261,0.765
		c0.174,0.282,0.42,0.549,0.738,0.801c0.317,0.252,0.693,0.462,1.125,0.63c0.432,0.168,0.9,0.252,1.404,0.252h2.88v1.512h-8.784
		v-1.512h1.656c-0.312-0.312-0.562-0.678-0.747-1.098c-0.187-0.42-0.285-0.828-0.297-1.224c0.06-0.876,0.284-1.602,0.675-2.178
		c0.39-0.576,0.857-1.029,1.404-1.359c0.546-0.33,1.125-0.561,1.736-0.693c0.612-0.132,1.182-0.198,1.71-0.198
		c0.156,0,0.318,0.006,0.486,0.018c0.168,0.012,0.36,0.03,0.576,0.054L293.359,13.408z"/>
	<path fill="#444647" d="M308.101,12.4l1.8-0.648v6.012h2.214v1.512h-9.918c-0.984,0-1.806-0.213-2.466-0.639
		c-0.66-0.426-1.141-0.963-1.44-1.611v-3.438l1.801-0.648v3.474c0.239,0.528,0.597,0.885,1.07,1.071
		c0.475,0.186,1.119,0.279,1.936,0.279h5.004V12.4z M304.879,21.904c0-0.264,0.09-0.489,0.27-0.675
		c0.18-0.187,0.402-0.279,0.666-0.279s0.489,0.093,0.675,0.279c0.187,0.186,0.279,0.411,0.279,0.675
		c0,0.264-0.093,0.486-0.279,0.666c-0.186,0.18-0.411,0.27-0.675,0.27s-0.486-0.09-0.666-0.27S304.879,22.167,304.879,21.904z"/>
	<path fill="#444647" d="M313.086,11.41c0.06-0.012,0.159-0.024,0.297-0.036s0.388-0.03,0.747-0.054
		c0.66-0.024,1.362,0.066,2.106,0.27c0.743,0.204,1.428,0.555,2.052,1.053s1.14,1.161,1.548,1.989s0.612,1.848,0.612,3.06v0.072
		h1.943v1.512h-10.728v-1.512h6.912c-0.024-0.804-0.147-1.503-0.369-2.097c-0.222-0.594-0.525-1.089-0.909-1.485
		s-0.834-0.699-1.35-0.909c-0.517-0.21-1.068-0.327-1.656-0.351l-0.27,0.99h-1.584L313.086,11.41z"/>
	<path fill="#444647" d="M323.184,17.764V14.56l1.801-0.648v3.852h2.142V13.48l1.8-0.648v4.932h2.052V12.4l1.801-0.648v7.524h-11.07
		v-1.512H323.184z"/>
	<path fill="#FFFFFF" d="M7.255,42.676c0-0.78,0.162-1.464,0.486-2.052s0.738-1.08,1.242-1.476s1.059-0.696,1.665-0.9
		c0.605-0.204,1.197-0.306,1.772-0.306c0.072,0,0.168,0.003,0.288,0.009c0.12,0.006,0.246,0.012,0.378,0.018
		c0.132,0.006,0.258,0.015,0.378,0.027c0.12,0.012,0.217,0.024,0.288,0.036v7.056h2.269v1.188h-4.933
		c-0.516,0-1.005-0.078-1.467-0.234s-0.87-0.387-1.224-0.693c-0.354-0.306-0.633-0.684-0.837-1.134S7.255,43.252,7.255,42.676z
		 M8.822,42.622c0,0.396,0.065,0.75,0.198,1.062c0.132,0.312,0.314,0.57,0.549,0.774s0.507,0.36,0.819,0.468
		c0.312,0.108,0.647,0.162,1.008,0.162h0.882V39.22H12.08c-0.264,0-0.582,0.061-0.954,0.18c-0.372,0.12-0.729,0.312-1.07,0.576
		c-0.343,0.264-0.634,0.615-0.873,1.053C8.942,41.467,8.822,41.998,8.822,42.622z M10.009,35.368c0-0.216,0.075-0.402,0.226-0.558
		c0.149-0.156,0.333-0.234,0.549-0.234s0.402,0.079,0.558,0.234c0.156,0.156,0.234,0.342,0.234,0.558
		c0,0.216-0.078,0.399-0.234,0.549c-0.155,0.15-0.342,0.225-0.558,0.225s-0.399-0.075-0.549-0.225
		C10.084,35.767,10.009,35.584,10.009,35.368z M11.881,35.368c0-0.216,0.075-0.402,0.226-0.558c0.149-0.156,0.333-0.234,0.549-0.234
		s0.402,0.079,0.558,0.234c0.156,0.156,0.234,0.342,0.234,0.558c0,0.216-0.078,0.399-0.234,0.549
		c-0.155,0.15-0.342,0.225-0.558,0.225s-0.399-0.075-0.549-0.225C11.957,35.767,11.881,35.584,11.881,35.368z"/>
	<path fill="#FFFFFF" d="M18.614,39.67l1.476-0.54v7.146h-4.644v-1.188h3.168V39.67z M16.166,49.318
		c0-0.216,0.075-0.402,0.226-0.558c0.149-0.156,0.333-0.234,0.549-0.234s0.401,0.078,0.558,0.234s0.234,0.342,0.234,0.558
		s-0.078,0.399-0.234,0.549s-0.342,0.225-0.558,0.225s-0.399-0.075-0.549-0.225C16.241,49.717,16.166,49.534,16.166,49.318z
		 M18.038,49.318c0-0.216,0.075-0.402,0.226-0.558c0.149-0.156,0.333-0.234,0.549-0.234s0.401,0.078,0.558,0.234
		s0.234,0.342,0.234,0.558s-0.078,0.399-0.234,0.549s-0.342,0.225-0.558,0.225s-0.399-0.075-0.549-0.225
		C18.113,49.717,18.038,49.534,18.038,49.318z"/>
	<path fill="#FFFFFF" d="M23.67,39.67l1.477-0.54v5.958h2.105v1.188h-2.105v0.846c0,0.504-0.081,0.933-0.243,1.287
		s-0.381,0.642-0.657,0.864c-0.276,0.222-0.594,0.384-0.954,0.486c-0.359,0.102-0.737,0.153-1.134,0.153
		c-0.204,0-0.381-0.006-0.531-0.018c-0.149-0.012-0.374-0.042-0.675-0.09l0.198-1.26c0.072,0.024,0.183,0.045,0.333,0.063
		s0.273,0.027,0.369,0.027c0.624,0,1.083-0.132,1.377-0.396c0.294-0.264,0.44-0.75,0.44-1.458V39.67z"/>
	<path fill="#FFFFFF" d="M30.042,39.67l1.476-0.54v7.146h-4.644v-1.188h3.168V39.67z M27.594,49.318
		c0-0.216,0.075-0.402,0.226-0.558c0.149-0.156,0.333-0.234,0.549-0.234s0.401,0.078,0.558,0.234s0.234,0.342,0.234,0.558
		s-0.078,0.399-0.234,0.549s-0.342,0.225-0.558,0.225s-0.399-0.075-0.549-0.225C27.669,49.717,27.594,49.534,27.594,49.318z
		 M29.466,49.318c0-0.216,0.075-0.402,0.226-0.558c0.149-0.156,0.333-0.234,0.549-0.234s0.401,0.078,0.558,0.234
		s0.234,0.342,0.234,0.558s-0.078,0.399-0.234,0.549s-0.342,0.225-0.558,0.225s-0.399-0.075-0.549-0.225
		C29.542,49.717,29.466,49.534,29.466,49.318z"/>
	<path fill="#FFFFFF" d="M35.1,39.67l1.477-0.54v5.958h2.105v1.188h-2.105v0.846c0,0.504-0.081,0.933-0.243,1.287
		s-0.381,0.642-0.657,0.864c-0.276,0.222-0.594,0.384-0.954,0.486c-0.359,0.102-0.737,0.153-1.134,0.153
		c-0.204,0-0.381-0.006-0.531-0.018c-0.149-0.012-0.374-0.042-0.675-0.09l0.198-1.26c0.072,0.024,0.183,0.045,0.333,0.063
		s0.273,0.027,0.369,0.027c0.624,0,1.083-0.132,1.377-0.396c0.294-0.264,0.44-0.75,0.44-1.458V39.67z"/>
	<path fill="#FFFFFF" d="M39.654,38.716c0.084-0.024,0.184-0.036,0.298-0.036c0.113,0,0.219-0.006,0.314-0.018
		c0.12,0,0.234-0.006,0.342-0.018c0.648,0,1.332,0.102,2.053,0.306c0.72,0.205,1.383,0.546,1.988,1.026
		c0.606,0.48,1.11,1.116,1.513,1.908c0.401,0.792,0.603,1.782,0.603,2.97c0,0.24-0.012,0.477-0.036,0.711s-0.06,0.471-0.107,0.711
		h-8.316v-1.188h6.912c0-0.876-0.12-1.632-0.36-2.268c-0.24-0.636-0.566-1.167-0.98-1.593s-0.9-0.744-1.458-0.954
		c-0.559-0.21-1.155-0.327-1.791-0.351l-0.271,0.99h-1.224L39.654,38.716z"/>
	<path fill="#FFFFFF" d="M52.146,42.838c0-0.684,0.145-1.308,0.432-1.872c0.288-0.564,0.676-1.053,1.161-1.467
		c0.486-0.414,1.05-0.735,1.692-0.963c0.642-0.228,1.316-0.342,2.025-0.342c0.144,0,0.297,0.009,0.459,0.027
		c0.161,0.018,0.326,0.039,0.494,0.063v8.442c0,0.563-0.084,1.044-0.252,1.44s-0.39,0.72-0.666,0.972
		c-0.275,0.252-0.6,0.435-0.972,0.549c-0.372,0.114-0.756,0.171-1.152,0.171c-0.288,0-0.521-0.012-0.701-0.036
		c-0.181-0.024-0.349-0.054-0.505-0.09l0.198-1.206c0.276,0.06,0.516,0.09,0.72,0.09c0.372,0,0.679-0.051,0.919-0.153
		c0.239-0.102,0.429-0.255,0.566-0.459s0.234-0.45,0.288-0.738c0.054-0.288,0.081-0.625,0.081-1.008l-1.098,0.018
		c-0.408,0-0.831-0.069-1.27-0.207c-0.438-0.138-0.837-0.345-1.197-0.621c-0.359-0.276-0.653-0.63-0.882-1.062
		C52.26,43.954,52.146,43.438,52.146,42.838z M53.694,42.702c0,0.407,0.072,0.756,0.216,1.049c0.145,0.293,0.339,0.539,0.585,0.736
		s0.525,0.344,0.838,0.439c0.312,0.096,0.636,0.144,0.972,0.144h0.63v-5.526c-0.36,0-0.732,0.075-1.116,0.225
		c-0.384,0.149-0.731,0.361-1.044,0.637c-0.312,0.275-0.57,0.607-0.773,0.996C53.795,41.79,53.694,42.223,53.694,42.702z"/>
	<path fill="#FFFFFF" d="M63.45,29.284h-0.827l-0.019-0.144c-0.132,0.012-0.272,0.033-0.423,0.063
		c-0.15,0.03-0.288,0.081-0.414,0.152s-0.228,0.167-0.306,0.285s-0.117,0.267-0.117,0.445c0,0.083,0.033,0.175,0.099,0.276
		c0.066,0.101,0.156,0.196,0.271,0.285c0.113,0.089,0.252,0.167,0.414,0.231c0.162,0.065,0.339,0.098,0.53,0.098h0.99v0.774H60.21
		v-0.774h0.558c-0.096-0.132-0.171-0.273-0.225-0.423c-0.055-0.15-0.081-0.291-0.081-0.423c0.023-0.372,0.117-0.678,0.278-0.918
		c0.162-0.24,0.354-0.429,0.576-0.567c0.223-0.138,0.462-0.234,0.721-0.288c0.258-0.054,0.494-0.081,0.711-0.081
		c0.023,0,0.065,0.003,0.126,0.009c0.06,0.006,0.186,0.009,0.378,0.009L63.45,29.284z M63.45,29.284h-0.827l-0.019-0.144
		c-0.132,0.012-0.272,0.033-0.423,0.063c-0.15,0.03-0.288,0.081-0.414,0.152s-0.228,0.167-0.306,0.285s-0.117,0.267-0.117,0.445
		c0,0.083,0.033,0.175,0.099,0.276c0.066,0.101,0.156,0.196,0.271,0.285c0.113,0.089,0.252,0.167,0.414,0.231
		c0.162,0.065,0.339,0.098,0.53,0.098h0.99v0.774H60.21v-0.774h0.558c-0.096-0.132-0.171-0.273-0.225-0.423
		c-0.055-0.15-0.081-0.291-0.081-0.423c0.023-0.372,0.117-0.678,0.278-0.918c0.162-0.24,0.354-0.429,0.576-0.567
		c0.223-0.138,0.462-0.234,0.721-0.288c0.258-0.054,0.494-0.081,0.711-0.081c0.023,0,0.065,0.003,0.126,0.009
		c0.06,0.006,0.186,0.009,0.378,0.009L63.45,29.284z M62.892,46.276h-1.476V33.82l1.476-0.54V46.276z"/>
	<path fill="#FFFFFF" d="M67.734,42.676c0-0.78,0.162-1.464,0.486-2.052s0.738-1.08,1.242-1.476s1.059-0.696,1.665-0.9
		c0.605-0.204,1.197-0.306,1.772-0.306c0.072,0,0.168,0.003,0.288,0.009c0.12,0.006,0.246,0.012,0.378,0.018
		c0.132,0.006,0.258,0.015,0.378,0.027c0.12,0.012,0.217,0.024,0.288,0.036v7.056H76.5v1.188h-4.933
		c-0.516,0-1.005-0.078-1.467-0.234s-0.87-0.387-1.224-0.693c-0.354-0.306-0.633-0.684-0.837-1.134S67.734,43.252,67.734,42.676z
		 M69.3,42.622c0,0.396,0.065,0.75,0.198,1.062c0.132,0.312,0.314,0.57,0.549,0.774s0.507,0.36,0.819,0.468
		c0.312,0.108,0.647,0.162,1.008,0.162h0.882V39.22h-0.198c-0.264,0-0.582,0.061-0.954,0.18c-0.372,0.12-0.729,0.312-1.07,0.576
		c-0.343,0.264-0.634,0.615-0.873,1.053C69.42,41.467,69.3,41.998,69.3,42.622z M70.488,35.368c0-0.216,0.075-0.402,0.226-0.558
		c0.149-0.156,0.333-0.234,0.549-0.234s0.402,0.079,0.558,0.234c0.156,0.156,0.234,0.342,0.234,0.558
		c0,0.216-0.078,0.399-0.234,0.549c-0.155,0.15-0.342,0.225-0.558,0.225s-0.399-0.075-0.549-0.225
		C70.563,35.767,70.488,35.584,70.488,35.368z M72.36,35.368c0-0.216,0.075-0.402,0.226-0.558c0.149-0.156,0.333-0.234,0.549-0.234
		s0.402,0.079,0.558,0.234c0.156,0.156,0.234,0.342,0.234,0.558c0,0.216-0.078,0.399-0.234,0.549
		c-0.155,0.15-0.342,0.225-0.558,0.225s-0.399-0.075-0.549-0.225C72.435,35.767,72.36,35.584,72.36,35.368z"/>
	<path fill="#FFFFFF" d="M79.091,39.67l1.476-0.54v7.146h-4.644v-1.188h3.168V39.67z M76.643,49.318
		c0-0.216,0.075-0.402,0.226-0.558c0.149-0.156,0.333-0.234,0.549-0.234s0.401,0.078,0.558,0.234s0.234,0.342,0.234,0.558
		s-0.078,0.399-0.234,0.549s-0.342,0.225-0.558,0.225s-0.399-0.075-0.549-0.225C76.718,49.717,76.643,49.534,76.643,49.318z
		 M78.515,49.318c0-0.216,0.075-0.402,0.226-0.558c0.149-0.156,0.333-0.234,0.549-0.234s0.401,0.078,0.558,0.234
		s0.234,0.342,0.234,0.558s-0.078,0.399-0.234,0.549s-0.342,0.225-0.558,0.225s-0.399-0.075-0.549-0.225
		C78.59,49.717,78.515,49.534,78.515,49.318z"/>
	<path fill="#FFFFFF" d="M84.149,39.67l1.477-0.54v5.958h2.105v1.188h-2.105v0.846c0,0.504-0.081,0.933-0.243,1.287
		s-0.381,0.642-0.657,0.864c-0.276,0.222-0.594,0.384-0.954,0.486c-0.359,0.102-0.737,0.153-1.134,0.153
		c-0.204,0-0.381-0.006-0.531-0.018c-0.149-0.012-0.374-0.042-0.675-0.09l0.198-1.26c0.072,0.024,0.183,0.045,0.333,0.063
		s0.273,0.027,0.369,0.027c0.624,0,1.083-0.132,1.377-0.396c0.294-0.264,0.44-0.75,0.44-1.458V39.67z"/>
	<path fill="#FFFFFF" d="M87.353,45.088h3.798c-0.024-0.036-0.09-0.138-0.198-0.306c-0.107-0.168-0.242-0.372-0.404-0.612
		c-0.162-0.24-0.34-0.504-0.531-0.792c-0.192-0.288-0.381-0.567-0.567-0.837c-0.186-0.27-0.359-0.522-0.521-0.756
		c-0.162-0.234-0.297-0.423-0.405-0.567c-0.012-0.012-0.042-0.003-0.09,0.027c-0.048,0.03-0.099,0.069-0.153,0.117
		c-0.054,0.048-0.102,0.09-0.144,0.126s-0.063,0.048-0.063,0.036l-0.594-0.936c0.3-0.3,0.642-0.591,1.026-0.873
		c0.384-0.282,0.792-0.531,1.224-0.747c0.432-0.216,0.885-0.387,1.359-0.513c0.474-0.126,0.956-0.189,1.448-0.189
		c0.528,0,1.035,0.069,1.521,0.207c0.486,0.138,0.915,0.327,1.287,0.567s0.669,0.534,0.891,0.882s0.333,0.726,0.333,1.134
		c0,0.432-0.087,0.84-0.261,1.224c-0.174,0.384-0.391,0.744-0.648,1.08s-0.537,0.648-0.837,0.936s-0.582,0.552-0.846,0.792h4.374
		v1.188H87.353V45.088z M92.501,44.764c0.144-0.108,0.356-0.293,0.639-0.558c0.281-0.264,0.563-0.561,0.846-0.891
		s0.525-0.672,0.729-1.026c0.203-0.354,0.306-0.669,0.306-0.945c0-0.324-0.078-0.6-0.234-0.828
		c-0.155-0.228-0.356-0.414-0.603-0.558s-0.522-0.249-0.828-0.315s-0.603-0.099-0.891-0.099c-0.204,0-0.427,0.021-0.666,0.063
		c-0.24,0.042-0.486,0.102-0.738,0.18s-0.495,0.174-0.729,0.288c-0.233,0.114-0.446,0.243-0.639,0.387L92.501,44.764z"/>
	<path fill="#FFFFFF" d="M99.161,45.088V39.67l1.477-0.54v5.958h2.466V39.67l1.476-0.54v5.958h2.376V39.67l1.477-0.54v7.146H97.685
		v-1.188H99.161z M102.239,36.52c0-0.216,0.075-0.402,0.226-0.558c0.149-0.156,0.333-0.234,0.549-0.234s0.401,0.078,0.558,0.234
		c0.156,0.156,0.234,0.342,0.234,0.558c0,0.216-0.078,0.399-0.234,0.549c-0.156,0.15-0.342,0.225-0.558,0.225
		s-0.399-0.075-0.549-0.225C102.314,36.919,102.239,36.736,102.239,36.52z M103.103,34.936c0-0.216,0.075-0.402,0.225-0.558
		c0.15-0.156,0.333-0.234,0.55-0.234c0.216,0,0.401,0.078,0.558,0.234c0.156,0.156,0.234,0.342,0.234,0.558
		c0,0.216-0.078,0.399-0.234,0.549c-0.156,0.15-0.342,0.225-0.558,0.225c-0.217,0-0.399-0.075-0.55-0.225
		C103.178,35.335,103.103,35.152,103.103,34.936z M104.111,36.52c0-0.216,0.075-0.402,0.226-0.558
		c0.149-0.156,0.333-0.234,0.549-0.234s0.401,0.078,0.558,0.234c0.156,0.156,0.234,0.342,0.234,0.558
		c0,0.216-0.078,0.399-0.234,0.549c-0.156,0.15-0.342,0.225-0.558,0.225s-0.399-0.075-0.549-0.225
		C104.186,36.919,104.111,36.736,104.111,36.52z"/>
	<path fill="#FFFFFF" d="M118.241,46.276c-0.937,0.024-1.659,0.262-2.169,0.713c-0.511,0.451-0.766,1.116-0.766,1.995
		c0,0.458,0.105,0.905,0.315,1.345c0.21,0.439,0.501,0.83,0.873,1.173c0.372,0.343,0.819,0.616,1.341,0.821
		c0.522,0.204,1.101,0.307,1.737,0.307c0.06,0,0.2,0,0.423,0c0.222,0,0.486-0.003,0.792-0.009c0.306-0.006,0.636-0.009,0.99-0.009
		c0.354,0,0.684-0.003,0.99-0.009c0.306-0.006,0.569-0.012,0.792-0.018c0.222-0.006,0.362-0.015,0.423-0.027l-0.343,1.206
		c-0.048,0-0.18,0.003-0.396,0.009c-0.216,0.006-0.471,0.012-0.765,0.018c-0.295,0.006-0.615,0.012-0.964,0.018
		c-0.348,0.006-0.675,0.009-0.98,0.009s-0.579,0-0.819,0s-0.402,0-0.485,0c-0.78,0-1.503-0.135-2.169-0.405
		s-1.242-0.633-1.729-1.089s-0.87-0.975-1.152-1.557c-0.281-0.583-0.423-1.191-0.423-1.827c0-0.504,0.075-0.951,0.226-1.341
		c0.149-0.39,0.351-0.735,0.603-1.035s0.537-0.549,0.855-0.747c0.317-0.198,0.65-0.357,0.999-0.477l0.107-0.072l-0.107-0.18
		c-0.024-0.036-0.09-0.138-0.198-0.306c-0.108-0.168-0.243-0.372-0.405-0.612c-0.162-0.24-0.339-0.504-0.531-0.792
		c-0.191-0.288-0.381-0.567-0.566-0.837c-0.187-0.27-0.36-0.522-0.522-0.756c-0.162-0.234-0.297-0.423-0.404-0.567
		c-0.013-0.012-0.043-0.003-0.091,0.027c-0.048,0.03-0.099,0.069-0.152,0.117c-0.055,0.048-0.102,0.09-0.145,0.126
		c-0.042,0.036-0.062,0.048-0.062,0.036l-0.594-0.936c0.3-0.3,0.642-0.591,1.025-0.873c0.384-0.282,0.792-0.531,1.225-0.747
		c0.432-0.216,0.885-0.387,1.358-0.513s0.957-0.189,1.449-0.189c0.528,0,1.035,0.069,1.521,0.207
		c0.486,0.138,0.915,0.327,1.287,0.567s0.669,0.534,0.892,0.882c0.222,0.348,0.333,0.726,0.333,1.134
		c0,0.432-0.088,0.84-0.262,1.224c-0.174,0.384-0.39,0.744-0.647,1.08c-0.259,0.336-0.537,0.648-0.837,0.936
		c-0.301,0.288-0.582,0.552-0.847,0.792h4.374v1.188H118.241z M117.791,44.764c0.145-0.108,0.357-0.293,0.639-0.558
		c0.282-0.264,0.564-0.561,0.847-0.891c0.281-0.33,0.524-0.672,0.729-1.026s0.307-0.669,0.307-0.945c0-0.324-0.079-0.6-0.234-0.828
		c-0.156-0.228-0.357-0.414-0.604-0.558s-0.521-0.249-0.827-0.315c-0.307-0.066-0.604-0.099-0.892-0.099
		c-0.204,0-0.426,0.021-0.666,0.063s-0.485,0.102-0.737,0.18c-0.253,0.078-0.495,0.174-0.729,0.288
		c-0.234,0.114-0.447,0.243-0.639,0.387L117.791,44.764z"/>
	<path fill="#FFFFFF" d="M122.957,45.088h1.278V33.82l1.476-0.54v9.126c0.252-0.456,0.567-0.918,0.945-1.386
		c0.378-0.468,0.804-0.894,1.277-1.278c0.475-0.384,0.99-0.696,1.549-0.936c0.558-0.24,1.148-0.36,1.772-0.36
		c0.708,0,1.312,0.144,1.81,0.432c0.497,0.288,0.902,0.666,1.215,1.134c0.312,0.468,0.537,1.002,0.675,1.602
		c0.138,0.6,0.207,1.206,0.207,1.818c0,0.349-0.027,0.669-0.081,0.963s-0.105,0.525-0.153,0.693h2.214v1.188h-14.184V45.088z
		 M133.397,45.088c0.048-0.132,0.096-0.345,0.144-0.639c0.048-0.294,0.072-0.633,0.072-1.017c0-0.408-0.036-0.831-0.108-1.269
		s-0.201-0.837-0.387-1.197c-0.187-0.36-0.441-0.657-0.765-0.891c-0.324-0.234-0.732-0.351-1.225-0.351
		c-0.456,0-0.897,0.096-1.323,0.288c-0.426,0.192-0.834,0.441-1.224,0.747s-0.75,0.651-1.08,1.035
		c-0.33,0.384-0.621,0.774-0.873,1.17s-0.456,0.78-0.612,1.152c-0.155,0.372-0.252,0.696-0.287,0.972H133.397z"/>
	<path fill="#FFFFFF" d="M136.817,45.088h2.214c-0.36-0.288-0.639-0.648-0.837-1.08s-0.297-0.864-0.297-1.296
		c0-0.648,0.141-1.248,0.423-1.8c0.282-0.552,0.663-1.029,1.144-1.431c0.479-0.402,1.044-0.717,1.691-0.945
		c0.648-0.228,1.332-0.342,2.052-0.342c0.252,0,0.511,0.012,0.774,0.036s0.462,0.06,0.594,0.108v7.938h-7.758V45.088z
		 M143.099,39.544c-0.024-0.012-0.069-0.021-0.135-0.027c-0.066-0.006-0.124-0.009-0.172-0.009c-0.384,0-0.773,0.072-1.17,0.216
		c-0.396,0.144-0.756,0.351-1.08,0.621c-0.323,0.27-0.588,0.6-0.792,0.99s-0.306,0.831-0.306,1.323c0,0.372,0.065,0.708,0.198,1.008
		c0.132,0.3,0.312,0.555,0.54,0.765c0.228,0.21,0.495,0.372,0.801,0.486s0.633,0.171,0.981,0.171h1.134V39.544z M140.777,34.954
		c0-0.216,0.075-0.399,0.225-0.549c0.15-0.15,0.333-0.225,0.55-0.225c0.216,0,0.401,0.075,0.558,0.225
		c0.156,0.15,0.234,0.333,0.234,0.549c0,0.216-0.078,0.402-0.234,0.558c-0.156,0.156-0.342,0.234-0.558,0.234
		c-0.217,0-0.399-0.078-0.55-0.234C140.852,35.356,140.777,35.17,140.777,34.954z M142.649,34.954c0-0.216,0.075-0.399,0.225-0.549
		c0.15-0.15,0.333-0.225,0.55-0.225c0.216,0,0.401,0.075,0.558,0.225c0.155,0.15,0.234,0.333,0.234,0.549
		c0,0.216-0.079,0.402-0.234,0.558c-0.156,0.156-0.342,0.234-0.558,0.234c-0.217,0-0.399-0.078-0.55-0.234
		C142.724,35.356,142.649,35.17,142.649,34.954z"/>
	<path fill="#FFFFFF" d="M159.802,45.088h2.214v1.188h-2.358c-0.096,0.408-0.255,0.81-0.477,1.206
		c-0.223,0.396-0.52,0.747-0.892,1.053c-0.372,0.306-0.821,0.555-1.35,0.747s-1.146,0.288-1.854,0.288
		c-0.684,0-1.322-0.12-1.917-0.36c-0.594-0.24-1.106-0.594-1.539-1.062c-0.432-0.468-0.771-1.041-1.017-1.719
		c-0.246-0.678-0.369-1.455-0.369-2.331c0-0.083,0.003-0.183,0.009-0.297c0.006-0.114,0.013-0.225,0.019-0.333
		s0.012-0.204,0.018-0.288c0.006-0.083,0.01-0.144,0.01-0.18c0.06-0.024,0.167-0.063,0.323-0.117
		c0.156-0.054,0.324-0.111,0.504-0.171c0.181-0.06,0.345-0.117,0.495-0.171c0.15-0.054,0.243-0.087,0.279-0.099
		c-0.024,0.084-0.048,0.258-0.072,0.522c-0.024,0.264-0.036,0.498-0.036,0.702c0,1.572,0.282,2.736,0.847,3.492
		c0.563,0.756,1.428,1.134,2.592,1.134c0.996,0,1.761-0.306,2.295-0.918c0.534-0.612,0.801-1.59,0.801-2.934V33.82l1.477-0.54
		V45.088z"/>
	<path fill="#FFFFFF" d="M169.252,35.836l-0.342-0.972l-4.986,4.266c0.804,0.06,1.565,0.204,2.286,0.432
		c0.72,0.228,1.353,0.555,1.898,0.981s0.979,0.963,1.296,1.611c0.318,0.648,0.478,1.422,0.478,2.322
		c0,0.096-0.003,0.195-0.009,0.297c-0.007,0.102-0.016,0.207-0.027,0.315h1.728v1.188h-9.936v-1.188h6.66
		c0.023-0.096,0.036-0.21,0.036-0.342c0-0.132,0-0.234,0-0.306c0-0.66-0.133-1.245-0.396-1.755c-0.264-0.51-0.624-0.939-1.08-1.287
		s-0.987-0.609-1.593-0.783c-0.606-0.174-1.245-0.261-1.917-0.261h-0.521l-0.486-1.602l6.948-5.796
		c0.023,0.072,0.068,0.192,0.135,0.36c0.065,0.168,0.138,0.36,0.216,0.576c0.078,0.216,0.156,0.438,0.234,0.666
		c0.077,0.228,0.146,0.432,0.207,0.612L169.252,35.836z"/>
	<path fill="#FFFFFF" d="M172.671,45.088V39.67l1.477-0.54v5.958h2.466V39.67l1.476-0.54v5.958h2.376V39.67l1.477-0.54v7.146
		h-10.746v-1.188H172.671z M175.75,36.52c0-0.216,0.075-0.402,0.226-0.558c0.149-0.156,0.333-0.234,0.549-0.234
		s0.401,0.078,0.558,0.234c0.156,0.156,0.234,0.342,0.234,0.558c0,0.216-0.078,0.399-0.234,0.549
		c-0.156,0.15-0.342,0.225-0.558,0.225s-0.399-0.075-0.549-0.225C175.825,36.919,175.75,36.736,175.75,36.52z M176.614,34.936
		c0-0.216,0.075-0.402,0.225-0.558c0.15-0.156,0.333-0.234,0.55-0.234c0.216,0,0.401,0.078,0.558,0.234
		c0.156,0.156,0.234,0.342,0.234,0.558c0,0.216-0.078,0.399-0.234,0.549c-0.156,0.15-0.342,0.225-0.558,0.225
		c-0.217,0-0.399-0.075-0.55-0.225C176.689,35.335,176.614,35.152,176.614,34.936z M177.622,36.52c0-0.216,0.075-0.402,0.226-0.558
		c0.149-0.156,0.333-0.234,0.549-0.234s0.401,0.078,0.558,0.234c0.156,0.156,0.234,0.342,0.234,0.558
		c0,0.216-0.078,0.399-0.234,0.549c-0.156,0.15-0.342,0.225-0.558,0.225s-0.399-0.075-0.549-0.225
		C177.697,36.919,177.622,36.736,177.622,36.52z"/>
	<path fill="#FFFFFF" d="M198.375,48.31c-0.18,0.479-0.417,0.951-0.711,1.413s-0.66,0.876-1.099,1.242
		c-0.438,0.366-0.96,0.66-1.565,0.882c-0.606,0.222-1.312,0.333-2.115,0.333c-0.732,0-1.401-0.105-2.007-0.315
		c-0.606-0.21-1.146-0.486-1.62-0.828c-0.475-0.342-0.876-0.727-1.206-1.152s-0.585-0.855-0.765-1.287v-4.626l1.476-0.54v4.698
		c0.132,0.324,0.333,0.648,0.604,0.972c0.27,0.324,0.591,0.621,0.963,0.891c0.371,0.27,0.792,0.489,1.26,0.657
		s0.966,0.252,1.494,0.252c0.456,0,0.879-0.069,1.269-0.207c0.39-0.138,0.738-0.321,1.044-0.549c0.307-0.228,0.57-0.48,0.792-0.756
		c0.223-0.276,0.394-0.552,0.514-0.828l-2.79-2.322l0.594-1.152h4.014V33.82l1.477-0.54v11.808h2.268v1.188h-6.372L198.375,48.31z"
		/>
	<path fill="#FFFFFF" d="M209.265,40.408h-1.224l-0.27-0.756c-0.372,0.036-0.783,0.093-1.233,0.171
		c-0.45,0.078-0.87,0.216-1.26,0.414c-0.391,0.198-0.721,0.474-0.99,0.828c-0.271,0.354-0.405,0.825-0.405,1.413
		c0,0.24,0.093,0.51,0.279,0.81c0.186,0.3,0.443,0.585,0.774,0.855c0.329,0.27,0.72,0.495,1.17,0.675
		c0.449,0.18,0.938,0.27,1.467,0.27h2.718v1.188h-8.46v-1.188h1.944c-0.421-0.288-0.754-0.657-0.999-1.107
		c-0.246-0.45-0.357-0.909-0.333-1.377c0.023-0.912,0.222-1.647,0.594-2.205s0.825-0.99,1.359-1.296
		c0.533-0.306,1.106-0.51,1.719-0.612c0.612-0.102,1.176-0.153,1.691-0.153c0.168,0,0.324,0.003,0.469,0.009
		c0.144,0.006,0.3,0.021,0.468,0.045L209.265,40.408z"/>
	<path fill="#FFFFFF" d="M216.285,39.67l1.477-0.54v5.958h2.105v1.188h-2.105v0.846c0,0.504-0.081,0.933-0.243,1.287
		s-0.381,0.642-0.657,0.864c-0.276,0.222-0.594,0.384-0.954,0.486c-0.359,0.102-0.737,0.153-1.134,0.153
		c-0.204,0-0.381-0.006-0.531-0.018c-0.149-0.012-0.374-0.042-0.675-0.09l0.198-1.26c0.072,0.024,0.183,0.045,0.333,0.063
		s0.273,0.027,0.369,0.027c0.624,0,1.083-0.132,1.377-0.396c0.294-0.264,0.44-0.75,0.44-1.458V39.67z"/>
	<path fill="#FFFFFF" d="M223.899,37.546c0.372,0.024,0.795,0.081,1.269,0.171c0.475,0.09,0.954,0.231,1.44,0.423
		c0.486,0.192,0.963,0.447,1.431,0.765c0.468,0.318,0.882,0.717,1.242,1.197s0.65,1.056,0.873,1.728
		c0.222,0.672,0.333,1.452,0.333,2.34c0,0.132-0.006,0.279-0.018,0.441c-0.013,0.162-0.03,0.321-0.055,0.477h2.25v1.188h-13.176
		v-1.188h1.836c-0.204-0.156-0.411-0.417-0.621-0.783c-0.21-0.366-0.314-0.777-0.314-1.233c0-0.9,0.297-1.716,0.891-2.448
		s1.389-1.356,2.385-1.872L223.899,37.546z M221.955,42.964c0,0.372,0.069,0.69,0.207,0.954c0.138,0.264,0.303,0.483,0.495,0.657
		c0.191,0.174,0.396,0.303,0.612,0.387s0.396,0.126,0.54,0.126h0.216c0.18,0,0.32-0.063,0.423-0.189
		c0.102-0.126,0.183-0.294,0.243-0.504c0.06-0.21,0.099-0.453,0.117-0.729c0.018-0.276,0.026-0.57,0.026-0.882V39.49
		c-0.06,0-0.246,0.075-0.558,0.225c-0.312,0.15-0.639,0.369-0.981,0.657c-0.342,0.288-0.65,0.648-0.927,1.08
		C222.092,41.884,221.955,42.388,221.955,42.964z M228.867,45.088c0.036-0.216,0.054-0.48,0.054-0.792
		c0-0.384-0.035-0.81-0.107-1.278c-0.072-0.468-0.207-0.927-0.405-1.377c-0.198-0.45-0.468-0.867-0.81-1.251
		c-0.343-0.384-0.79-0.684-1.342-0.9v3.24c0,0.624-0.029,1.122-0.09,1.494c-0.06,0.372-0.204,0.66-0.432,0.864H228.867z"/>
	<path fill="#FFFFFF" d="M232.161,45.088h1.278V33.82l1.476-0.54v9.126c0.252-0.456,0.567-0.918,0.945-1.386
		c0.378-0.468,0.804-0.894,1.277-1.278c0.475-0.384,0.99-0.696,1.549-0.936c0.558-0.24,1.148-0.36,1.772-0.36
		c0.708,0,1.312,0.144,1.81,0.432c0.497,0.288,0.902,0.666,1.215,1.134c0.312,0.468,0.537,1.002,0.675,1.602
		c0.138,0.6,0.207,1.206,0.207,1.818c0,0.349-0.027,0.669-0.081,0.963s-0.105,0.525-0.153,0.693h2.214v1.188h-14.184V45.088z
		 M242.601,45.088c0.048-0.132,0.096-0.345,0.144-0.639c0.048-0.294,0.072-0.633,0.072-1.017c0-0.408-0.036-0.831-0.108-1.269
		s-0.201-0.837-0.387-1.197c-0.187-0.36-0.441-0.657-0.765-0.891c-0.324-0.234-0.732-0.351-1.225-0.351
		c-0.456,0-0.897,0.096-1.323,0.288c-0.426,0.192-0.834,0.441-1.224,0.747s-0.75,0.651-1.08,1.035
		c-0.33,0.384-0.621,0.774-0.873,1.17s-0.456,0.78-0.612,1.152c-0.155,0.372-0.252,0.696-0.287,0.972H242.601z M237.201,35.62
		c0-0.216,0.075-0.402,0.225-0.558c0.15-0.156,0.333-0.234,0.55-0.234c0.216,0,0.401,0.079,0.558,0.234
		c0.155,0.156,0.234,0.342,0.234,0.558c0,0.216-0.079,0.399-0.234,0.549c-0.156,0.15-0.342,0.225-0.558,0.225
		c-0.217,0-0.399-0.075-0.55-0.225C237.276,36.019,237.201,35.836,237.201,35.62z"/>
	<path fill="#FFFFFF" d="M249.189,39.67l1.476-0.54v7.146h-4.644v-1.188h3.168V39.67z M246.741,36.43
		c0-0.216,0.075-0.402,0.226-0.558c0.149-0.156,0.333-0.234,0.549-0.234s0.401,0.079,0.558,0.234s0.234,0.342,0.234,0.558
		c0,0.216-0.078,0.399-0.234,0.549s-0.342,0.225-0.558,0.225s-0.399-0.075-0.549-0.225C246.816,36.829,246.741,36.646,246.741,36.43
		z M248.613,36.43c0-0.216,0.075-0.402,0.226-0.558c0.149-0.156,0.333-0.234,0.549-0.234s0.401,0.079,0.558,0.234
		s0.234,0.342,0.234,0.558c0,0.216-0.078,0.399-0.234,0.549s-0.342,0.225-0.558,0.225s-0.399-0.075-0.549-0.225
		C248.688,36.829,248.613,36.646,248.613,36.43z"/>
	<path fill="#FFFFFF" d="M265.749,39.67l1.477-0.54v5.958h2.214v1.188h-9.756c-0.948,0-1.74-0.201-2.376-0.603
		c-0.637-0.402-1.092-0.909-1.368-1.521v-3.294l1.476-0.54v3.294c0.265,0.576,0.643,0.966,1.135,1.17
		c0.491,0.204,1.17,0.306,2.033,0.306h5.166V39.67z M262.527,49.066c0-0.216,0.075-0.402,0.226-0.558
		c0.149-0.156,0.333-0.234,0.549-0.234s0.401,0.078,0.558,0.234c0.156,0.156,0.234,0.342,0.234,0.558s-0.078,0.399-0.234,0.549
		s-0.342,0.225-0.558,0.225s-0.399-0.075-0.549-0.225C262.602,49.465,262.527,49.282,262.527,49.066z"/>
	<path fill="#FFFFFF" d="M270.5,38.716c0.012,0,0.029-0.003,0.054-0.009s0.066-0.012,0.126-0.018s0.15-0.012,0.271-0.018
		c0.119-0.006,0.281-0.015,0.485-0.027c0.648-0.024,1.332,0.063,2.053,0.261c0.72,0.198,1.383,0.54,1.988,1.026
		c0.606,0.486,1.11,1.131,1.513,1.935c0.401,0.804,0.603,1.8,0.603,2.988v0.234h1.944v1.188h-10.404v-1.188h6.912
		c0-0.864-0.12-1.617-0.36-2.259s-0.566-1.176-0.98-1.602s-0.897-0.744-1.449-0.954s-1.146-0.327-1.782-0.351l-0.27,0.99h-1.242
		L270.5,38.716z"/>
	<path fill="#FFFFFF" d="M280.652,45.088V39.67l1.477-0.54v5.958h2.466V39.67l1.476-0.54v5.958h2.376V39.67l1.477-0.54v5.958h2.25
		v1.188h-13.014v-1.188H280.652z"/>
	<path fill="#FFFFFF" d="M293.108,33.82l1.476-0.54v12.996h-2.808v-1.188h1.332V33.82z"/>
	<path fill="#FFFFFF" d="M299.174,46.276h-1.476V33.82l1.476-0.54V46.276z"/>
	<path fill="#FFFFFF" d="M304.286,42.766c0-0.72,0.141-1.374,0.423-1.962c0.282-0.587,0.663-1.095,1.143-1.521
		c0.48-0.426,1.035-0.756,1.665-0.99c0.631-0.234,1.299-0.351,2.008-0.351c0.312,0,0.572,0.009,0.782,0.027s0.369,0.039,0.478,0.063
		v8.244h-2.664c-0.517,0-1.005-0.084-1.467-0.252c-0.463-0.168-0.87-0.405-1.225-0.711c-0.354-0.306-0.633-0.675-0.837-1.107
		C304.387,43.774,304.286,43.294,304.286,42.766z M305.851,42.622c0,0.3,0.048,0.597,0.145,0.891
		c0.096,0.294,0.249,0.558,0.459,0.792c0.21,0.234,0.479,0.423,0.81,0.567s0.724,0.216,1.18,0.216h0.863V39.22h-0.216
		c-0.359,0-0.731,0.069-1.116,0.207c-0.384,0.138-0.731,0.345-1.044,0.621c-0.312,0.276-0.569,0.627-0.773,1.053
		S305.851,42.034,305.851,42.622z"/>
	<path fill="#FFFFFF" d="M315.715,37.564c1.548,0.864,2.682,1.917,3.402,3.159c0.72,1.242,1.08,2.589,1.08,4.041
		c0,0.072-0.004,0.132-0.01,0.18c-0.006,0.048-0.009,0.096-0.009,0.144h1.818v1.188h-9l0.306-1.188h5.292
		c0.012-0.072,0.019-0.144,0.019-0.216c0-0.072,0-0.144,0-0.216c0-0.66-0.091-1.284-0.271-1.872c-0.18-0.587-0.432-1.127-0.756-1.62
		s-0.708-0.939-1.152-1.341c-0.443-0.402-0.936-0.753-1.476-1.053L315.715,37.564z M315.013,35.188c0-0.216,0.075-0.402,0.226-0.558
		c0.149-0.156,0.333-0.234,0.549-0.234s0.401,0.078,0.558,0.234c0.156,0.156,0.234,0.342,0.234,0.558
		c0,0.216-0.078,0.399-0.234,0.549c-0.156,0.15-0.342,0.225-0.558,0.225s-0.399-0.075-0.549-0.225
		C315.088,35.587,315.013,35.404,315.013,35.188z"/>
	<path fill="#FFFFFF" d="M326.047,37.546c0.372,0.024,0.795,0.081,1.269,0.171c0.475,0.09,0.954,0.231,1.44,0.423
		c0.486,0.192,0.963,0.447,1.431,0.765c0.468,0.318,0.882,0.717,1.242,1.197s0.65,1.056,0.873,1.728
		c0.222,0.672,0.333,1.452,0.333,2.34c0,0.168-0.009,0.363-0.027,0.585c-0.018,0.222-0.057,0.423-0.117,0.603
		c0,0.012-0.023,0.054-0.071,0.126s-0.105,0.156-0.171,0.252c-0.066,0.096-0.136,0.192-0.207,0.288
		c-0.072,0.096-0.133,0.18-0.181,0.252h-10.224v-1.188h1.836c-0.204-0.156-0.411-0.417-0.621-0.783
		c-0.21-0.366-0.314-0.777-0.314-1.233c0-0.9,0.297-1.716,0.891-2.448s1.389-1.356,2.385-1.872L326.047,37.546z M324.103,42.964
		c0,0.372,0.069,0.69,0.207,0.954c0.138,0.264,0.303,0.483,0.495,0.657c0.191,0.174,0.396,0.303,0.612,0.387s0.396,0.126,0.54,0.126
		h0.216c0.18,0,0.32-0.063,0.423-0.189c0.102-0.126,0.183-0.294,0.243-0.504c0.06-0.21,0.099-0.453,0.117-0.729
		c0.018-0.276,0.026-0.57,0.026-0.882V39.49c-0.06,0-0.246,0.075-0.558,0.225c-0.312,0.15-0.639,0.369-0.981,0.657
		c-0.342,0.288-0.65,0.648-0.927,1.08C324.241,41.884,324.103,42.388,324.103,42.964z M331.015,45.088
		c0.036-0.216,0.054-0.48,0.054-0.792c0-0.384-0.035-0.81-0.107-1.278c-0.072-0.468-0.207-0.927-0.405-1.377
		c-0.198-0.45-0.468-0.867-0.81-1.251c-0.343-0.384-0.79-0.684-1.342-0.9v3.24c0,0.624-0.029,1.122-0.09,1.494
		c-0.06,0.372-0.204,0.66-0.432,0.864H331.015z"/>
	<path fill="#FFFFFF" d="M32.455,73.276H22.447c-0.899,0-1.668-0.201-2.304-0.603c-0.636-0.402-1.08-0.909-1.332-1.521v-3.294
		l1.476-0.54v3.33c0.24,0.54,0.615,0.915,1.125,1.125c0.511,0.21,1.186,0.315,2.025,0.315h3.474
		c-0.359-0.288-0.639-0.648-0.837-1.08c-0.197-0.432-0.297-0.864-0.297-1.296c0-0.648,0.141-1.248,0.423-1.8
		c0.282-0.552,0.663-1.029,1.144-1.431c0.479-0.402,1.044-0.717,1.691-0.945c0.648-0.228,1.332-0.342,2.053-0.342
		c0.252,0,0.51,0.012,0.773,0.036s0.462,0.06,0.594,0.108V73.276z M30.979,66.544c-0.024-0.012-0.069-0.021-0.135-0.027
		c-0.066-0.006-0.123-0.009-0.171-0.009c-0.385,0-0.774,0.072-1.17,0.216c-0.396,0.144-0.757,0.351-1.08,0.621
		c-0.324,0.27-0.589,0.6-0.792,0.99c-0.204,0.39-0.307,0.831-0.307,1.323c0,0.372,0.066,0.708,0.198,1.008s0.312,0.555,0.54,0.765
		c0.228,0.21,0.495,0.372,0.801,0.486c0.307,0.114,0.633,0.171,0.981,0.171h1.134V66.544z M28.279,62.278
		c0-0.216,0.075-0.402,0.226-0.558c0.149-0.156,0.333-0.234,0.549-0.234s0.401,0.078,0.558,0.234
		c0.156,0.156,0.234,0.342,0.234,0.558s-0.078,0.399-0.234,0.549c-0.156,0.15-0.342,0.225-0.558,0.225s-0.399-0.075-0.549-0.225
		C28.354,62.677,28.279,62.494,28.279,62.278z"/>
	<path fill="#FFFFFF" d="M35.605,73.276V60.82l1.476-0.54v11.808h2.034v1.188H35.605z"/>
	<path fill="#FFFFFF" d="M41.148,66.67l1.494-0.54v5.958h2.395v1.188H38.88v-1.188h2.268V66.67z M39.6,76.318
		c0-0.216,0.075-0.402,0.226-0.558c0.149-0.156,0.333-0.234,0.549-0.234s0.401,0.078,0.558,0.234s0.234,0.342,0.234,0.558
		s-0.078,0.399-0.234,0.549s-0.342,0.225-0.558,0.225s-0.399-0.075-0.549-0.225C39.675,76.717,39.6,76.534,39.6,76.318z
		 M41.472,76.318c0-0.216,0.075-0.402,0.226-0.558c0.149-0.156,0.333-0.234,0.549-0.234s0.401,0.078,0.558,0.234
		s0.234,0.342,0.234,0.558s-0.078,0.399-0.234,0.549s-0.342,0.225-0.558,0.225s-0.399-0.075-0.549-0.225
		C41.547,76.717,41.472,76.534,41.472,76.318z"/>
	<path fill="#FFFFFF" d="M45.811,60.82l1.476-0.54v12.996h-2.808v-1.188h1.332V60.82z"/>
	<path fill="#FFFFFF" d="M52.434,56.284h-0.827l-0.019-0.144c-0.132,0.012-0.272,0.033-0.423,0.063
		c-0.15,0.03-0.288,0.081-0.414,0.152s-0.228,0.167-0.306,0.285s-0.117,0.267-0.117,0.445c0,0.083,0.033,0.175,0.099,0.276
		c0.066,0.101,0.156,0.196,0.271,0.285c0.113,0.089,0.252,0.167,0.414,0.231c0.162,0.065,0.339,0.098,0.53,0.098h0.99v0.774h-3.438
		v-0.774h0.558c-0.096-0.132-0.171-0.273-0.225-0.423c-0.055-0.15-0.081-0.291-0.081-0.423c0.023-0.372,0.117-0.678,0.278-0.918
		c0.162-0.24,0.354-0.429,0.576-0.567c0.223-0.138,0.462-0.234,0.721-0.288c0.258-0.054,0.494-0.081,0.711-0.081
		c0.023,0,0.065,0.003,0.126,0.009c0.06,0.006,0.186,0.009,0.378,0.009L52.434,56.284z M52.434,56.284h-0.827l-0.019-0.144
		c-0.132,0.012-0.272,0.033-0.423,0.063c-0.15,0.03-0.288,0.081-0.414,0.152s-0.228,0.167-0.306,0.285s-0.117,0.267-0.117,0.445
		c0,0.083,0.033,0.175,0.099,0.276c0.066,0.101,0.156,0.196,0.271,0.285c0.113,0.089,0.252,0.167,0.414,0.231
		c0.162,0.065,0.339,0.098,0.53,0.098h0.99v0.774h-3.438v-0.774h0.558c-0.096-0.132-0.171-0.273-0.225-0.423
		c-0.055-0.15-0.081-0.291-0.081-0.423c0.023-0.372,0.117-0.678,0.278-0.918c0.162-0.24,0.354-0.429,0.576-0.567
		c0.223-0.138,0.462-0.234,0.721-0.288c0.258-0.054,0.494-0.081,0.711-0.081c0.023,0,0.065,0.003,0.126,0.009
		c0.06,0.006,0.186,0.009,0.378,0.009L52.434,56.284z M51.876,73.276h-1.476V60.82l1.476-0.54V73.276z"/>
	<path fill="#FFFFFF" d="M57.33,69.838c0-0.684,0.145-1.308,0.432-1.872c0.288-0.564,0.676-1.053,1.161-1.467
		c0.486-0.414,1.05-0.735,1.692-0.963c0.642-0.228,1.316-0.342,2.025-0.342c0.144,0,0.297,0.009,0.459,0.027
		c0.161,0.018,0.326,0.039,0.494,0.063v8.442c0,0.563-0.084,1.044-0.252,1.44s-0.39,0.72-0.666,0.972
		c-0.275,0.252-0.6,0.435-0.972,0.549c-0.372,0.114-0.756,0.171-1.152,0.171c-0.288,0-0.521-0.012-0.701-0.036
		c-0.181-0.024-0.349-0.054-0.505-0.09l0.198-1.206c0.276,0.06,0.516,0.09,0.72,0.09c0.372,0,0.679-0.051,0.919-0.153
		c0.239-0.102,0.429-0.255,0.566-0.459s0.234-0.45,0.288-0.738c0.054-0.288,0.081-0.625,0.081-1.008l-1.098,0.018
		c-0.408,0-0.831-0.069-1.27-0.207c-0.438-0.138-0.837-0.345-1.197-0.621c-0.359-0.276-0.653-0.63-0.882-1.062
		C57.444,70.954,57.33,70.438,57.33,69.838z M58.877,69.702c0,0.407,0.072,0.756,0.216,1.049c0.145,0.293,0.339,0.539,0.585,0.736
		s0.525,0.344,0.838,0.439c0.312,0.096,0.636,0.144,0.972,0.144h0.63v-5.526c-0.36,0-0.732,0.075-1.116,0.225
		c-0.384,0.149-0.731,0.361-1.044,0.637c-0.312,0.275-0.57,0.607-0.773,0.996C58.979,68.79,58.877,69.223,58.877,69.702z"/>
	<path fill="#FFFFFF" d="M68.633,56.284h-0.827l-0.019-0.144c-0.132,0.012-0.272,0.033-0.423,0.063
		c-0.15,0.03-0.288,0.081-0.414,0.152s-0.228,0.167-0.306,0.285s-0.117,0.267-0.117,0.445c0,0.083,0.033,0.175,0.099,0.276
		c0.066,0.101,0.156,0.196,0.271,0.285c0.113,0.089,0.252,0.167,0.414,0.231c0.162,0.065,0.339,0.098,0.53,0.098h0.99v0.774h-3.438
		v-0.774h0.558c-0.096-0.132-0.171-0.273-0.225-0.423c-0.055-0.15-0.081-0.291-0.081-0.423c0.023-0.372,0.117-0.678,0.278-0.918
		c0.162-0.24,0.354-0.429,0.576-0.567c0.223-0.138,0.462-0.234,0.721-0.288c0.258-0.054,0.494-0.081,0.711-0.081
		c0.023,0,0.065,0.003,0.126,0.009c0.06,0.006,0.186,0.009,0.378,0.009L68.633,56.284z M68.633,56.284h-0.827l-0.019-0.144
		c-0.132,0.012-0.272,0.033-0.423,0.063c-0.15,0.03-0.288,0.081-0.414,0.152s-0.228,0.167-0.306,0.285s-0.117,0.267-0.117,0.445
		c0,0.083,0.033,0.175,0.099,0.276c0.066,0.101,0.156,0.196,0.271,0.285c0.113,0.089,0.252,0.167,0.414,0.231
		c0.162,0.065,0.339,0.098,0.53,0.098h0.99v0.774h-3.438v-0.774h0.558c-0.096-0.132-0.171-0.273-0.225-0.423
		c-0.055-0.15-0.081-0.291-0.081-0.423c0.023-0.372,0.117-0.678,0.278-0.918c0.162-0.24,0.354-0.429,0.576-0.567
		c0.223-0.138,0.462-0.234,0.721-0.288c0.258-0.054,0.494-0.081,0.711-0.081c0.023,0,0.065,0.003,0.126,0.009
		c0.06,0.006,0.186,0.009,0.378,0.009L68.633,56.284z M68.076,73.276H66.6V60.82l1.476-0.54V73.276z"/>
	<path fill="#FFFFFF" d="M73.728,71.494c0.12,0.096,0.272,0.205,0.459,0.324c0.186,0.12,0.393,0.198,0.621,0.234
		c0.132,0.024,0.255,0.036,0.369,0.036c0.113,0,0.219,0,0.314,0V60.82l1.477-0.54v9.126c0.252-0.456,0.566-0.918,0.944-1.386
		c0.378-0.468,0.804-0.894,1.278-1.278c0.474-0.384,0.99-0.696,1.548-0.936c0.558-0.24,1.149-0.36,1.773-0.36
		c0.708,0,1.311,0.144,1.809,0.432s0.903,0.666,1.215,1.134c0.312,0.468,0.537,1.002,0.675,1.602c0.139,0.6,0.207,1.206,0.207,1.818
		c0,0.229-0.015,0.45-0.045,0.666c-0.03,0.216-0.062,0.408-0.099,0.576c-0.036,0.168-0.072,0.309-0.108,0.423
		c-0.036,0.114-0.06,0.189-0.071,0.225c-0.024,0.036-0.066,0.096-0.126,0.18c-0.061,0.084-0.126,0.174-0.198,0.27
		s-0.15,0.192-0.234,0.288s-0.15,0.168-0.198,0.216h-9.504c-0.684,0-1.209-0.054-1.574-0.162c-0.366-0.108-0.688-0.264-0.964-0.468
		L73.728,71.494z M84.654,72.088c0.048-0.132,0.096-0.345,0.145-0.639c0.047-0.294,0.071-0.633,0.071-1.017
		c0-0.408-0.036-0.831-0.107-1.269c-0.072-0.438-0.201-0.837-0.388-1.197c-0.186-0.36-0.44-0.657-0.765-0.891
		c-0.324-0.234-0.732-0.351-1.224-0.351c-0.444,0-0.883,0.096-1.314,0.288c-0.432,0.192-0.843,0.441-1.233,0.747
		c-0.39,0.306-0.75,0.651-1.079,1.035c-0.331,0.384-0.621,0.774-0.873,1.17s-0.457,0.78-0.612,1.152
		c-0.156,0.372-0.252,0.696-0.288,0.972H84.654z"/>
	<path fill="#FFFFFF" d="M88.452,69.838c0-0.684,0.145-1.308,0.432-1.872c0.288-0.564,0.676-1.053,1.161-1.467
		c0.486-0.414,1.05-0.735,1.692-0.963c0.642-0.228,1.316-0.342,2.025-0.342c0.144,0,0.297,0.009,0.459,0.027
		c0.161,0.018,0.326,0.039,0.494,0.063v6.786h2.431v1.206h-2.431v0.45c0,0.563-0.084,1.044-0.252,1.44s-0.39,0.72-0.666,0.972
		c-0.275,0.252-0.6,0.435-0.972,0.549c-0.372,0.114-0.756,0.171-1.152,0.171c-0.288,0-0.521-0.012-0.701-0.036
		c-0.181-0.024-0.349-0.054-0.505-0.09l0.198-1.206c0.276,0.06,0.516,0.09,0.72,0.09c0.372,0,0.679-0.051,0.919-0.153
		c0.239-0.102,0.429-0.255,0.566-0.459s0.234-0.45,0.288-0.738c0.054-0.288,0.081-0.625,0.081-1.008l-1.098,0.018
		c-0.408,0-0.831-0.069-1.27-0.207c-0.438-0.138-0.837-0.345-1.197-0.621c-0.359-0.276-0.653-0.63-0.882-1.062
		C88.566,70.954,88.452,70.438,88.452,69.838z M90,69.702c0,0.407,0.072,0.756,0.216,1.049c0.145,0.293,0.339,0.539,0.585,0.736
		s0.525,0.344,0.838,0.439c0.312,0.096,0.636,0.144,0.972,0.144h0.63v-5.526c-0.36,0-0.732,0.075-1.116,0.225
		c-0.384,0.149-0.731,0.361-1.044,0.637c-0.312,0.275-0.57,0.607-0.773,0.996C90.101,68.79,90,69.223,90,69.702z"/>
	<path fill="#FFFFFF" d="M98.874,66.67l1.494-0.54v5.958h2.395v1.188h-6.156v-1.188h2.268V66.67z M97.326,76.318
		c0-0.216,0.075-0.402,0.226-0.558c0.149-0.156,0.333-0.234,0.549-0.234s0.401,0.078,0.558,0.234s0.234,0.342,0.234,0.558
		s-0.078,0.399-0.234,0.549s-0.342,0.225-0.558,0.225s-0.399-0.075-0.549-0.225C97.401,76.717,97.326,76.534,97.326,76.318z
		 M99.198,76.318c0-0.216,0.075-0.402,0.226-0.558c0.149-0.156,0.333-0.234,0.549-0.234s0.401,0.078,0.558,0.234
		s0.234,0.342,0.234,0.558s-0.078,0.399-0.234,0.549s-0.342,0.225-0.558,0.225s-0.399-0.075-0.549-0.225
		C99.273,76.717,99.198,76.534,99.198,76.318z"/>
	<path fill="#FFFFFF" d="M103.553,65.716c0.084-0.024,0.184-0.036,0.298-0.036c0.113,0,0.219-0.006,0.314-0.018
		c0.12,0,0.234-0.006,0.342-0.018c0.648,0,1.332,0.102,2.053,0.306c0.72,0.205,1.383,0.546,1.988,1.026
		c0.606,0.48,1.11,1.116,1.513,1.908c0.401,0.792,0.603,1.782,0.603,2.97c0,0.24-0.012,0.477-0.036,0.711s-0.06,0.471-0.107,0.711
		h-8.316v-1.188h6.912c0-0.876-0.12-1.632-0.36-2.268c-0.24-0.636-0.566-1.167-0.98-1.593s-0.9-0.744-1.458-0.954
		c-0.559-0.21-1.155-0.327-1.791-0.351l-0.271,0.99h-1.224L103.553,65.716z M105.173,62.746c0-0.216,0.075-0.402,0.226-0.558
		c0.149-0.156,0.333-0.234,0.549-0.234s0.401,0.078,0.558,0.234s0.234,0.342,0.234,0.558c0,0.216-0.078,0.399-0.234,0.549
		s-0.342,0.225-0.558,0.225s-0.399-0.075-0.549-0.225C105.249,63.145,105.173,62.962,105.173,62.746z"/>
	<path fill="#FFFFFF" d="M125.694,72.088h2.214v1.188h-2.358c-0.096,0.408-0.255,0.81-0.477,1.206
		c-0.223,0.396-0.52,0.747-0.892,1.053c-0.372,0.306-0.821,0.555-1.35,0.747s-1.146,0.288-1.854,0.288
		c-0.684,0-1.322-0.12-1.917-0.36c-0.594-0.24-1.106-0.594-1.539-1.062c-0.432-0.468-0.771-1.041-1.017-1.719
		c-0.246-0.678-0.369-1.455-0.369-2.331c0-0.083,0.003-0.183,0.009-0.297c0.006-0.114,0.013-0.225,0.019-0.333
		s0.012-0.204,0.018-0.288c0.006-0.083,0.01-0.144,0.01-0.18c0.06-0.024,0.167-0.063,0.323-0.117
		c0.156-0.054,0.324-0.111,0.504-0.171c0.181-0.06,0.345-0.117,0.495-0.171c0.15-0.054,0.243-0.087,0.279-0.099
		c-0.024,0.084-0.048,0.258-0.072,0.522c-0.024,0.264-0.036,0.498-0.036,0.702c0,1.572,0.282,2.736,0.847,3.492
		c0.563,0.756,1.428,1.134,2.592,1.134c0.996,0,1.761-0.306,2.295-0.918c0.534-0.612,0.801-1.59,0.801-2.934V60.82l1.477-0.54
		V72.088z"/>
	<path fill="#FFFFFF" d="M135.143,62.836l-0.342-0.972l-4.986,4.266c0.804,0.06,1.565,0.204,2.286,0.432
		c0.72,0.228,1.353,0.555,1.898,0.981s0.979,0.963,1.296,1.611c0.318,0.648,0.478,1.422,0.478,2.322
		c0,0.096-0.003,0.195-0.009,0.297c-0.007,0.102-0.016,0.207-0.027,0.315h1.728v1.188h-9.936v-1.188h6.66
		c0.023-0.096,0.036-0.21,0.036-0.342c0-0.132,0-0.234,0-0.306c0-0.66-0.133-1.245-0.396-1.755c-0.264-0.51-0.624-0.939-1.08-1.287
		s-0.987-0.609-1.593-0.783c-0.606-0.174-1.245-0.261-1.917-0.261h-0.521l-0.486-1.602l6.948-5.796
		c0.023,0.072,0.068,0.192,0.135,0.36c0.065,0.168,0.138,0.36,0.216,0.576c0.078,0.216,0.156,0.438,0.234,0.666
		c0.077,0.228,0.146,0.432,0.207,0.612L135.143,62.836z"/>
	<path fill="#FFFFFF" d="M138.563,72.088V66.67l1.477-0.54v5.958h2.466V66.67l1.476-0.54v5.958h2.376V66.67l1.477-0.54v7.146
		h-10.746v-1.188H138.563z M141.641,63.52c0-0.216,0.075-0.402,0.226-0.558c0.149-0.156,0.333-0.234,0.549-0.234
		s0.401,0.078,0.558,0.234c0.156,0.156,0.234,0.342,0.234,0.558c0,0.216-0.078,0.399-0.234,0.549
		c-0.156,0.15-0.342,0.225-0.558,0.225s-0.399-0.075-0.549-0.225C141.716,63.919,141.641,63.736,141.641,63.52z M142.505,61.936
		c0-0.216,0.075-0.402,0.225-0.558c0.15-0.156,0.333-0.234,0.55-0.234c0.216,0,0.401,0.078,0.558,0.234
		c0.156,0.156,0.234,0.342,0.234,0.558c0,0.216-0.078,0.399-0.234,0.549c-0.156,0.15-0.342,0.225-0.558,0.225
		c-0.217,0-0.399-0.075-0.55-0.225C142.581,62.335,142.505,62.152,142.505,61.936z M143.513,63.52c0-0.216,0.075-0.402,0.226-0.558
		c0.149-0.156,0.333-0.234,0.549-0.234s0.401,0.078,0.558,0.234c0.156,0.156,0.234,0.342,0.234,0.558
		c0,0.216-0.078,0.399-0.234,0.549c-0.156,0.15-0.342,0.225-0.558,0.225s-0.399-0.075-0.549-0.225
		C143.588,63.919,143.513,63.736,143.513,63.52z"/>
	<path fill="#FFFFFF" d="M164.267,75.31c-0.18,0.479-0.417,0.951-0.711,1.413s-0.66,0.876-1.099,1.242
		c-0.438,0.366-0.96,0.66-1.565,0.882c-0.606,0.222-1.312,0.333-2.115,0.333c-0.732,0-1.401-0.105-2.007-0.315
		c-0.606-0.21-1.146-0.486-1.62-0.828c-0.475-0.342-0.876-0.727-1.206-1.152s-0.585-0.855-0.765-1.287v-4.626l1.476-0.54v4.698
		c0.132,0.324,0.333,0.648,0.604,0.972c0.27,0.324,0.591,0.621,0.963,0.891c0.371,0.27,0.792,0.489,1.26,0.657
		s0.966,0.252,1.494,0.252c0.456,0,0.879-0.069,1.269-0.207c0.39-0.138,0.738-0.321,1.044-0.549c0.307-0.228,0.57-0.48,0.792-0.756
		c0.223-0.276,0.394-0.552,0.514-0.828l-2.79-2.322l0.594-1.152h4.014V60.82l1.477-0.54v11.808h2.268v1.188h-6.372L164.267,75.31z"
		/>
	<path fill="#FFFFFF" d="M175.156,67.408h-1.224l-0.27-0.756c-0.372,0.036-0.783,0.093-1.233,0.171
		c-0.45,0.078-0.87,0.216-1.26,0.414c-0.391,0.198-0.721,0.474-0.99,0.828c-0.271,0.354-0.405,0.825-0.405,1.413
		c0,0.24,0.093,0.51,0.279,0.81c0.186,0.3,0.443,0.585,0.774,0.855c0.329,0.27,0.72,0.495,1.17,0.675
		c0.449,0.18,0.938,0.27,1.467,0.27h2.718v1.188h-8.46v-1.188h1.944c-0.421-0.288-0.754-0.657-0.999-1.107
		c-0.246-0.45-0.357-0.909-0.333-1.377c0.023-0.912,0.222-1.647,0.594-2.205s0.825-0.99,1.359-1.296
		c0.533-0.306,1.106-0.51,1.719-0.612c0.612-0.102,1.176-0.153,1.691-0.153c0.168,0,0.324,0.003,0.469,0.009
		c0.144,0.006,0.3,0.021,0.468,0.045L175.156,67.408z"/>
	<path fill="#FFFFFF" d="M180.827,69.838c0-0.684,0.145-1.308,0.432-1.872c0.288-0.564,0.676-1.053,1.161-1.467
		c0.486-0.414,1.05-0.735,1.692-0.963c0.642-0.228,1.316-0.342,2.025-0.342c0.144,0,0.297,0.009,0.459,0.027
		c0.161,0.018,0.326,0.039,0.494,0.063v8.442c0,0.563-0.084,1.044-0.252,1.44s-0.39,0.72-0.666,0.972
		c-0.275,0.252-0.6,0.435-0.972,0.549c-0.372,0.114-0.756,0.171-1.152,0.171c-0.288,0-0.521-0.012-0.701-0.036
		c-0.181-0.024-0.349-0.054-0.505-0.09l0.198-1.206c0.276,0.06,0.516,0.09,0.72,0.09c0.372,0,0.679-0.051,0.919-0.153
		c0.239-0.102,0.429-0.255,0.566-0.459s0.234-0.45,0.288-0.738c0.054-0.288,0.081-0.625,0.081-1.008l-1.098,0.018
		c-0.408,0-0.831-0.069-1.27-0.207c-0.438-0.138-0.837-0.345-1.197-0.621c-0.359-0.276-0.653-0.63-0.882-1.062
		C180.941,70.954,180.827,70.438,180.827,69.838z M182.375,69.702c0,0.407,0.072,0.756,0.216,1.049
		c0.145,0.293,0.339,0.539,0.585,0.736s0.525,0.344,0.838,0.439c0.312,0.096,0.636,0.144,0.972,0.144h0.63v-5.526
		c-0.36,0-0.732,0.075-1.116,0.225c-0.384,0.149-0.731,0.361-1.044,0.637c-0.312,0.275-0.57,0.607-0.773,0.996
		C182.476,68.79,182.375,69.223,182.375,69.702z"/>
	<path fill="#FFFFFF" d="M192.129,56.284h-0.827l-0.019-0.144c-0.132,0.012-0.272,0.033-0.423,0.063
		c-0.15,0.03-0.288,0.081-0.414,0.152s-0.228,0.167-0.306,0.285s-0.117,0.267-0.117,0.445c0,0.083,0.033,0.175,0.099,0.276
		c0.066,0.101,0.156,0.196,0.271,0.285c0.113,0.089,0.252,0.167,0.414,0.231c0.162,0.065,0.339,0.098,0.53,0.098h0.99v0.774h-3.438
		v-0.774h0.558c-0.096-0.132-0.171-0.273-0.225-0.423c-0.055-0.15-0.081-0.291-0.081-0.423c0.023-0.372,0.117-0.678,0.278-0.918
		c0.162-0.24,0.354-0.429,0.576-0.567c0.223-0.138,0.462-0.234,0.721-0.288c0.258-0.054,0.494-0.081,0.711-0.081
		c0.023,0,0.065,0.003,0.126,0.009c0.06,0.006,0.186,0.009,0.378,0.009L192.129,56.284z M192.129,56.284h-0.827l-0.019-0.144
		c-0.132,0.012-0.272,0.033-0.423,0.063c-0.15,0.03-0.288,0.081-0.414,0.152s-0.228,0.167-0.306,0.285s-0.117,0.267-0.117,0.445
		c0,0.083,0.033,0.175,0.099,0.276c0.066,0.101,0.156,0.196,0.271,0.285c0.113,0.089,0.252,0.167,0.414,0.231
		c0.162,0.065,0.339,0.098,0.53,0.098h0.99v0.774h-3.438v-0.774h0.558c-0.096-0.132-0.171-0.273-0.225-0.423
		c-0.055-0.15-0.081-0.291-0.081-0.423c0.023-0.372,0.117-0.678,0.278-0.918c0.162-0.24,0.354-0.429,0.576-0.567
		c0.223-0.138,0.462-0.234,0.721-0.288c0.258-0.054,0.494-0.081,0.711-0.081c0.023,0,0.065,0.003,0.126,0.009
		c0.06,0.006,0.186,0.009,0.378,0.009L192.129,56.284z M191.572,73.276h-1.476V60.82l1.476-0.54V73.276z"/>
	<path fill="#FFFFFF" d="M197.314,72.142v-0.81c0-0.612,0.138-1.092,0.414-1.44c0.275-0.348,0.618-0.576,1.026-0.684l0.27,0.522
		c-0.24,0.072-0.432,0.213-0.576,0.423c-0.144,0.21-0.228,0.519-0.252,0.927c0.096-0.024,0.174-0.036,0.234-0.036
		c0.312,0,0.576,0.108,0.792,0.324c0.216,0.216,0.324,0.48,0.324,0.792c0,0.312-0.108,0.576-0.324,0.792
		c-0.216,0.216-0.48,0.324-0.792,0.324c-0.312,0-0.576-0.108-0.792-0.324c-0.216-0.216-0.324-0.479-0.324-0.792V72.142z"/>
	<path fill="#FFFFFF" d="M202.661,73.276V60.82l1.476-0.54v11.808h2.034v1.188H202.661z"/>
	<path fill="#FFFFFF" d="M210.346,64.546c0.372,0.024,0.795,0.081,1.269,0.171c0.475,0.09,0.954,0.231,1.44,0.423
		c0.486,0.192,0.963,0.447,1.431,0.765c0.468,0.318,0.882,0.717,1.242,1.197s0.65,1.056,0.873,1.728
		c0.222,0.672,0.333,1.452,0.333,2.34c0,0.132-0.006,0.279-0.018,0.441c-0.013,0.162-0.03,0.321-0.055,0.477h2.25v1.188h-13.176
		v-1.188h1.836c-0.204-0.156-0.411-0.417-0.621-0.783c-0.21-0.366-0.314-0.777-0.314-1.233c0-0.9,0.297-1.716,0.891-2.448
		s1.389-1.356,2.385-1.872L210.346,64.546z M208.402,69.964c0,0.372,0.069,0.69,0.207,0.954c0.138,0.264,0.303,0.483,0.495,0.657
		c0.191,0.174,0.396,0.303,0.612,0.387s0.396,0.126,0.54,0.126h0.216c0.18,0,0.32-0.063,0.423-0.189
		c0.102-0.126,0.183-0.294,0.243-0.504c0.06-0.21,0.099-0.453,0.117-0.729c0.018-0.276,0.026-0.57,0.026-0.882V66.49
		c-0.06,0-0.246,0.075-0.558,0.225c-0.312,0.15-0.639,0.369-0.981,0.657c-0.342,0.288-0.65,0.648-0.927,1.08
		C208.54,68.884,208.402,69.388,208.402,69.964z M215.314,72.088c0.036-0.216,0.054-0.48,0.054-0.792
		c0-0.384-0.035-0.81-0.107-1.278c-0.072-0.468-0.207-0.927-0.405-1.377c-0.198-0.45-0.468-0.867-0.81-1.251
		c-0.343-0.384-0.79-0.684-1.342-0.9v3.24c0,0.624-0.029,1.122-0.09,1.494c-0.06,0.372-0.204,0.66-0.432,0.864H215.314z"/>
	<path fill="#FFFFFF" d="M220.875,66.67l1.477-0.54v5.958h2.394v1.188h-6.138v-1.188h2.268V66.67z M219.76,63.664
		c0-0.216,0.074-0.402,0.225-0.558c0.15-0.156,0.333-0.234,0.549-0.234s0.402,0.078,0.559,0.234
		c0.155,0.156,0.233,0.342,0.233,0.558c0,0.216-0.078,0.399-0.233,0.549c-0.156,0.15-0.343,0.225-0.559,0.225
		s-0.398-0.075-0.549-0.225C219.834,64.063,219.76,63.88,219.76,63.664z"/>
	<path fill="#FFFFFF" d="M224.206,72.088h1.332v-6.804c0.204-0.036,0.393-0.06,0.567-0.072c0.174-0.012,0.339-0.018,0.494-0.018
		c1.152,0,2.101,0.18,2.845,0.54c0.743,0.36,1.332,0.828,1.764,1.404c0.432,0.576,0.731,1.221,0.9,1.935
		c0.168,0.714,0.252,1.431,0.252,2.151c0,0.456-0.033,0.864-0.1,1.224c-0.065,0.36-0.123,0.636-0.171,0.828h-7.884V72.088z
		 M227.013,72.088h3.727c0.023-0.144,0.042-0.291,0.054-0.441s0.019-0.297,0.019-0.441c0-0.696-0.075-1.335-0.226-1.917
		s-0.378-1.077-0.684-1.485c-0.307-0.408-0.699-0.726-1.18-0.954c-0.479-0.228-1.05-0.342-1.71-0.342V72.088z"/>
	<path fill="#FFFFFF" d="M237.939,71.494c0.12,0.096,0.272,0.205,0.459,0.324c0.186,0.12,0.393,0.198,0.621,0.234
		c0.132,0.024,0.255,0.036,0.369,0.036c0.113,0,0.219,0,0.314,0V60.82l1.477-0.54v9.126c0.252-0.456,0.566-0.918,0.944-1.386
		c0.378-0.468,0.804-0.894,1.278-1.278c0.474-0.384,0.99-0.696,1.548-0.936c0.558-0.24,1.149-0.36,1.773-0.36
		c0.708,0,1.311,0.144,1.809,0.432s0.903,0.666,1.215,1.134c0.312,0.468,0.537,1.002,0.675,1.602c0.139,0.6,0.207,1.206,0.207,1.818
		c0,0.349-0.026,0.669-0.081,0.963c-0.054,0.294-0.104,0.525-0.152,0.693h2.394v1.188h-12.744c-0.684,0-1.209-0.054-1.574-0.162
		c-0.366-0.108-0.688-0.264-0.964-0.468L237.939,71.494z M248.865,72.088c0.048-0.132,0.096-0.345,0.145-0.639
		c0.047-0.294,0.071-0.633,0.071-1.017c0-0.408-0.036-0.831-0.107-1.269c-0.072-0.438-0.201-0.837-0.388-1.197
		c-0.186-0.36-0.44-0.657-0.765-0.891c-0.324-0.234-0.732-0.351-1.224-0.351c-0.444,0-0.883,0.096-1.314,0.288
		c-0.432,0.192-0.843,0.441-1.233,0.747c-0.39,0.306-0.75,0.651-1.079,1.035c-0.331,0.384-0.621,0.774-0.873,1.17
		s-0.457,0.78-0.612,1.152c-0.156,0.372-0.252,0.696-0.288,0.972H248.865z"/>
	<path fill="#FFFFFF" d="M254.552,66.67l1.494-0.54v5.958h2.395v1.188h-6.156v-1.188h2.268V66.67z M253.004,76.318
		c0-0.216,0.075-0.402,0.226-0.558c0.149-0.156,0.333-0.234,0.549-0.234s0.401,0.078,0.558,0.234s0.234,0.342,0.234,0.558
		s-0.078,0.399-0.234,0.549s-0.342,0.225-0.558,0.225s-0.399-0.075-0.549-0.225C253.08,76.717,253.004,76.534,253.004,76.318z
		 M254.876,76.318c0-0.216,0.075-0.402,0.226-0.558c0.149-0.156,0.333-0.234,0.549-0.234s0.401,0.078,0.558,0.234
		s0.234,0.342,0.234,0.558s-0.078,0.399-0.234,0.549s-0.342,0.225-0.558,0.225s-0.399-0.075-0.549-0.225
		C254.952,76.717,254.876,76.534,254.876,76.318z"/>
	<path fill="#FFFFFF" d="M259.268,60.82l1.477-0.54v11.808h2.142v1.188h-5.004v-1.188h1.386V60.82z"/>
	<path fill="#FFFFFF" d="M263.93,65.716c0.084-0.024,0.184-0.036,0.298-0.036c0.113,0,0.219-0.006,0.314-0.018
		c0.12,0,0.234-0.006,0.342-0.018c0.648,0,1.332,0.102,2.053,0.306c0.72,0.205,1.383,0.546,1.988,1.026
		c0.606,0.48,1.11,1.116,1.513,1.908c0.401,0.792,0.603,1.782,0.603,2.97c0,0.24-0.012,0.477-0.036,0.711s-0.06,0.471-0.107,0.711
		h-8.316v-1.188h6.912c0-0.876-0.12-1.632-0.36-2.268c-0.24-0.636-0.566-1.167-0.98-1.593s-0.9-0.744-1.458-0.954
		c-0.559-0.21-1.155-0.327-1.791-0.351l-0.271,0.99h-1.224L263.93,65.716z M265.55,62.746c0-0.216,0.075-0.402,0.226-0.558
		c0.149-0.156,0.333-0.234,0.549-0.234s0.401,0.078,0.558,0.234s0.234,0.342,0.234,0.558c0,0.216-0.078,0.399-0.234,0.549
		s-0.342,0.225-0.558,0.225s-0.399-0.075-0.549-0.225C265.625,63.145,265.55,62.962,265.55,62.746z"/>
	<path fill="#FFFFFF" d="M276.422,69.838c0-0.684,0.145-1.308,0.432-1.872c0.288-0.564,0.676-1.053,1.161-1.467
		c0.486-0.414,1.05-0.735,1.692-0.963c0.642-0.228,1.316-0.342,2.025-0.342c0.144,0,0.297,0.009,0.459,0.027
		c0.161,0.018,0.326,0.039,0.494,0.063v8.442c0,0.563-0.084,1.044-0.252,1.44s-0.39,0.72-0.666,0.972
		c-0.275,0.252-0.6,0.435-0.972,0.549c-0.372,0.114-0.756,0.171-1.152,0.171c-0.288,0-0.521-0.012-0.701-0.036
		c-0.181-0.024-0.349-0.054-0.505-0.09l0.198-1.206c0.276,0.06,0.516,0.09,0.72,0.09c0.372,0,0.679-0.051,0.919-0.153
		c0.239-0.102,0.429-0.255,0.566-0.459s0.234-0.45,0.288-0.738c0.054-0.288,0.081-0.625,0.081-1.008l-1.098,0.018
		c-0.408,0-0.831-0.069-1.27-0.207c-0.438-0.138-0.837-0.345-1.197-0.621c-0.359-0.276-0.653-0.63-0.882-1.062
		C276.537,70.954,276.422,70.438,276.422,69.838z M277.97,69.702c0,0.407,0.072,0.756,0.216,1.049
		c0.145,0.293,0.339,0.539,0.585,0.736s0.525,0.344,0.838,0.439c0.312,0.096,0.636,0.144,0.972,0.144h0.63v-5.526
		c-0.36,0-0.732,0.075-1.116,0.225c-0.384,0.149-0.731,0.361-1.044,0.637c-0.312,0.275-0.57,0.607-0.773,0.996
		C278.072,68.79,277.97,69.223,277.97,69.702z"/>
	<path fill="#FFFFFF" d="M287.726,56.284h-0.827l-0.019-0.144c-0.132,0.012-0.272,0.033-0.423,0.063
		c-0.15,0.03-0.288,0.081-0.414,0.152s-0.228,0.167-0.306,0.285s-0.117,0.267-0.117,0.445c0,0.083,0.033,0.175,0.099,0.276
		c0.066,0.101,0.156,0.196,0.271,0.285c0.113,0.089,0.252,0.167,0.414,0.231c0.162,0.065,0.339,0.098,0.53,0.098h0.99v0.774h-3.438
		v-0.774h0.558c-0.096-0.132-0.171-0.273-0.225-0.423c-0.055-0.15-0.081-0.291-0.081-0.423c0.023-0.372,0.117-0.678,0.278-0.918
		c0.162-0.24,0.354-0.429,0.576-0.567c0.223-0.138,0.462-0.234,0.721-0.288c0.258-0.054,0.494-0.081,0.711-0.081
		c0.023,0,0.065,0.003,0.126,0.009c0.06,0.006,0.186,0.009,0.378,0.009L287.726,56.284z M287.726,56.284h-0.827l-0.019-0.144
		c-0.132,0.012-0.272,0.033-0.423,0.063c-0.15,0.03-0.288,0.081-0.414,0.152s-0.228,0.167-0.306,0.285s-0.117,0.267-0.117,0.445
		c0,0.083,0.033,0.175,0.099,0.276c0.066,0.101,0.156,0.196,0.271,0.285c0.113,0.089,0.252,0.167,0.414,0.231
		c0.162,0.065,0.339,0.098,0.53,0.098h0.99v0.774h-3.438v-0.774h0.558c-0.096-0.132-0.171-0.273-0.225-0.423
		c-0.055-0.15-0.081-0.291-0.081-0.423c0.023-0.372,0.117-0.678,0.278-0.918c0.162-0.24,0.354-0.429,0.576-0.567
		c0.223-0.138,0.462-0.234,0.721-0.288c0.258-0.054,0.494-0.081,0.711-0.081c0.023,0,0.065,0.003,0.126,0.009
		c0.06,0.006,0.186,0.009,0.378,0.009L287.726,56.284z M287.168,73.276h-1.476V60.82l1.476-0.54V73.276z"/>
	<path fill="#FFFFFF" d="M292.91,72.142v-0.81c0-0.612,0.138-1.092,0.414-1.44c0.275-0.348,0.618-0.576,1.026-0.684l0.27,0.522
		c-0.24,0.072-0.432,0.213-0.576,0.423c-0.144,0.21-0.228,0.519-0.252,0.927c0.096-0.024,0.174-0.036,0.234-0.036
		c0.312,0,0.576,0.108,0.792,0.324c0.216,0.216,0.324,0.48,0.324,0.792c0,0.312-0.108,0.576-0.324,0.792
		c-0.216,0.216-0.48,0.324-0.792,0.324c-0.312,0-0.576-0.108-0.792-0.324c-0.216-0.216-0.324-0.479-0.324-0.792V72.142z"/>
	<path fill="#FFFFFF" d="M296.618,69.676c0-0.78,0.162-1.464,0.486-2.052s0.738-1.08,1.242-1.476s1.059-0.696,1.665-0.9
		c0.605-0.204,1.197-0.306,1.772-0.306c0.072,0,0.168,0.003,0.288,0.009c0.12,0.006,0.246,0.012,0.378,0.018
		c0.132,0.006,0.258,0.015,0.378,0.027c0.12,0.012,0.217,0.024,0.288,0.036v7.056h2.269v1.188h-4.933
		c-0.516,0-1.005-0.078-1.467-0.234s-0.87-0.387-1.224-0.693c-0.354-0.306-0.633-0.684-0.837-1.134S296.618,70.252,296.618,69.676z
		 M298.184,69.622c0,0.396,0.065,0.75,0.198,1.062c0.132,0.312,0.314,0.57,0.549,0.774s0.507,0.36,0.819,0.468
		c0.312,0.108,0.647,0.162,1.008,0.162h0.882V66.22h-0.198c-0.264,0-0.582,0.061-0.954,0.18c-0.372,0.12-0.729,0.312-1.07,0.576
		c-0.343,0.264-0.634,0.615-0.873,1.053C298.304,68.467,298.184,68.998,298.184,69.622z M299.372,62.368
		c0-0.216,0.075-0.402,0.226-0.558c0.149-0.156,0.333-0.234,0.549-0.234s0.402,0.079,0.558,0.234
		c0.156,0.156,0.234,0.342,0.234,0.558c0,0.216-0.078,0.399-0.234,0.549c-0.155,0.15-0.342,0.225-0.558,0.225
		s-0.399-0.075-0.549-0.225C299.447,62.767,299.372,62.584,299.372,62.368z M301.244,62.368c0-0.216,0.075-0.402,0.226-0.558
		c0.149-0.156,0.333-0.234,0.549-0.234s0.402,0.079,0.558,0.234c0.156,0.156,0.234,0.342,0.234,0.558
		c0,0.216-0.078,0.399-0.234,0.549c-0.155,0.15-0.342,0.225-0.558,0.225s-0.399-0.075-0.549-0.225
		C301.319,62.767,301.244,62.584,301.244,62.368z"/>
	<path fill="#FFFFFF" d="M304.807,72.088h3.798c-0.024-0.036-0.09-0.138-0.198-0.306c-0.107-0.168-0.242-0.372-0.404-0.612
		c-0.162-0.24-0.34-0.504-0.531-0.792c-0.192-0.288-0.381-0.567-0.567-0.837c-0.186-0.27-0.359-0.522-0.521-0.756
		c-0.162-0.234-0.297-0.423-0.405-0.567c-0.012-0.012-0.042-0.003-0.09,0.027c-0.048,0.03-0.099,0.069-0.153,0.117
		c-0.054,0.048-0.102,0.09-0.144,0.126s-0.063,0.048-0.063,0.036l-0.594-0.936c0.3-0.3,0.642-0.591,1.026-0.873
		c0.384-0.282,0.792-0.531,1.224-0.747c0.432-0.216,0.885-0.387,1.359-0.513c0.474-0.126,0.956-0.189,1.448-0.189
		c0.528,0,1.035,0.069,1.521,0.207c0.486,0.138,0.915,0.327,1.287,0.567s0.669,0.534,0.891,0.882s0.333,0.726,0.333,1.134
		c0,0.432-0.087,0.84-0.261,1.224c-0.174,0.384-0.391,0.744-0.648,1.08s-0.537,0.648-0.837,0.936s-0.582,0.552-0.846,0.792h4.374
		v1.188h-10.998V72.088z M309.956,71.764c0.144-0.108,0.356-0.293,0.639-0.558c0.281-0.264,0.563-0.561,0.846-0.891
		s0.525-0.672,0.729-1.026c0.203-0.354,0.306-0.669,0.306-0.945c0-0.324-0.078-0.6-0.234-0.828
		c-0.155-0.228-0.356-0.414-0.603-0.558s-0.522-0.249-0.828-0.315s-0.603-0.099-0.891-0.099c-0.204,0-0.427,0.021-0.666,0.063
		c-0.24,0.042-0.486,0.102-0.738,0.18s-0.495,0.174-0.729,0.288c-0.233,0.114-0.446,0.243-0.639,0.387L309.956,71.764z"/>
	<path fill="#FFFFFF" d="M315.139,72.088h1.332v-6.804c0.204-0.036,0.393-0.06,0.567-0.072c0.174-0.012,0.339-0.018,0.494-0.018
		c1.152,0,2.101,0.18,2.845,0.54c0.743,0.36,1.332,0.828,1.764,1.404c0.432,0.576,0.731,1.221,0.9,1.935
		c0.168,0.714,0.252,1.431,0.252,2.151c0,0.456-0.033,0.864-0.1,1.224c-0.065,0.36-0.123,0.636-0.171,0.828h-7.884V72.088z
		 M317.947,72.088h3.727c0.023-0.144,0.042-0.291,0.054-0.441s0.019-0.297,0.019-0.441c0-0.696-0.075-1.335-0.226-1.917
		s-0.378-1.077-0.684-1.485c-0.307-0.408-0.699-0.726-1.18-0.954c-0.479-0.228-1.05-0.342-1.71-0.342V72.088z"/>
	<path fill="#FFFFFF" d="M326.335,72.088h3.006c-0.096-0.12-0.27-0.294-0.521-0.522s-0.537-0.528-0.855-0.9
		s-0.654-0.816-1.008-1.332c-0.354-0.516-0.682-1.116-0.981-1.8c-0.3-0.684-0.555-1.46-0.765-2.331
		c-0.21-0.87-0.327-1.838-0.351-2.907l1.35-0.774c-0.024,1.164,0.123,2.28,0.441,3.348c0.317,1.068,0.713,2.049,1.188,2.943
		c0.474,0.894,0.987,1.671,1.539,2.331s1.044,1.158,1.476,1.494V60.82l1.477-0.54v12.996h-5.994V72.088z"/>
	<path fill="#FFFFFF" d="M41.634,93.67l1.477-0.54v5.958h2.214v1.188h-9.756c-0.948,0-1.74-0.201-2.376-0.603
		c-0.637-0.402-1.092-0.909-1.368-1.521v-3.294l1.476-0.54v3.294c0.265,0.576,0.643,0.966,1.135,1.17
		c0.491,0.204,1.17,0.306,2.033,0.306h5.166V93.67z M38.413,103.066c0-0.216,0.075-0.402,0.226-0.558
		c0.149-0.156,0.333-0.234,0.549-0.234s0.401,0.078,0.558,0.234c0.156,0.156,0.234,0.342,0.234,0.558s-0.078,0.399-0.234,0.549
		s-0.342,0.225-0.558,0.225s-0.399-0.075-0.549-0.225C38.488,103.465,38.413,103.282,38.413,103.066z"/>
	<path fill="#FFFFFF" d="M46.386,92.716c0.012,0,0.029-0.003,0.054-0.009s0.066-0.012,0.126-0.018s0.15-0.012,0.271-0.018
		c0.119-0.006,0.281-0.015,0.485-0.027c0.648-0.024,1.332,0.063,2.053,0.261c0.72,0.198,1.383,0.54,1.988,1.026
		c0.606,0.486,1.11,1.131,1.513,1.935c0.401,0.804,0.603,1.8,0.603,2.988v0.234h1.944v1.188H45.018v-1.188h6.912
		c0-0.864-0.12-1.617-0.36-2.259s-0.566-1.176-0.98-1.602s-0.897-0.744-1.449-0.954s-1.146-0.327-1.782-0.351l-0.27,0.99h-1.242
		L46.386,92.716z"/>
	<path fill="#FFFFFF" d="M56.538,99.088V93.67l1.477-0.54v5.958h2.466V93.67l1.476-0.54v5.958h2.376V93.67l1.477-0.54v5.958h2.25
		v1.188H55.044v-1.188H56.538z"/>
	<path fill="#FFFFFF" d="M68.994,87.82l1.476-0.54v12.996h-2.808v-1.188h1.332V87.82z"/>
	<path fill="#FFFFFF" d="M75.06,100.276h-1.476V87.82l1.476-0.54V100.276z"/>
	<path fill="#FFFFFF" d="M90.162,98.818c0,0.12-0.007,0.21-0.019,0.27h2.196v1.188h-2.358c-0.107,0.408-0.267,0.81-0.477,1.206
		s-0.489,0.747-0.837,1.053c-0.349,0.306-0.771,0.555-1.27,0.747s-1.083,0.288-1.755,0.288c-0.756,0-1.443-0.135-2.061-0.405
		c-0.618-0.27-1.146-0.66-1.584-1.17c-0.438-0.51-0.774-1.128-1.008-1.854c-0.234-0.726-0.352-1.551-0.352-2.475
		c0-0.18,0.006-0.369,0.019-0.567c0.012-0.198,0.023-0.333,0.035-0.405c0.061-0.024,0.168-0.063,0.324-0.117
		c0.156-0.054,0.321-0.11,0.495-0.171c0.174-0.06,0.336-0.117,0.486-0.171c0.149-0.054,0.243-0.087,0.278-0.099
		c-0.012,0.036-0.023,0.108-0.035,0.216c-0.013,0.108-0.024,0.225-0.036,0.351c-0.013,0.126-0.021,0.255-0.027,0.387
		c-0.006,0.132-0.009,0.246-0.009,0.342c0,0.732,0.072,1.398,0.216,1.998c0.144,0.601,0.363,1.11,0.657,1.53
		c0.294,0.42,0.669,0.747,1.125,0.981s0.996,0.351,1.62,0.351c0.947,0,1.667-0.333,2.159-0.999s0.738-1.617,0.738-2.853v-4.752
		l1.477-0.54V98.818z M84.833,93.994c0-0.216,0.074-0.402,0.225-0.558s0.333-0.234,0.549-0.234c0.217,0,0.402,0.079,0.559,0.234
		c0.155,0.156,0.233,0.342,0.233,0.558c0,0.216-0.078,0.399-0.233,0.549c-0.156,0.15-0.342,0.225-0.559,0.225
		c-0.216,0-0.398-0.075-0.549-0.225S84.833,94.21,84.833,93.994z"/>
	<path fill="#FFFFFF" d="M91.908,99.088h1.332v-6.804c0.204-0.036,0.393-0.06,0.567-0.072c0.174-0.012,0.339-0.018,0.494-0.018
		c1.152,0,2.101,0.18,2.845,0.54c0.743,0.36,1.332,0.828,1.764,1.404c0.432,0.576,0.731,1.221,0.9,1.935
		c0.168,0.714,0.252,1.431,0.252,2.151c0,0.456-0.033,0.864-0.1,1.224c-0.065,0.36-0.123,0.636-0.171,0.828h-7.884V99.088z
		 M94.715,99.088h3.727c0.023-0.144,0.042-0.291,0.054-0.441s0.019-0.297,0.019-0.441c0-0.696-0.075-1.335-0.226-1.917
		s-0.378-1.077-0.684-1.485c-0.307-0.408-0.699-0.726-1.18-0.954c-0.479-0.228-1.05-0.342-1.71-0.342V99.088z"/>
	<path fill="#FFFFFF" d="M112.013,94.408h-1.225l-0.27-0.756c-0.372,0.036-0.783,0.093-1.233,0.171
		c-0.449,0.078-0.87,0.216-1.26,0.414c-0.39,0.198-0.72,0.474-0.99,0.828c-0.27,0.354-0.404,0.825-0.404,1.413
		c0,0.24,0.093,0.51,0.278,0.81c0.187,0.3,0.444,0.585,0.774,0.855s0.72,0.495,1.17,0.675s0.938,0.27,1.467,0.27h2.718v1.188h-3.474
		c-0.936,0.024-1.659,0.262-2.169,0.713s-0.765,1.116-0.765,1.995c0,0.458,0.104,0.905,0.314,1.345
		c0.21,0.439,0.501,0.83,0.873,1.173c0.372,0.343,0.819,0.616,1.341,0.821c0.522,0.204,1.102,0.307,1.737,0.307
		c0.06,0,0.201,0,0.423,0s0.486-0.003,0.792-0.009c0.306-0.006,0.636-0.009,0.99-0.009c0.354,0,0.684-0.003,0.99-0.009
		c0.306-0.006,0.569-0.012,0.792-0.018c0.222-0.006,0.362-0.015,0.423-0.027l-0.342,1.206c-0.049,0-0.181,0.003-0.396,0.009
		c-0.216,0.006-0.471,0.012-0.765,0.018c-0.295,0.006-0.615,0.012-0.963,0.018c-0.349,0.006-0.676,0.009-0.981,0.009
		s-0.579,0-0.819,0s-0.401,0-0.485,0c-0.78,0-1.503-0.135-2.169-0.405s-1.242-0.633-1.729-1.089
		c-0.485-0.456-0.87-0.975-1.151-1.557c-0.282-0.583-0.424-1.191-0.424-1.827c0-0.456,0.063-0.867,0.189-1.233
		c0.126-0.366,0.291-0.69,0.495-0.972c0.204-0.282,0.443-0.525,0.72-0.729s0.57-0.372,0.882-0.504
		c-0.323-0.096-0.621-0.246-0.891-0.45c-0.271-0.204-0.501-0.435-0.693-0.693c-0.191-0.258-0.342-0.54-0.45-0.846
		c-0.107-0.306-0.155-0.609-0.144-0.909c0.024-0.912,0.222-1.647,0.594-2.205s0.825-0.99,1.359-1.296
		c0.534-0.306,1.106-0.51,1.719-0.612c0.612-0.102,1.176-0.153,1.692-0.153c0.168,0,0.324,0.003,0.468,0.009
		c0.144,0.006,0.3,0.021,0.468,0.045L112.013,94.408z"/>
	<path fill="#FFFFFF" d="M113.885,96.838c0-0.684,0.145-1.308,0.432-1.872c0.288-0.564,0.676-1.053,1.161-1.467
		c0.486-0.414,1.05-0.735,1.692-0.963c0.642-0.228,1.316-0.342,2.025-0.342c0.144,0,0.297,0.009,0.459,0.027
		c0.161,0.018,0.326,0.039,0.494,0.063v6.786h2.431v1.206h-2.431v0.45c0,0.563-0.084,1.044-0.252,1.44s-0.39,0.72-0.666,0.972
		c-0.275,0.252-0.6,0.435-0.972,0.549c-0.372,0.114-0.756,0.171-1.152,0.171c-0.288,0-0.521-0.012-0.701-0.036
		c-0.181-0.024-0.349-0.054-0.505-0.09l0.198-1.206c0.276,0.06,0.516,0.09,0.72,0.09c0.372,0,0.679-0.051,0.919-0.153
		c0.239-0.102,0.429-0.255,0.566-0.459s0.234-0.45,0.288-0.738c0.054-0.288,0.081-0.625,0.081-1.008l-1.098,0.018
		c-0.408,0-0.831-0.069-1.27-0.207c-0.438-0.138-0.837-0.345-1.197-0.621c-0.359-0.276-0.653-0.63-0.882-1.062
		C114,97.954,113.885,97.438,113.885,96.838z M115.433,96.702c0,0.407,0.072,0.756,0.216,1.049c0.145,0.293,0.339,0.539,0.585,0.736
		s0.525,0.344,0.838,0.439c0.312,0.096,0.636,0.144,0.972,0.144h0.63v-5.526c-0.36,0-0.732,0.075-1.116,0.225
		c-0.384,0.149-0.731,0.361-1.044,0.637c-0.312,0.275-0.57,0.607-0.773,0.996C115.535,95.79,115.433,96.223,115.433,96.702z"/>
	<path fill="#FFFFFF" d="M124.306,93.67l1.477-0.54v5.958h2.394v1.188h-6.138v-1.188h2.268V93.67z M123.191,90.664
		c0-0.216,0.074-0.402,0.225-0.558c0.15-0.156,0.333-0.234,0.549-0.234s0.402,0.078,0.559,0.234
		c0.155,0.156,0.233,0.342,0.233,0.558c0,0.216-0.078,0.399-0.233,0.549c-0.156,0.15-0.343,0.225-0.559,0.225
		s-0.398-0.075-0.549-0.225C123.265,91.063,123.191,90.88,123.191,90.664z"/>
	<path fill="#FFFFFF" d="M128.969,87.82l1.476-0.54v12.996h-2.808v-1.188h1.332V87.82z"/>
	<path fill="#FFFFFF" d="M135.035,100.276h-1.476V87.82l1.476-0.54V100.276z"/>
	<path fill="#FFFFFF" d="M142.864,100.276h-1.476V87.82l1.476-0.54V100.276z"/>
	<path fill="#FFFFFF" d="M147.814,91.564c1.548,0.864,2.682,1.917,3.402,3.159c0.72,1.242,1.08,2.589,1.08,4.041
		c0,0.072-0.004,0.132-0.01,0.18c-0.006,0.048-0.009,0.096-0.009,0.144h1.818v1.188h-9l0.306-1.188h5.292
		c0.012-0.072,0.019-0.144,0.019-0.216c0-0.072,0-0.144,0-0.216c0-0.66-0.091-1.284-0.271-1.872c-0.18-0.587-0.432-1.127-0.756-1.62
		s-0.708-0.939-1.152-1.341c-0.443-0.402-0.936-0.753-1.476-1.053L147.814,91.564z M147.112,89.188c0-0.216,0.075-0.402,0.226-0.558
		c0.149-0.156,0.333-0.234,0.549-0.234s0.401,0.078,0.558,0.234c0.156,0.156,0.234,0.342,0.234,0.558
		c0,0.216-0.078,0.399-0.234,0.549c-0.156,0.15-0.342,0.225-0.558,0.225s-0.399-0.075-0.549-0.225
		C147.187,89.587,147.112,89.404,147.112,89.188z"/>
	<path fill="#FFFFFF" d="M158.146,91.546c0.372,0.024,0.795,0.081,1.269,0.171c0.475,0.09,0.954,0.231,1.44,0.423
		c0.486,0.192,0.963,0.447,1.431,0.765c0.468,0.318,0.882,0.717,1.242,1.197s0.65,1.056,0.873,1.728
		c0.222,0.672,0.333,1.452,0.333,2.34c0,0.168-0.009,0.363-0.027,0.585c-0.018,0.222-0.057,0.423-0.117,0.603
		c0,0.012-0.023,0.054-0.071,0.126s-0.105,0.156-0.171,0.252c-0.066,0.096-0.136,0.192-0.207,0.288
		c-0.072,0.096-0.133,0.18-0.181,0.252h-10.224v-1.188h1.836c-0.204-0.156-0.411-0.417-0.621-0.783
		c-0.21-0.366-0.314-0.777-0.314-1.233c0-0.9,0.297-1.716,0.891-2.448s1.389-1.356,2.385-1.872L158.146,91.546z M156.202,96.964
		c0,0.372,0.069,0.69,0.207,0.954c0.138,0.264,0.303,0.483,0.495,0.657c0.191,0.174,0.396,0.303,0.612,0.387s0.396,0.126,0.54,0.126
		h0.216c0.18,0,0.32-0.063,0.423-0.189c0.102-0.126,0.183-0.294,0.243-0.504c0.06-0.21,0.099-0.453,0.117-0.729
		c0.018-0.276,0.026-0.57,0.026-0.882V93.49c-0.06,0-0.246,0.075-0.558,0.225c-0.312,0.15-0.639,0.369-0.981,0.657
		c-0.342,0.288-0.65,0.648-0.927,1.08C156.339,95.884,156.202,96.388,156.202,96.964z M163.114,99.088
		c0.036-0.216,0.054-0.48,0.054-0.792c0-0.384-0.035-0.81-0.107-1.278c-0.072-0.468-0.207-0.927-0.405-1.377
		c-0.198-0.45-0.468-0.867-0.81-1.251c-0.343-0.384-0.79-0.684-1.342-0.9v3.24c0,0.624-0.029,1.122-0.09,1.494
		c-0.06,0.372-0.204,0.66-0.432,0.864H163.114z"/>
	<path fill="#FFFFFF" d="M166.786,96.838c0-0.684,0.145-1.308,0.432-1.872c0.288-0.564,0.676-1.053,1.161-1.467
		c0.486-0.414,1.05-0.735,1.692-0.963c0.642-0.228,1.316-0.342,2.025-0.342c0.144,0,0.297,0.009,0.459,0.027
		c0.161,0.018,0.326,0.039,0.494,0.063v8.442c0,0.563-0.084,1.044-0.252,1.44s-0.39,0.72-0.666,0.972
		c-0.275,0.252-0.6,0.435-0.972,0.549c-0.372,0.114-0.756,0.171-1.152,0.171c-0.288,0-0.521-0.012-0.701-0.036
		c-0.181-0.024-0.349-0.054-0.505-0.09l0.198-1.206c0.276,0.06,0.516,0.09,0.72,0.09c0.372,0,0.679-0.051,0.919-0.153
		c0.239-0.102,0.429-0.255,0.566-0.459s0.234-0.45,0.288-0.738c0.054-0.288,0.081-0.625,0.081-1.008l-1.098,0.018
		c-0.408,0-0.831-0.069-1.27-0.207c-0.438-0.138-0.837-0.345-1.197-0.621c-0.359-0.276-0.653-0.63-0.882-1.062
		C166.9,97.954,166.786,97.438,166.786,96.838z M168.333,96.702c0,0.407,0.072,0.756,0.216,1.049
		c0.145,0.293,0.339,0.539,0.585,0.736s0.525,0.344,0.838,0.439c0.312,0.096,0.636,0.144,0.972,0.144h0.63v-5.526
		c-0.36,0-0.732,0.075-1.116,0.225c-0.384,0.149-0.731,0.361-1.044,0.637c-0.312,0.275-0.57,0.607-0.773,0.996
		C168.435,95.79,168.333,96.223,168.333,96.702z"/>
	<path fill="#FFFFFF" d="M178.864,99.142c0-0.312,0.104-0.576,0.315-0.792c0.209-0.216,0.471-0.324,0.782-0.324
		c0.312,0,0.576,0.108,0.792,0.324c0.217,0.216,0.324,0.48,0.324,0.792s-0.107,0.573-0.324,0.783
		c-0.216,0.21-0.479,0.315-0.792,0.315c-0.312,0-0.573-0.105-0.782-0.315C178.968,99.715,178.864,99.454,178.864,99.142z"/>
	<path fill="#FFFFFF" d="M182.662,99.088h1.692v-6.804c0.203-0.036,0.393-0.06,0.566-0.072c0.174-0.012,0.339-0.018,0.495-0.018
		c1.152,0,2.1,0.18,2.844,0.54s1.332,0.828,1.765,1.404c0.432,0.576,0.731,1.221,0.899,1.935c0.168,0.714,0.252,1.431,0.252,2.151
		c0,0.456-0.033,0.864-0.099,1.224c-0.066,0.36-0.123,0.636-0.171,0.828h-6.769v2.556l-1.476,0.54V99.088z M185.83,99.088h3.726
		c0.024-0.144,0.042-0.291,0.055-0.441c0.012-0.15,0.018-0.297,0.018-0.441c0-0.696-0.075-1.335-0.225-1.917
		c-0.15-0.582-0.378-1.077-0.685-1.485c-0.306-0.408-0.699-0.726-1.179-0.954c-0.48-0.228-1.05-0.342-1.71-0.342V99.088z"/>
	<path fill="#FFFFFF" d="M194.487,93.67l1.477-0.54v5.958h2.105v1.188h-2.105v0.846c0,0.504-0.081,0.933-0.243,1.287
		s-0.381,0.642-0.657,0.864c-0.276,0.222-0.594,0.384-0.954,0.486c-0.359,0.102-0.737,0.153-1.134,0.153
		c-0.204,0-0.381-0.006-0.531-0.018c-0.149-0.012-0.374-0.042-0.675-0.09l0.198-1.26c0.072,0.024,0.183,0.045,0.333,0.063
		s0.273,0.027,0.369,0.027c0.624,0,1.083-0.132,1.377-0.396c0.294-0.264,0.44-0.75,0.44-1.458V93.67z M194.379,89.908
		c0-0.216,0.074-0.402,0.225-0.558c0.15-0.156,0.333-0.234,0.549-0.234c0.217,0,0.402,0.078,0.559,0.234
		c0.155,0.156,0.233,0.342,0.233,0.558c0,0.216-0.078,0.399-0.233,0.549c-0.156,0.15-0.342,0.225-0.559,0.225
		c-0.216,0-0.398-0.075-0.549-0.225S194.379,90.124,194.379,89.908z"/>
	<path fill="#FFFFFF" d="M199.041,92.716c0.084-0.024,0.184-0.036,0.298-0.036c0.113,0,0.219-0.006,0.314-0.018
		c0.12,0,0.234-0.006,0.342-0.018c0.648,0,1.332,0.102,2.053,0.306c0.72,0.205,1.383,0.546,1.988,1.026
		c0.606,0.48,1.11,1.116,1.513,1.908c0.401,0.792,0.603,1.782,0.603,2.97c0,0.24-0.012,0.477-0.036,0.711s-0.06,0.471-0.107,0.711
		h-8.316v-1.188h6.912c0-0.876-0.12-1.632-0.36-2.268c-0.24-0.636-0.566-1.167-0.98-1.593s-0.9-0.744-1.458-0.954
		c-0.559-0.21-1.155-0.327-1.791-0.351l-0.271,0.99h-1.224L199.041,92.716z"/>
	<path fill="#FFFFFF" d="M221.181,99.088h2.214v1.188h-2.358c-0.096,0.408-0.255,0.81-0.477,1.206
		c-0.223,0.396-0.52,0.747-0.892,1.053c-0.372,0.306-0.821,0.555-1.35,0.747s-1.146,0.288-1.854,0.288
		c-0.684,0-1.322-0.12-1.917-0.36c-0.594-0.24-1.106-0.594-1.539-1.062c-0.432-0.468-0.771-1.041-1.017-1.719
		c-0.246-0.678-0.369-1.455-0.369-2.331c0-0.083,0.003-0.183,0.009-0.297c0.006-0.114,0.013-0.225,0.019-0.333
		s0.012-0.204,0.018-0.288c0.006-0.083,0.01-0.144,0.01-0.18c0.06-0.024,0.167-0.063,0.323-0.117
		c0.156-0.054,0.324-0.111,0.504-0.171c0.181-0.06,0.345-0.117,0.495-0.171c0.15-0.054,0.243-0.087,0.279-0.099
		c-0.024,0.084-0.048,0.258-0.072,0.522c-0.024,0.264-0.036,0.498-0.036,0.702c0,1.572,0.282,2.736,0.847,3.492
		c0.563,0.756,1.428,1.134,2.592,1.134c0.996,0,1.761-0.306,2.295-0.918c0.534-0.612,0.801-1.59,0.801-2.934V87.82l1.477-0.54
		V99.088z"/>
	<path fill="#FFFFFF" d="M230.631,89.836l-0.342-0.972l-4.986,4.266c0.804,0.06,1.565,0.204,2.286,0.432
		c0.72,0.228,1.353,0.555,1.898,0.981s0.979,0.963,1.296,1.611c0.318,0.648,0.478,1.422,0.478,2.322
		c0,0.096-0.003,0.195-0.009,0.297c-0.007,0.102-0.016,0.207-0.027,0.315h1.728v1.188h-9.936v-1.188h6.66
		c0.023-0.096,0.036-0.21,0.036-0.342c0-0.132,0-0.234,0-0.306c0-0.66-0.133-1.245-0.396-1.755c-0.264-0.51-0.624-0.939-1.08-1.287
		s-0.987-0.609-1.593-0.783c-0.606-0.174-1.245-0.261-1.917-0.261h-0.521l-0.486-1.602l6.948-5.796
		c0.023,0.072,0.068,0.192,0.135,0.36c0.065,0.168,0.138,0.36,0.216,0.576c0.078,0.216,0.156,0.438,0.234,0.666
		c0.077,0.228,0.146,0.432,0.207,0.612L230.631,89.836z"/>
	<path fill="#FFFFFF" d="M234.05,99.088V93.67l1.477-0.54v5.958h2.466V93.67l1.476-0.54v5.958h2.376V93.67l1.477-0.54v7.146h-10.746
		v-1.188H234.05z M237.128,90.52c0-0.216,0.075-0.402,0.226-0.558c0.149-0.156,0.333-0.234,0.549-0.234s0.401,0.078,0.558,0.234
		c0.156,0.156,0.234,0.342,0.234,0.558c0,0.216-0.078,0.399-0.234,0.549c-0.156,0.15-0.342,0.225-0.558,0.225
		s-0.399-0.075-0.549-0.225C237.204,90.919,237.128,90.736,237.128,90.52z M237.993,88.936c0-0.216,0.075-0.402,0.225-0.558
		c0.15-0.156,0.333-0.234,0.55-0.234c0.216,0,0.401,0.078,0.558,0.234c0.156,0.156,0.234,0.342,0.234,0.558
		c0,0.216-0.078,0.399-0.234,0.549c-0.156,0.15-0.342,0.225-0.558,0.225c-0.217,0-0.399-0.075-0.55-0.225
		C238.068,89.335,237.993,89.152,237.993,88.936z M239,90.52c0-0.216,0.075-0.402,0.226-0.558c0.149-0.156,0.333-0.234,0.549-0.234
		s0.401,0.078,0.558,0.234c0.156,0.156,0.234,0.342,0.234,0.558c0,0.216-0.078,0.399-0.234,0.549
		c-0.156,0.15-0.342,0.225-0.558,0.225s-0.399-0.075-0.549-0.225C239.076,90.919,239,90.736,239,90.52z"/>
	<path fill="#FFFFFF" d="M259.754,102.31c-0.18,0.479-0.417,0.951-0.711,1.413s-0.66,0.876-1.099,1.242
		c-0.438,0.366-0.96,0.66-1.565,0.882c-0.606,0.222-1.312,0.333-2.115,0.333c-0.732,0-1.401-0.105-2.007-0.315
		c-0.606-0.21-1.146-0.486-1.62-0.828c-0.475-0.342-0.876-0.727-1.206-1.152s-0.585-0.855-0.765-1.287v-4.626l1.476-0.54v4.698
		c0.132,0.324,0.333,0.648,0.604,0.972c0.27,0.324,0.591,0.621,0.963,0.891c0.371,0.27,0.792,0.489,1.26,0.657
		s0.966,0.252,1.494,0.252c0.456,0,0.879-0.069,1.269-0.207c0.39-0.138,0.738-0.321,1.044-0.549c0.307-0.228,0.57-0.48,0.792-0.756
		c0.223-0.276,0.394-0.552,0.514-0.828l-2.79-2.322l0.594-1.152h4.014V87.82l1.477-0.54v11.808h2.268v1.188h-6.372L259.754,102.31z"
		/>
	<path fill="#FFFFFF" d="M270.644,94.408h-1.224l-0.27-0.756c-0.372,0.036-0.783,0.093-1.233,0.171
		c-0.45,0.078-0.87,0.216-1.26,0.414c-0.391,0.198-0.721,0.474-0.99,0.828c-0.271,0.354-0.405,0.825-0.405,1.413
		c0,0.24,0.093,0.51,0.279,0.81c0.186,0.3,0.443,0.585,0.774,0.855c0.329,0.27,0.72,0.495,1.17,0.675
		c0.449,0.18,0.938,0.27,1.467,0.27h2.718v1.188h-8.46v-1.188h1.944c-0.421-0.288-0.754-0.657-0.999-1.107
		c-0.246-0.45-0.357-0.909-0.333-1.377c0.023-0.912,0.222-1.647,0.594-2.205s0.825-0.99,1.359-1.296
		c0.533-0.306,1.106-0.51,1.719-0.612c0.612-0.102,1.176-0.153,1.691-0.153c0.168,0,0.324,0.003,0.469,0.009
		c0.144,0.006,0.3,0.021,0.468,0.045L270.644,94.408z"/>
	<path fill="#FFFFFF" d="M276.314,96.838c0-0.684,0.145-1.308,0.432-1.872c0.288-0.564,0.676-1.053,1.161-1.467
		c0.486-0.414,1.05-0.735,1.692-0.963c0.642-0.228,1.316-0.342,2.025-0.342c0.144,0,0.297,0.009,0.459,0.027
		c0.161,0.018,0.326,0.039,0.494,0.063v8.442c0,0.563-0.084,1.044-0.252,1.44s-0.39,0.72-0.666,0.972
		c-0.275,0.252-0.6,0.435-0.972,0.549c-0.372,0.114-0.756,0.171-1.152,0.171c-0.288,0-0.521-0.012-0.701-0.036
		c-0.181-0.024-0.349-0.054-0.505-0.09l0.198-1.206c0.276,0.06,0.516,0.09,0.72,0.09c0.372,0,0.679-0.051,0.919-0.153
		c0.239-0.102,0.429-0.255,0.566-0.459s0.234-0.45,0.288-0.738c0.054-0.288,0.081-0.625,0.081-1.008l-1.098,0.018
		c-0.408,0-0.831-0.069-1.27-0.207c-0.438-0.138-0.837-0.345-1.197-0.621c-0.359-0.276-0.653-0.63-0.882-1.062
		C276.428,97.954,276.314,97.438,276.314,96.838z M277.862,96.702c0,0.407,0.072,0.756,0.216,1.049
		c0.145,0.293,0.339,0.539,0.585,0.736s0.525,0.344,0.838,0.439c0.312,0.096,0.636,0.144,0.972,0.144h0.63v-5.526
		c-0.36,0-0.732,0.075-1.116,0.225c-0.384,0.149-0.731,0.361-1.044,0.637c-0.312,0.275-0.57,0.607-0.773,0.996
		C277.963,95.79,277.862,96.223,277.862,96.702z"/>
	<path fill="#FFFFFF" d="M287.618,83.284h-0.827l-0.019-0.144c-0.132,0.012-0.272,0.033-0.423,0.063
		c-0.15,0.03-0.288,0.081-0.414,0.152s-0.228,0.167-0.306,0.285s-0.117,0.267-0.117,0.445c0,0.083,0.033,0.175,0.099,0.276
		c0.066,0.101,0.156,0.196,0.271,0.285c0.113,0.089,0.252,0.167,0.414,0.231c0.162,0.065,0.339,0.098,0.53,0.098h0.99v0.774h-3.438
		v-0.774h0.558c-0.096-0.132-0.171-0.273-0.225-0.423c-0.055-0.15-0.081-0.291-0.081-0.423c0.023-0.372,0.117-0.678,0.278-0.918
		c0.162-0.24,0.354-0.429,0.576-0.567c0.223-0.138,0.462-0.234,0.721-0.288c0.258-0.054,0.494-0.081,0.711-0.081
		c0.023,0,0.065,0.003,0.126,0.009c0.06,0.006,0.186,0.009,0.378,0.009L287.618,83.284z M287.618,83.284h-0.827l-0.019-0.144
		c-0.132,0.012-0.272,0.033-0.423,0.063c-0.15,0.03-0.288,0.081-0.414,0.152s-0.228,0.167-0.306,0.285s-0.117,0.267-0.117,0.445
		c0,0.083,0.033,0.175,0.099,0.276c0.066,0.101,0.156,0.196,0.271,0.285c0.113,0.089,0.252,0.167,0.414,0.231
		c0.162,0.065,0.339,0.098,0.53,0.098h0.99v0.774h-3.438v-0.774h0.558c-0.096-0.132-0.171-0.273-0.225-0.423
		c-0.055-0.15-0.081-0.291-0.081-0.423c0.023-0.372,0.117-0.678,0.278-0.918c0.162-0.24,0.354-0.429,0.576-0.567
		c0.223-0.138,0.462-0.234,0.721-0.288c0.258-0.054,0.494-0.081,0.711-0.081c0.023,0,0.065,0.003,0.126,0.009
		c0.06,0.006,0.186,0.009,0.378,0.009L287.618,83.284z M287.06,100.276h-1.476V87.82l1.476-0.54V100.276z"/>
	<path fill="#FFFFFF" d="M292.801,99.142v-0.81c0-0.612,0.138-1.092,0.414-1.44c0.275-0.348,0.618-0.576,1.026-0.684l0.27,0.522
		c-0.24,0.072-0.432,0.213-0.576,0.423c-0.144,0.21-0.228,0.519-0.252,0.927c0.096-0.024,0.174-0.036,0.234-0.036
		c0.312,0,0.576,0.108,0.792,0.324c0.216,0.216,0.324,0.48,0.324,0.792c0,0.312-0.108,0.576-0.324,0.792
		c-0.216,0.216-0.48,0.324-0.792,0.324c-0.312,0-0.576-0.108-0.792-0.324c-0.216-0.216-0.324-0.479-0.324-0.792V99.142z"/>
	<path fill="#FFFFFF" d="M296.509,96.676c0-0.78,0.162-1.464,0.486-2.052s0.738-1.08,1.242-1.476s1.059-0.696,1.665-0.9
		c0.605-0.204,1.197-0.306,1.772-0.306c0.072,0,0.168,0.003,0.288,0.009c0.12,0.006,0.246,0.012,0.378,0.018
		c0.132,0.006,0.258,0.015,0.378,0.027c0.12,0.012,0.217,0.024,0.288,0.036v7.056h2.269v1.188h-4.933
		c-0.516,0-1.005-0.078-1.467-0.234s-0.87-0.387-1.224-0.693c-0.354-0.306-0.633-0.684-0.837-1.134S296.509,97.252,296.509,96.676z
		 M298.076,96.622c0,0.396,0.065,0.75,0.198,1.062c0.132,0.312,0.314,0.57,0.549,0.774s0.507,0.36,0.819,0.468
		c0.312,0.108,0.647,0.162,1.008,0.162h0.882V93.22h-0.198c-0.264,0-0.582,0.061-0.954,0.18c-0.372,0.12-0.729,0.312-1.07,0.576
		c-0.343,0.264-0.634,0.615-0.873,1.053C298.196,95.467,298.076,95.998,298.076,96.622z M299.263,89.368
		c0-0.216,0.075-0.402,0.226-0.558c0.149-0.156,0.333-0.234,0.549-0.234s0.402,0.079,0.558,0.234
		c0.156,0.156,0.234,0.342,0.234,0.558c0,0.216-0.078,0.399-0.234,0.549c-0.155,0.15-0.342,0.225-0.558,0.225
		s-0.399-0.075-0.549-0.225C299.338,89.767,299.263,89.584,299.263,89.368z M301.135,89.368c0-0.216,0.075-0.402,0.226-0.558
		c0.149-0.156,0.333-0.234,0.549-0.234s0.402,0.079,0.558,0.234c0.156,0.156,0.234,0.342,0.234,0.558
		c0,0.216-0.078,0.399-0.234,0.549c-0.155,0.15-0.342,0.225-0.558,0.225s-0.399-0.075-0.549-0.225
		C301.21,89.767,301.135,89.584,301.135,89.368z"/>
	<path fill="#FFFFFF" d="M304.7,99.088h2.214c-0.36-0.288-0.639-0.648-0.837-1.08s-0.297-0.864-0.297-1.296
		c0-0.648,0.141-1.248,0.423-1.8c0.282-0.552,0.663-1.029,1.144-1.431c0.479-0.402,1.044-0.717,1.691-0.945
		c0.648-0.228,1.332-0.342,2.052-0.342c0.252,0,0.511,0.012,0.774,0.036s0.462,0.06,0.594,0.108v6.75h2.322v1.188H304.7V99.088z
		 M310.982,93.544c-0.024-0.012-0.069-0.021-0.135-0.027c-0.066-0.006-0.124-0.009-0.172-0.009c-0.384,0-0.773,0.072-1.17,0.216
		c-0.396,0.144-0.756,0.351-1.08,0.621c-0.323,0.27-0.588,0.6-0.792,0.99s-0.306,0.831-0.306,1.323c0,0.372,0.065,0.708,0.198,1.008
		c0.132,0.3,0.312,0.555,0.54,0.765c0.228,0.21,0.495,0.372,0.801,0.486s0.633,0.171,0.981,0.171h1.134V93.544z M308.66,88.954
		c0-0.216,0.075-0.399,0.225-0.549c0.15-0.15,0.333-0.225,0.55-0.225c0.216,0,0.401,0.075,0.558,0.225
		c0.156,0.15,0.234,0.333,0.234,0.549c0,0.216-0.078,0.402-0.234,0.558c-0.156,0.156-0.342,0.234-0.558,0.234
		c-0.217,0-0.399-0.078-0.55-0.234C308.735,89.356,308.66,89.17,308.66,88.954z M310.532,88.954c0-0.216,0.075-0.399,0.225-0.549
		c0.15-0.15,0.333-0.225,0.55-0.225c0.216,0,0.401,0.075,0.558,0.225c0.155,0.15,0.234,0.333,0.234,0.549
		c0,0.216-0.079,0.402-0.234,0.558c-0.156,0.156-0.342,0.234-0.558,0.234c-0.217,0-0.399-0.078-0.55-0.234
		C310.607,89.356,310.532,89.17,310.532,88.954z"/>
	<path fill="#FFFFFF" d="M316.506,93.67L318,93.13v5.958h2.395v1.188h-6.156v-1.188h2.268V93.67z M314.958,103.318
		c0-0.216,0.075-0.402,0.226-0.558c0.149-0.156,0.333-0.234,0.549-0.234s0.401,0.078,0.558,0.234s0.234,0.342,0.234,0.558
		s-0.078,0.399-0.234,0.549s-0.342,0.225-0.558,0.225s-0.399-0.075-0.549-0.225C315.034,103.717,314.958,103.534,314.958,103.318z
		 M316.831,103.318c0-0.216,0.075-0.402,0.226-0.558c0.149-0.156,0.333-0.234,0.549-0.234s0.401,0.078,0.558,0.234
		s0.234,0.342,0.234,0.558s-0.078,0.399-0.234,0.549s-0.342,0.225-0.558,0.225s-0.399-0.075-0.549-0.225
		C316.906,103.717,316.831,103.534,316.831,103.318z"/>
	<path fill="#FFFFFF" d="M319.837,99.088h2.214c-0.36-0.288-0.639-0.648-0.837-1.08s-0.297-0.864-0.297-1.296
		c0-0.648,0.141-1.248,0.423-1.8c0.282-0.552,0.663-1.029,1.144-1.431c0.479-0.402,1.044-0.717,1.691-0.945
		c0.648-0.228,1.332-0.342,2.052-0.342c0.252,0,0.511,0.012,0.774,0.036s0.462,0.06,0.594,0.108v7.938h-7.758V99.088z
		 M326.12,93.544c-0.024-0.012-0.069-0.021-0.135-0.027c-0.066-0.006-0.124-0.009-0.172-0.009c-0.384,0-0.773,0.072-1.17,0.216
		c-0.396,0.144-0.756,0.351-1.08,0.621c-0.323,0.27-0.588,0.6-0.792,0.99s-0.306,0.831-0.306,1.323c0,0.372,0.065,0.708,0.198,1.008
		c0.132,0.3,0.312,0.555,0.54,0.765c0.228,0.21,0.495,0.372,0.801,0.486s0.633,0.171,0.981,0.171h1.134V93.544z M323.797,88.954
		c0-0.216,0.075-0.399,0.225-0.549c0.15-0.15,0.333-0.225,0.55-0.225c0.216,0,0.401,0.075,0.558,0.225
		c0.156,0.15,0.234,0.333,0.234,0.549c0,0.216-0.078,0.402-0.234,0.558c-0.156,0.156-0.342,0.234-0.558,0.234
		c-0.217,0-0.399-0.078-0.55-0.234C323.873,89.356,323.797,89.17,323.797,88.954z M325.669,88.954c0-0.216,0.075-0.399,0.225-0.549
		c0.15-0.15,0.333-0.225,0.55-0.225c0.216,0,0.401,0.075,0.558,0.225c0.155,0.15,0.234,0.333,0.234,0.549
		c0,0.216-0.079,0.402-0.234,0.558c-0.156,0.156-0.342,0.234-0.558,0.234c-0.217,0-0.399-0.078-0.55-0.234
		C325.745,89.356,325.669,89.17,325.669,88.954z"/>
	<path fill="#FFFFFF" d="M331.105,93.67l1.477-0.54v7.992c0,0.504-0.081,0.933-0.243,1.287s-0.381,0.642-0.657,0.864
		c-0.276,0.222-0.594,0.384-0.954,0.486c-0.359,0.102-0.737,0.153-1.134,0.153c-0.204,0-0.381-0.006-0.531-0.018
		c-0.149-0.012-0.374-0.042-0.675-0.09l0.198-1.26c0.072,0.024,0.183,0.045,0.333,0.063s0.273,0.027,0.369,0.027
		c0.624,0,1.083-0.132,1.377-0.396c0.294-0.264,0.44-0.75,0.44-1.458V93.67z"/>
	<path fill="#FFFFFF" d="M178.145,126.142c0-0.312,0.104-0.576,0.315-0.792c0.209-0.216,0.471-0.324,0.782-0.324
		c0.312,0,0.576,0.108,0.792,0.324c0.217,0.216,0.324,0.48,0.324,0.792s-0.107,0.573-0.324,0.783
		c-0.216,0.21-0.479,0.315-0.792,0.315c-0.312,0-0.573-0.105-0.782-0.315C178.25,126.715,178.145,126.454,178.145,126.142z"/>
	<path fill="#FFFFFF" d="M183.67,120.67l1.477-0.54v7.992c0,0.504-0.081,0.933-0.243,1.287s-0.381,0.642-0.657,0.864
		c-0.276,0.222-0.594,0.384-0.954,0.486c-0.359,0.102-0.737,0.153-1.134,0.153c-0.204,0-0.381-0.006-0.531-0.018
		c-0.149-0.012-0.374-0.042-0.675-0.09l0.198-1.26c0.072,0.024,0.183,0.045,0.333,0.063s0.273,0.027,0.369,0.027
		c0.624,0,1.083-0.132,1.377-0.396c0.294-0.264,0.44-0.75,0.44-1.458V120.67z"/>
	<path fill="#FFFFFF" d="M188.279,127.276V114.82l1.476-0.54v11.808h2.034v1.188H188.279z"/>
	<path fill="#FFFFFF" d="M191.554,126.088h1.278V114.82l1.476-0.54v9.126c0.252-0.456,0.567-0.918,0.945-1.386
		c0.378-0.468,0.804-0.894,1.277-1.278c0.475-0.384,0.99-0.696,1.549-0.936c0.558-0.24,1.148-0.36,1.772-0.36
		c0.708,0,1.312,0.144,1.81,0.432c0.497,0.288,0.902,0.666,1.215,1.134c0.312,0.468,0.537,1.002,0.675,1.602
		c0.138,0.6,0.207,1.206,0.207,1.818c0,0.349-0.027,0.669-0.081,0.963s-0.105,0.525-0.153,0.693h2.214v1.188h-14.184V126.088z
		 M201.995,126.088c0.048-0.132,0.096-0.345,0.144-0.639c0.048-0.294,0.072-0.633,0.072-1.017c0-0.408-0.036-0.831-0.108-1.269
		s-0.201-0.837-0.387-1.197c-0.187-0.36-0.441-0.657-0.765-0.891c-0.324-0.234-0.732-0.351-1.225-0.351
		c-0.456,0-0.897,0.096-1.323,0.288c-0.426,0.192-0.834,0.441-1.224,0.747s-0.75,0.651-1.08,1.035
		c-0.33,0.384-0.621,0.774-0.873,1.17s-0.456,0.78-0.612,1.152c-0.155,0.372-0.252,0.696-0.287,0.972H201.995z"/>
	<path fill="#FFFFFF" d="M205.415,126.088h1.332v-6.804c0.204-0.036,0.393-0.06,0.567-0.072c0.174-0.012,0.339-0.018,0.494-0.018
		c1.152,0,2.101,0.18,2.845,0.54c0.743,0.36,1.332,0.828,1.764,1.404c0.432,0.576,0.731,1.221,0.9,1.935
		c0.168,0.714,0.252,1.431,0.252,2.151c0,0.456-0.033,0.864-0.1,1.224c-0.065,0.36-0.123,0.636-0.171,0.828h-7.884V126.088z
		 M208.222,126.088h3.727c0.023-0.144,0.042-0.291,0.054-0.441s0.019-0.297,0.019-0.441c0-0.696-0.075-1.335-0.226-1.917
		s-0.378-1.077-0.684-1.485c-0.307-0.408-0.699-0.726-1.18-0.954c-0.479-0.228-1.05-0.342-1.71-0.342V126.088z"/>
	<path fill="#FFFFFF" d="M218.463,110.284h-0.827l-0.019-0.144c-0.132,0.012-0.272,0.033-0.423,0.063
		c-0.15,0.03-0.288,0.081-0.414,0.152s-0.228,0.167-0.306,0.285s-0.117,0.267-0.117,0.445c0,0.083,0.033,0.175,0.099,0.276
		c0.066,0.101,0.156,0.196,0.271,0.285c0.113,0.089,0.252,0.167,0.414,0.231c0.162,0.065,0.339,0.098,0.53,0.098h0.99v0.774h-3.438
		v-0.774h0.558c-0.096-0.132-0.171-0.273-0.225-0.423c-0.055-0.15-0.081-0.291-0.081-0.423c0.023-0.372,0.117-0.678,0.278-0.918
		c0.162-0.24,0.354-0.429,0.576-0.567c0.223-0.138,0.462-0.234,0.721-0.288c0.258-0.054,0.494-0.081,0.711-0.081
		c0.023,0,0.065,0.003,0.126,0.009c0.06,0.006,0.186,0.009,0.378,0.009L218.463,110.284z M218.463,110.284h-0.827l-0.019-0.144
		c-0.132,0.012-0.272,0.033-0.423,0.063c-0.15,0.03-0.288,0.081-0.414,0.152s-0.228,0.167-0.306,0.285s-0.117,0.267-0.117,0.445
		c0,0.083,0.033,0.175,0.099,0.276c0.066,0.101,0.156,0.196,0.271,0.285c0.113,0.089,0.252,0.167,0.414,0.231
		c0.162,0.065,0.339,0.098,0.53,0.098h0.99v0.774h-3.438v-0.774h0.558c-0.096-0.132-0.171-0.273-0.225-0.423
		c-0.055-0.15-0.081-0.291-0.081-0.423c0.023-0.372,0.117-0.678,0.278-0.918c0.162-0.24,0.354-0.429,0.576-0.567
		c0.223-0.138,0.462-0.234,0.721-0.288c0.258-0.054,0.494-0.081,0.711-0.081c0.023,0,0.065,0.003,0.126,0.009
		c0.06,0.006,0.186,0.009,0.378,0.009L218.463,110.284z M217.906,127.276h-1.476V114.82l1.476-0.54V127.276z"/>
	<path fill="#FFFFFF" d="M233.008,125.8c0,0.66-0.091,1.278-0.271,1.854s-0.459,1.08-0.837,1.512
		c-0.378,0.432-0.867,0.774-1.467,1.026c-0.601,0.252-1.314,0.378-2.143,0.378c-0.684,0-1.322-0.12-1.917-0.36
		c-0.594-0.24-1.106-0.594-1.539-1.062c-0.432-0.468-0.771-1.041-1.017-1.719c-0.246-0.678-0.369-1.455-0.369-2.331
		c0-0.083,0.003-0.183,0.009-0.297c0.006-0.114,0.013-0.225,0.019-0.333s0.012-0.204,0.018-0.288c0.006-0.083,0.01-0.144,0.01-0.18
		c0.06-0.024,0.167-0.063,0.323-0.117c0.156-0.054,0.324-0.111,0.504-0.171c0.181-0.06,0.345-0.117,0.495-0.171
		c0.15-0.054,0.243-0.087,0.279-0.099c-0.024,0.084-0.048,0.258-0.072,0.522c-0.024,0.264-0.036,0.498-0.036,0.702
		c0,1.572,0.282,2.736,0.847,3.492c0.563,0.756,1.428,1.134,2.592,1.134c0.996,0,1.761-0.306,2.295-0.918
		c0.534-0.612,0.801-1.59,0.801-2.934v-10.8l1.477-0.36V125.8z"/>
	<path fill="#FFFFFF" d="M235.221,123.838c0-0.684,0.145-1.308,0.432-1.872c0.288-0.564,0.676-1.053,1.161-1.467
		c0.486-0.414,1.05-0.735,1.692-0.963c0.642-0.228,1.316-0.342,2.025-0.342c0.144,0,0.297,0.009,0.459,0.027
		c0.161,0.018,0.326,0.039,0.494,0.063v6.786h2.431v1.206h-2.431v0.45c0,0.563-0.084,1.044-0.252,1.44s-0.39,0.72-0.666,0.972
		c-0.275,0.252-0.6,0.435-0.972,0.549c-0.372,0.114-0.756,0.171-1.152,0.171c-0.288,0-0.521-0.012-0.701-0.036
		c-0.181-0.024-0.349-0.054-0.505-0.09l0.198-1.206c0.276,0.06,0.516,0.09,0.72,0.09c0.372,0,0.679-0.051,0.919-0.153
		c0.239-0.102,0.429-0.255,0.566-0.459s0.234-0.45,0.288-0.738c0.054-0.288,0.081-0.625,0.081-1.008l-1.098,0.018
		c-0.408,0-0.831-0.069-1.27-0.207c-0.438-0.138-0.837-0.345-1.197-0.621c-0.359-0.276-0.653-0.63-0.882-1.062
		C235.335,124.954,235.221,124.438,235.221,123.838z M236.769,123.702c0,0.407,0.072,0.756,0.216,1.049
		c0.145,0.293,0.339,0.539,0.585,0.736s0.525,0.344,0.838,0.439c0.312,0.096,0.636,0.144,0.972,0.144h0.63v-5.526
		c-0.36,0-0.732,0.075-1.116,0.225c-0.384,0.149-0.731,0.361-1.044,0.637c-0.312,0.275-0.57,0.607-0.773,0.996
		C236.871,122.79,236.769,123.223,236.769,123.702z"/>
	<path fill="#FFFFFF" d="M243.375,126.088h1.278V114.82l1.476-0.54v9.126c0.252-0.456,0.567-0.918,0.945-1.386
		c0.378-0.468,0.804-0.894,1.277-1.278c0.475-0.384,0.99-0.696,1.549-0.936c0.558-0.24,1.148-0.36,1.772-0.36
		c0.708,0,1.312,0.144,1.81,0.432c0.497,0.288,0.902,0.666,1.215,1.134c0.312,0.468,0.537,1.002,0.675,1.602
		c0.138,0.6,0.207,1.206,0.207,1.818c0,0.349-0.027,0.669-0.081,0.963s-0.105,0.525-0.153,0.693h2.214v1.188h-14.184V126.088z
		 M253.816,126.088c0.048-0.132,0.096-0.345,0.144-0.639c0.048-0.294,0.072-0.633,0.072-1.017c0-0.408-0.036-0.831-0.108-1.269
		s-0.201-0.837-0.387-1.197c-0.187-0.36-0.441-0.657-0.765-0.891c-0.324-0.234-0.732-0.351-1.225-0.351
		c-0.456,0-0.897,0.096-1.323,0.288c-0.426,0.192-0.834,0.441-1.224,0.747s-0.75,0.651-1.08,1.035
		c-0.33,0.384-0.621,0.774-0.873,1.17s-0.456,0.78-0.612,1.152c-0.155,0.372-0.252,0.696-0.287,0.972H253.816z"/>
	<path fill="#FFFFFF" d="M261.645,118.546c0.372,0.024,0.795,0.081,1.269,0.171c0.475,0.09,0.954,0.231,1.44,0.423
		c0.486,0.192,0.963,0.447,1.431,0.765c0.468,0.318,0.882,0.717,1.242,1.197s0.65,1.056,0.873,1.728
		c0.222,0.672,0.333,1.452,0.333,2.34c0,0.168-0.009,0.363-0.027,0.585c-0.018,0.222-0.057,0.423-0.117,0.603
		c0,0.012-0.023,0.054-0.071,0.126s-0.105,0.156-0.171,0.252c-0.066,0.096-0.136,0.192-0.207,0.288
		c-0.072,0.096-0.133,0.18-0.181,0.252h-10.224v-1.188h1.836c-0.204-0.156-0.411-0.417-0.621-0.783
		c-0.21-0.366-0.314-0.777-0.314-1.233c0-0.9,0.297-1.716,0.891-2.448s1.389-1.356,2.385-1.872L261.645,118.546z M259.701,123.964
		c0,0.372,0.069,0.69,0.207,0.954c0.138,0.264,0.303,0.483,0.495,0.657c0.191,0.174,0.396,0.303,0.612,0.387s0.396,0.126,0.54,0.126
		h0.216c0.18,0,0.32-0.063,0.423-0.189c0.102-0.126,0.183-0.294,0.243-0.504c0.06-0.21,0.099-0.453,0.117-0.729
		c0.018-0.276,0.026-0.57,0.026-0.882v-3.294c-0.06,0-0.246,0.075-0.558,0.225c-0.312,0.15-0.639,0.369-0.981,0.657
		c-0.342,0.288-0.65,0.648-0.927,1.08C259.838,122.884,259.701,123.388,259.701,123.964z M266.613,126.088
		c0.036-0.216,0.054-0.48,0.054-0.792c0-0.384-0.035-0.81-0.107-1.278c-0.072-0.468-0.207-0.927-0.405-1.377
		c-0.198-0.45-0.468-0.867-0.81-1.251c-0.343-0.384-0.79-0.684-1.342-0.9v3.24c0,0.624-0.029,1.122-0.09,1.494
		c-0.06,0.372-0.204,0.66-0.432,0.864H266.613z"/>
	<path fill="#FFFFFF" d="M273.092,123.676c0-0.78,0.162-1.464,0.486-2.052s0.738-1.08,1.242-1.476s1.059-0.696,1.665-0.9
		c0.605-0.204,1.197-0.306,1.772-0.306c0.072,0,0.168,0.003,0.288,0.009c0.12,0.006,0.246,0.012,0.378,0.018
		c0.132,0.006,0.258,0.015,0.378,0.027c0.12,0.012,0.217,0.024,0.288,0.036v7.056h2.088v1.188h-4.752
		c-0.516,0-1.005-0.078-1.467-0.234s-0.87-0.387-1.224-0.693c-0.354-0.306-0.633-0.684-0.837-1.134S273.092,124.252,273.092,123.676
		z M274.659,123.622c0,0.396,0.065,0.75,0.198,1.062c0.132,0.312,0.314,0.57,0.549,0.774s0.507,0.36,0.819,0.468
		c0.312,0.108,0.647,0.162,1.008,0.162h0.882v-5.868h-0.198c-0.264,0-0.582,0.061-0.954,0.18c-0.372,0.12-0.729,0.312-1.07,0.576
		c-0.343,0.264-0.634,0.615-0.873,1.053C274.779,122.467,274.659,122.998,274.659,123.622z"/>
	<path fill="#FFFFFF" d="M283.55,120.67l1.477-0.54v5.958h2.394v1.188h-6.138v-1.188h2.268V120.67z M283.317,130.066
		c0-0.216,0.074-0.402,0.225-0.558c0.15-0.156,0.333-0.234,0.549-0.234c0.217,0,0.402,0.078,0.559,0.234
		c0.155,0.156,0.233,0.342,0.233,0.558s-0.078,0.399-0.233,0.549c-0.156,0.15-0.342,0.225-0.559,0.225
		c-0.216,0-0.398-0.075-0.549-0.225S283.317,130.282,283.317,130.066z"/>
	<path fill="#FFFFFF" d="M288.23,119.716c0.084-0.024,0.184-0.036,0.298-0.036c0.113,0,0.219-0.006,0.314-0.018
		c0.12,0,0.234-0.006,0.342-0.018c0.648,0,1.332,0.102,2.053,0.306c0.72,0.205,1.383,0.546,1.988,1.026
		c0.606,0.48,1.11,1.116,1.513,1.908c0.401,0.792,0.603,1.782,0.603,2.97c0,0.24-0.012,0.477-0.036,0.711s-0.06,0.471-0.107,0.711
		h-8.316v-1.188h6.912c0-0.876-0.12-1.632-0.36-2.268c-0.24-0.636-0.566-1.167-0.98-1.593s-0.9-0.744-1.458-0.954
		c-0.559-0.21-1.155-0.327-1.791-0.351l-0.271,0.99h-1.224L288.23,119.716z"/>
	<path fill="#FFFFFF" d="M298.329,127.276V114.82l1.476-0.54v11.808h2.034v1.188H298.329z"/>
	<path fill="#FFFFFF" d="M301.604,126.088h1.044v-5.058l1.476-0.54v2.916c0.276-0.54,0.615-1.047,1.018-1.521
		c0.401-0.474,0.84-0.888,1.313-1.242c0.475-0.354,0.966-0.633,1.477-0.837c0.51-0.204,1.011-0.306,1.503-0.306
		c0.695,0,1.29,0.147,1.782,0.441c0.491,0.294,0.894,0.678,1.206,1.152c0.312,0.474,0.536,1.002,0.675,1.584
		c0.138,0.583,0.207,1.161,0.207,1.737c0,0.204-0.013,0.456-0.036,0.756c-0.024,0.3-0.066,0.606-0.126,0.918h2.376v1.188h-13.914
		V126.088z M309.308,120.778c-0.54,0-1.086,0.156-1.638,0.468c-0.553,0.312-1.068,0.72-1.549,1.224
		c-0.479,0.504-0.896,1.071-1.251,1.701c-0.354,0.63-0.603,1.269-0.747,1.917h7.507c0.06-0.216,0.096-0.474,0.107-0.774
		s0.019-0.534,0.019-0.702c0-0.348-0.03-0.744-0.091-1.188c-0.06-0.444-0.18-0.861-0.359-1.251c-0.18-0.39-0.43-0.72-0.747-0.99
		C310.241,120.913,309.824,120.778,309.308,120.778z"/>
	<path fill="#FFFFFF" d="M318.128,120.67l1.476-0.54v7.146h-4.644v-1.188h3.168V120.67z M315.68,130.318
		c0-0.216,0.075-0.402,0.226-0.558c0.149-0.156,0.333-0.234,0.549-0.234s0.401,0.078,0.558,0.234s0.234,0.342,0.234,0.558
		s-0.078,0.399-0.234,0.549s-0.342,0.225-0.558,0.225s-0.399-0.075-0.549-0.225C315.755,130.717,315.68,130.534,315.68,130.318z
		 M317.552,130.318c0-0.216,0.075-0.402,0.226-0.558c0.149-0.156,0.333-0.234,0.549-0.234s0.401,0.078,0.558,0.234
		s0.234,0.342,0.234,0.558s-0.078,0.399-0.234,0.549s-0.342,0.225-0.558,0.225s-0.399-0.075-0.549-0.225
		C317.627,130.717,317.552,130.534,317.552,130.318z"/>
	<path fill="#FFFFFF" d="M326.335,126.088h3.006c-0.096-0.12-0.27-0.294-0.521-0.522s-0.537-0.528-0.855-0.9
		s-0.654-0.816-1.008-1.332c-0.354-0.516-0.682-1.116-0.981-1.8c-0.3-0.684-0.555-1.46-0.765-2.331
		c-0.21-0.87-0.327-1.838-0.351-2.907l1.35-0.774c-0.024,1.164,0.123,2.28,0.441,3.348c0.317,1.068,0.713,2.049,1.188,2.943
		c0.474,0.894,0.987,1.671,1.539,2.331s1.044,1.158,1.476,1.494V114.82l1.477-0.54v12.996h-5.994V126.088z"/>
</g>
</svg>
