<?xml version="1.0" encoding="utf-8"?>
<!-- Generator: Adobe Illustrator 16.0.0, SVG Export Plug-In . SVG Version: 6.00 Build 0)  -->
<!DOCTYPE svg PUBLIC "-//W3C//DTD SVG 1.1//EN" "http://www.w3.org/Graphics/SVG/1.1/DTD/svg11.dtd">
<svg version="1.1" id="Layer_1" xmlns="http://www.w3.org/2000/svg" xmlns:xlink="http://www.w3.org/1999/xlink" x="0px" y="0px"
	 width="3466.394px" height="1117.109px" viewBox="0 0 3466.394 1117.109" enable-background="new 0 0 3466.394 1117.109"
	 xml:space="preserve">
<path id="one" opacity="0.8" fill="#E4F4F3" d="M121.497,261.537l18.57-184.014l18.57,184.014
                                               c1.524,15.097-7.221,28.532-18.57,28.532l0,0C128.717,290.069,119.973,276.634,121.497,261.537z"> 
    
<animateTransform attributeName="transform"
                      attributeType="XML"
                      type="translate"
                      values="0 100;0 -100;"
                      dur="1s"
                      repeatCount="indefinite"/>
    </path>
<path id="two" opacity="0.5" fill="#E4F4F3" d="M425.215,701.584l18.57-184.014l18.57,184.014
	c1.523,15.098-7.221,28.533-18.57,28.533l0,0C432.436,730.117,423.691,716.682,425.215,701.584z">
    <animateTransform attributeName="transform"
                      attributeType="XML"
                      type="translate"
                      values="0 100;0 -100;"
                      dur="1s"
                      repeatCount="indefinite"/>
    </path>
<path id="three" opacity="0.5" fill="#E4F4F3" d="M771.056,402.305l18.57-184.014l18.57,184.014
                                                 c1.523,15.097-7.221,28.532-18.57,28.532l0,0C778.277,430.837,769.533,417.402,771.056,402.305z">
    <animateTransform attributeName="transform"
                      attributeType="XML"
                      type="translate"
                      values="0 100;0 -100;"
                      dur="1s"
                      repeatCount="indefinite"/>
    </path>
<path id="four" opacity="0.8" fill="#E4F4F3" d="M1074.358,911.095l18.569-184.014l18.57,184.014
	c1.523,15.097-7.221,28.532-18.57,28.532l0,0C1081.579,939.628,1072.834,926.193,1074.358,911.095z">
    <animateTransform attributeName="transform"
                      attributeType="XML"
                      type="translate"
                      values="0 100;0 -100;"
                      dur="1s"
                      repeatCount="indefinite"/>
    </path>
<path id="five" opacity="0.5" fill="#E4F4F3" d="M1506.394,422.058l18.57-184.014l18.57,184.014
	c1.523,15.097-7.221,28.532-18.57,28.532l0,0C1513.614,450.59,1504.87,437.155,1506.394,422.058z">
    <animateTransform attributeName="transform"
                      attributeType="XML"
                      type="translate"
                      values="0 100;0 -100;"
                      dur="1s"
                      repeatCount="indefinite"/>
    </path>
<path id="six" opacity="0.8" fill="#E4F4F3" d="M1723.917,781.156l18.57-184.014l18.57,184.014
	c1.523,15.097-7.221,28.532-18.57,28.532l0,0C1731.138,809.688,1722.394,796.253,1723.917,781.156z">
    <animateTransform attributeName="transform"
                      attributeType="XML"
                      type="translate"
                      values="0 100;0 -100;"
                      dur="1s"
                      repeatCount="indefinite"/>
    </path>
<path id="seven" opacity="0.8" fill="#E4F4F3" d="M2100.56,595.312l18.569-184.014l18.57,184.014
	c1.523,15.097-7.221,28.532-18.57,28.532l0,0C2107.78,623.844,2099.036,610.408,2100.56,595.312z">
    <animateTransform attributeName="transform"
                      attributeType="XML"
                      type="translate"
                      values="0 100;0 -100;"
                      dur="1s"
                      repeatCount="indefinite"/>
    </path>
<path id="eight" opacity="0.5" fill="#E4F4F3" d="M2397.643,961.121l18.57-184.014l18.57,184.014
	c1.523,15.098-7.221,28.533-18.57,28.533l0,0C2404.863,989.654,2396.119,976.218,2397.643,961.121z">
    <animateTransform attributeName="transform"
                      attributeType="XML"
                      type="translate"
                      values="0 100;0 -100;"
                      dur="1s"
                      repeatCount="indefinite"/>
    </path>
<path id="nine" opacity="0.8" fill="#E4F4F3" d="M2694.726,595.312l18.57-184.014l18.569,184.014
	c1.524,15.097-7.221,28.532-18.569,28.532l0,0C2701.946,623.844,2693.202,610.408,2694.726,595.312z">
    <animateTransform attributeName="transform"
                      attributeType="XML"
                      type="translate"
                      values="0 100;0 -100;"
                      dur="1s"
                      repeatCount="indefinite"/>
    </path>
<path id="ten" opacity="0.8" fill="#E4F4F3" d="M3034.717,807.859l18.57-184.015l18.57,184.015
	c1.523,15.097-7.221,28.532-18.57,28.532l0,0C3041.938,836.391,3033.193,822.955,3034.717,807.859z">
    <animateTransform attributeName="transform"
                      attributeType="XML"
                      type="translate"
                      values="0 100;0 -100;"
                      dur="1s"
                      repeatCount="indefinite"/>
    </path>
<path id="eleven" opacity="0.5" fill="#E4F4F3" d="M3288.892,422.058l18.569-184.014l18.57,184.014
	c1.523,15.097-7.221,28.532-18.57,28.532l0,0C3296.112,450.59,3287.367,437.155,3288.892,422.058z">
    <animateTransform attributeName="transform"
                      attributeType="XML"
                      type="translate"
                      values="0 100;0 -100;"
                      dur="1s"
                      repeatCount="indefinite"/>
    </path>
</svg>
